{
copyright = "vernon adams \U00A9 2011-2012";
customParameters = (
{
name = openTypeOS2FamilyClass;
value = (
    0,
    0
);
},
{
name = openTypeOS2Panose;
value = (
    0,
    0,
    0,
    0,
    0,
    0,
    0,
    0,
    0,
    0
);
},
{
name = openTypeOS2StrikeoutPosition;
value = "-459";
},
{
name = openTypeOS2StrikeoutSize;
value = "-38";
},
{
name = openTypeOS2SubscriptXOffset;
value = 0;
},
{
name = openTypeOS2SubscriptXSize;
value = "-1002";
},
{
name = openTypeOS2SubscriptYOffset;
value = "-115";
},
{
name = openTypeOS2SubscriptYSize;
value = "-925";
},
{
name = openTypeOS2SuperscriptXOffset;
value = 0;
},
{
name = openTypeOS2SuperscriptXSize;
value = "-1002";
},
{
name = openTypeOS2SuperscriptYOffset;
value = "-539";
},
{
name = openTypeOS2SuperscriptYSize;
value = "-925";
},
{
name = postscriptFamilyBlues;
value = (
);
},
{
name = postscriptFamilyOtherBlues;
value = (
);
},
{
name = postscriptFontName;
value = "OxygenSans-Thin";
},
{
name = postscriptFullName;
value = "OxygenSans Thin";
},
{
name = styleMapStyleName;
value = regular;
},
{
name = styleName;
value = "Extra-light";
}
);
date = "2012-08-17 20:52:53 +0000";
designer = "vernon adams";
designerURL = newtypography.co.uk;
familyName = "OxygenSans";
fontMaster = (
{
ascender = 1706;
capHeight = 1354;
customParameters = (
{
name = winAscent;
value = 1987;
},
{
name = winDescent;
value = 797;
}
);
descender = "-442";
id = "9209D6FA-1952-4593-83C2-3566FC124D27";
xHeight = 986;
}
);
glyphs = (
{
glyphname = A;
layers = (
{
anchors = (
{
name = ogonek;
position = "{1063, 0}";
},
{
name = top;
position = "{603, 1339}";
}
);
layerId = "9209D6FA-1952-4593-83C2-3566FC124D27";
name = Regular;
paths = (
{
closed = 1;
nodes = (
"363 548 LINE SMOOTH",
"363 548 OFFCURVE",
"609 1235 OFFCURVE",
"609 1235 CURVE",
"866 548 LINE"
);
},
{
closed = 1;
nodes = (
"46 0 LINE",
"154 0 LINE",
"331 464 LINE",
"889 464 LINE",
"1068 0 LINE",
"1171 0 LINE",
"659 1354 LINE",
"558 1354 LINE"
);
}
);
width = 1217;
}
);
unicode = 0041;
},
{
glyphname = AE;
layers = (
{
anchors = (
{
name = top;
position = "{1010, 1349}";
}
);
layerId = "9209D6FA-1952-4593-83C2-3566FC124D27";
name = Regular;
paths = (
{
closed = 1;
nodes = (
"1132 1362 LINE",
"1173 815 LINE",
"1813 815 LINE",
"1813 703 LINE",
"1190 703 LINE",
"1233 111 LINE",
"1849 111 LINE",
"1860 0 LINE",
"1167 0 LINE",
"1139 425 LINE",
"434 425 LINE",
"185 0 LINE",
"130 0 LINE",
"1019 1474 LINE",
"1841 1474 LINE",
"1853 1362 LINE"
);
},
{
closed = 1;
nodes = (
"1116 535 LINE",
"1048 1410 LINE",
"496 535 LINE"
);
}
);
width = 2021;
}
);
unicode = 00C6;
},
{
glyphname = B;
layers = (
{
layerId = "9209D6FA-1952-4593-83C2-3566FC124D27";
name = Regular;
paths = (
{
closed = 1;
nodes = (
"214 0 LINE",
"709 0 LINE SMOOTH",
"1045 0 OFFCURVE",
"1181 153 OFFCURVE",
"1181 376 CURVE SMOOTH",
"1181 539 OFFCURVE",
"1082 651 OFFCURVE",
"862 704 CURVE",
"1125 779 OFFCURVE",
"1115 969 OFFCURVE",
"1115 1025 CURVE SMOOTH",
"1115 1246 OFFCURVE",
"956 1354 OFFCURVE",
"606 1354 CURVE SMOOTH",
"214 1354 LINE"
);
},
{
closed = 1;
nodes = (
"328 88 LINE",
"328 668 LINE",
"624 668 LINE SMOOTH",
"923 668 OFFCURVE",
"1067 599 OFFCURVE",
"1067 374 CURVE SMOOTH",
"1067 169 OFFCURVE",
"956 88 OFFCURVE",
"693 88 CURVE SMOOTH"
);
},
{
closed = 1;
nodes = (
"328 756 LINE",
"328 1266 LINE",
"618 1266 LINE SMOOTH",
"876 1266 OFFCURVE",
"1009 1217 OFFCURVE",
"1009 1014 CURVE SMOOTH",
"1009 801 OFFCURVE",
"884 756 OFFCURVE",
"693 756 CURVE SMOOTH"
);
}
);
width = 1297;
}
);
unicode = 0042;
},
{
glyphname = C;
layers = (
{
anchors = (
{
name = bottom;
position = "{637, 4}";
},
{
name = top;
position = "{637, 1349}";
}
);
layerId = "9209D6FA-1952-4593-83C2-3566FC124D27";
name = Regular;
paths = (
{
closed = 1;
nodes = (
"140 265 OFFCURVE",
"392 -18 OFFCURVE",
"779 -18 CURVE SMOOTH",
"958 -18 OFFCURVE",
"1111 38 OFFCURVE",
"1129 63 CURVE",
"1097 147 LINE",
"1005 107 OFFCURVE",
"924 72 OFFCURVE",
"801 72 CURVE SMOOTH",
"427 72 OFFCURVE",
"254 340 OFFCURVE",
"254 675 CURVE SMOOTH",
"254 1010 OFFCURVE",
"428 1282 OFFCURVE",
"781 1282 CURVE SMOOTH",
"899 1282 OFFCURVE",
"1016 1248 OFFCURVE",
"1097 1195 CURVE",
"1143 1267 LINE",
"1065 1327 OFFCURVE",
"936 1372 OFFCURVE",
"768 1372 CURVE SMOOTH",
"355 1372 OFFCURVE",
"140 1064 OFFCURVE",
"140 681 CURVE SMOOTH"
);
}
);
width = 1227;
}
);
unicode = 0043;
},
{
glyphname = D;
layers = (
{
anchors = (
{
name = center;
position = "{705, 675}";
},
{
name = top;
position = "{705, 1349}";
}
);
layerId = "9209D6FA-1952-4593-83C2-3566FC124D27";
name = Regular;
paths = (
{
closed = 1;
nodes = (
"328 1266 LINE",
"328 88 LINE",
"602 88 LINE SMOOTH",
"1002 88 OFFCURVE",
"1196 282 OFFCURVE",
"1196 675 CURVE SMOOTH",
"1196 1107 OFFCURVE",
"967 1266 OFFCURVE",
"577 1266 CURVE SMOOTH"
);
},
{
closed = 1;
nodes = (
"214 0 LINE",
"214 1354 LINE",
"592 1354 LINE SMOOTH",
"1021 1354 OFFCURVE",
"1310 1156 OFFCURVE",
"1310 679 CURVE SMOOTH",
"1310 229 OFFCURVE",
"1051 0 OFFCURVE",
"621 0 CURVE SMOOTH"
);
}
);
width = 1450;
}
);
unicode = 0044;
},
{
glyphname = Eth;
layers = (
{
layerId = "9209D6FA-1952-4593-83C2-3566FC124D27";
name = Regular;
paths = (
{
closed = 1;
nodes = (
"397 663 LINE",
"397 95 LINE",
"751 95 LINE SMOOTH",
"1111 95 OFFCURVE",
"1334 279 OFFCURVE",
"1334 667 CURVE SMOOTH",
"1334 1144 OFFCURVE",
"1037 1276 OFFCURVE",
"654 1276 CURVE SMOOTH",
"397 1276 LINE",
"397 747 LINE",
"651 747 LINE",
"651 663 LINE"
);
},
{
closed = 1;
nodes = (
"308 750 LINE",
"308 1375 LINE",
"632 1375 LINE SMOOTH",
"1094 1375 OFFCURVE",
"1439 1219 OFFCURVE",
"1439 675 CURVE SMOOTH",
"1439 212 OFFCURVE",
"1159 -1 OFFCURVE",
"733 -1 CURVE SMOOTH",
"308 -1 LINE",
"308 666 LINE",
"204 666 LINE",
"204 750 LINE"
);
}
);
width = 1603;
}
);
unicode = 00D0;
},
{
glyphname = Dcroat;
layers = (
{
layerId = "9209D6FA-1952-4593-83C2-3566FC124D27";
name = Regular;
paths = (
{
closed = 1;
nodes = (
"384 634 LINE",
"384 141 LINE",
"671 141 LINE SMOOTH",
"1004 141 OFFCURVE",
"1202 316 OFFCURVE",
"1202 668 CURVE SMOOTH",
"1202 1097 OFFCURVE",
"953 1220 OFFCURVE",
"581 1220 CURVE SMOOTH",
"384 1220 LINE",
"384 757 LINE",
"604 757 LINE",
"604 634 LINE"
);
},
{
closed = 1;
nodes = (
"223 757 LINE",
"223 1361 LINE",
"561 1361 LINE SMOOTH",
"1031 1361 OFFCURVE",
"1374 1197 OFFCURVE",
"1374 672 CURVE SMOOTH",
"1374 219 OFFCURVE",
"1084 0 OFFCURVE",
"654 0 CURVE SMOOTH",
"223 0 LINE",
"223 634 LINE",
"116 634 LINE",
"116 757 LINE"
);
}
);
width = 1490;
}
);
unicode = 0110;
},
{
glyphname = E;
layers = (
{
anchors = (
{
name = bottom;
position = "{581, 0}";
},
{
name = ogonek;
position = "{1008, 10}";
},
{
name = top;
position = "{581, 1349}";
}
);
layerId = "9209D6FA-1952-4593-83C2-3566FC124D27";
name = Regular;
paths = (
{
closed = 1;
nodes = (
"328 1266 LINE",
"328 740 LINE",
"945 740 LINE",
"945 652 LINE",
"328 652 LINE",
"328 88 LINE",
"1020 88 LINE",
"1011 0 LINE",
"214 0 LINE",
"214 1354 LINE",
"1020 1354 LINE",
"1016 1266 LINE"
);
}
);
width = 1140;
}
);
unicode = 0045;
},
{
glyphname = F;
layers = (
{
layerId = "9209D6FA-1952-4593-83C2-3566FC124D27";
name = Regular;
paths = (
{
closed = 1;
nodes = (
"332 1266 LINE",
"332 722 LINE",
"899 722 LINE",
"899 639 LINE",
"332 639 LINE",
"332 0 LINE",
"214 0 LINE",
"214 1354 LINE",
"950 1354 LINE",
"941 1266 LINE"
);
}
);
width = 1016;
}
);
unicode = 0046;
},
{
glyphname = G;
layers = (
{
anchors = (
{
name = bottom;
position = "{704, 0}";
},
{
name = top;
position = "{704, 1349}";
}
);
layerId = "9209D6FA-1952-4593-83C2-3566FC124D27";
name = Regular;
paths = (
{
closed = 1;
nodes = (
"140 286 OFFCURVE",
"350 -18 OFFCURVE",
"782 -18 CURVE SMOOTH",
"967 -18 OFFCURVE",
"1111 11 OFFCURVE",
"1245 60 CURVE",
"1245 676 LINE",
"827 676 LINE",
"818 577 LINE",
"1131 577 LINE",
"1131 121 LINE",
"1079 110 OFFCURVE",
"940 72 OFFCURVE",
"819 72 CURVE SMOOTH",
"412 72 OFFCURVE",
"254 313 OFFCURVE",
"254 673 CURVE SMOOTH",
"254 1009 OFFCURVE",
"448 1282 OFFCURVE",
"790 1282 CURVE SMOOTH",
"1030 1282 OFFCURVE",
"1127 1207 OFFCURVE",
"1175 1177 CURVE",
"1204 1265 LINE",
"1106 1344 OFFCURVE",
"947 1372 OFFCURVE",
"793 1372 CURVE SMOOTH",
"363 1372 OFFCURVE",
"140 1060 OFFCURVE",
"140 672 CURVE SMOOTH"
);
}
);
width = 1399;
}
);
unicode = 0047;
},
{
glyphname = H;
lastChange = "2012-12-29 11:49:34 +0000";
layers = (
{
anchors = (
{
name = center;
position = "{711, 675}";
},
{
name = top;
position = "{711, 1349}";
}
);
layerId = "9209D6FA-1952-4593-83C2-3566FC124D27";
name = Regular;
paths = (
{
closed = 1;
nodes = (
"328 736 LINE",
"328 1354 LINE",
"214 1354 LINE",
"214 0 LINE",
"328 0 LINE",
"328 655 LINE",
"1104 655 LINE",
"1104 0 LINE",
"1218 0 LINE",
"1218 1354 LINE",
"1104 1354 LINE",
"1104 736 LINE"
);
}
);
width = 1432;
}
);
unicode = 0048;
},
{
glyphname = Hbar;
layers = (
{
layerId = "9209D6FA-1952-4593-83C2-3566FC124D27";
name = Regular;
paths = (
{
closed = 1;
nodes = (
"261 1094 LINE",
"261 1378 LINE",
"349 1378 LINE",
"349 1094 LINE",
"1204 1094 LINE",
"1204 1378 LINE",
"1292 1378 LINE",
"1292 1094 LINE",
"1379 1094 LINE",
"1379 1027 LINE",
"1292 1027 LINE",
"1292 0 LINE",
"1204 0 LINE",
"1204 658 LINE",
"349 658 LINE",
"349 0 LINE",
"261 0 LINE",
"261 1027 LINE",
"173 1027 LINE",
"173 1094 LINE"
);
},
{
closed = 1;
nodes = (
"349 761 LINE",
"1204 761 LINE",
"1204 1027 LINE",
"349 1027 LINE"
);
}
);
width = 1569;
}
);
unicode = 0126;
},
{
glyphname = I;
layers = (
{
anchors = (
{
name = ogonek;
position = "{449, 10}";
},
{
name = top;
position = "{273, 1354}";
}
);
layerId = "9209D6FA-1952-4593-83C2-3566FC124D27";
name = Regular;
paths = (
{
closed = 1;
nodes = (
"216 0 LINE",
"216 1354 LINE",
"330 1354 LINE",
"330 0 LINE"
);
}
);
width = 546;
}
);
unicode = 0049;
},
{
glyphname = IJ;
layers = (
{
layerId = "9209D6FA-1952-4593-83C2-3566FC124D27";
name = Regular;
paths = (
{
closed = 1;
nodes = (
"141 0 LINE",
"141 1349 LINE",
"230 1349 LINE",
"230 0 LINE"
);
},
{
closed = 1;
nodes = (
"641 -130 OFFCURVE",
"609 -131 OFFCURVE",
"632 -136 CURVE",
"608 -25 LINE",
"579 -21 OFFCURVE",
"665 -19 OFFCURVE",
"648 -19 CURVE SMOOTH",
"840 -19 OFFCURVE",
"835 98 OFFCURVE",
"835 226 CURVE SMOOTH",
"835 1349 LINE",
"925 1349 LINE",
"925 268 LINE SMOOTH",
"925 0 OFFCURVE",
"942 -130 OFFCURVE",
"619 -130 CURVE SMOOTH"
);
}
);
width = 1127;
}
);
unicode = 0132;
},
{
glyphname = J;
layers = (
{
anchors = (
{
name = top;
position = "{289, 1349}";
}
);
layerId = "9209D6FA-1952-4593-83C2-3566FC124D27";
name = Regular;
paths = (
{
closed = 1;
nodes = (
"136 -131 LINE",
"443 -131 OFFCURVE",
"452 0 OFFCURVE",
"452 268 CURVE SMOOTH",
"452 1354 LINE",
"338 1354 LINE",
"338 226 LINE SMOOTH",
"338 12 OFFCURVE",
"322 -37 OFFCURVE",
"120 -37 CURVE"
);
}
);
width = 666;
}
);
unicode = 004A;
},
{
glyphname = K;
layers = (
{
anchors = (
{
name = bottom;
position = "{606, 0}";
},
{
name = top;
position = "{606, 1349}";
}
);
layerId = "9209D6FA-1952-4593-83C2-3566FC124D27";
name = Regular;
paths = (
{
closed = 1;
nodes = (
"984 1354 LINE",
"1119 1354 LINE",
"529 760 LINE",
"1147 0 LINE",
"1010 0 LINE",
"457 694 LINE",
"328 572 LINE",
"328 0 LINE",
"214 0 LINE",
"214 1354 LINE",
"328 1354 LINE",
"328 694 LINE"
);
}
);
width = 1211;
}
);
unicode = 004B;
},
{
glyphname = L;
layers = (
{
anchors = (
{
name = bottom;
position = "{508, 0}";
},
{
name = top;
position = "{508, 1349}";
}
);
layerId = "9209D6FA-1952-4593-83C2-3566FC124D27";
name = Regular;
paths = (
{
closed = 1;
nodes = (
"974 88 LINE",
"974 0 LINE",
"214 0 LINE",
"214 1354 LINE",
"328 1354 LINE",
"328 88 LINE"
);
}
);
width = 1042;
}
);
unicode = 004C;
},
{
glyphname = M;
layers = (
{
layerId = "9209D6FA-1952-4593-83C2-3566FC124D27";
name = Regular;
paths = (
{
closed = 1;
nodes = (
"1314 1354 LINE",
"1476 1354 LINE",
"1476 0 LINE",
"1371 0 LINE",
"1371 1004 LINE",
"1377 1265 LINE",
"909 98 LINE",
"790 98 LINE",
"313 1267 LINE",
"321 1000 LINE",
"321 0 LINE",
"214 0 LINE",
"214 1354 LINE",
"383 1354 LINE",
"850 213 LINE"
);
}
);
width = 1690;
}
);
unicode = 004D;
},
{
glyphname = N;
layers = (
{
anchors = (
{
name = bottom;
position = "{762, 0}";
},
{
name = top;
position = "{762, 1349}";
}
);
layerId = "9209D6FA-1952-4593-83C2-3566FC124D27";
name = Regular;
paths = (
{
closed = 1;
nodes = (
"1172 146 LINE",
"1166 497 LINE",
"1166 1354 LINE",
"1264 1354 LINE",
"1264 0 LINE",
"1156 0 LINE",
"301 1222 LINE",
"312 844 LINE",
"312 0 LINE",
"214 0 LINE",
"214 1354 LINE",
"318 1354 LINE"
);
}
);
width = 1478;
}
);
unicode = 004E;
},
{
glyphname = Eng;
layers = (
{
layerId = "9209D6FA-1952-4593-83C2-3566FC124D27";
name = Regular;
paths = (
{
closed = 1;
nodes = (
"1118 -118 OFFCURVE",
"1110 -293 OFFCURVE",
"792 -293 CURVE SMOOTH",
"753 -293 OFFCURVE",
"703 -292 OFFCURVE",
"534 -276 CURVE",
"513 -201 LINE",
"700 -211 OFFCURVE",
"688 -212 OFFCURVE",
"717 -212 CURVE SMOOTH",
"1039 -212 OFFCURVE",
"1056 -135 OFFCURVE",
"1056 167 CURVE SMOOTH",
"1056 945 LINE SMOOTH",
"1056 1206 OFFCURVE",
"983 1289 OFFCURVE",
"748 1289 CURVE SMOOTH",
"481 1289 OFFCURVE",
"325 1135 OFFCURVE",
"233 1009 CURVE",
"233 0 LINE",
"170 0 LINE",
"166 1374 LINE",
"229 1374 LINE",
"241 1150 LINE",
"460 1378 OFFCURVE",
"617 1396 OFFCURVE",
"787 1396 CURVE SMOOTH",
"1003 1396 OFFCURVE",
"1118 1248 OFFCURVE",
"1118 947 CURVE SMOOTH",
"1118 155 LINE SMOOTH"
);
}
);
width = 1327;
}
);
unicode = 014A;
},
{
glyphname = O;
layers = (
{
anchors = (
{
name = top;
position = "{777, 1349}";
}
);
layerId = "9209D6FA-1952-4593-83C2-3566FC124D27";
name = Regular;
paths = (
{
closed = 1;
nodes = (
"1203 -18 OFFCURVE",
"1413 268 OFFCURVE",
"1413 664 CURVE SMOOTH",
"1413 1083 OFFCURVE",
"1188 1372 OFFCURVE",
"780 1372 CURVE SMOOTH",
"359 1372 OFFCURVE",
"140 1087 OFFCURVE",
"140 666 CURVE SMOOTH",
"140 259 OFFCURVE",
"347 -18 OFFCURVE",
"779 -18 CURVE SMOOTH"
);
},
{
closed = 1;
nodes = (
"1299 319 OFFCURVE",
"1149 72 OFFCURVE",
"778 72 CURVE SMOOTH",
"407 72 OFFCURVE",
"254 319 OFFCURVE",
"254 666 CURVE SMOOTH",
"254 1031 OFFCURVE",
"420 1282 OFFCURVE",
"779 1282 CURVE SMOOTH",
"1139 1282 OFFCURVE",
"1299 1029 OFFCURVE",
"1299 666 CURVE SMOOTH"
);
}
);
width = 1553;
}
);
unicode = 004F;
},
{
glyphname = Oslash;
layers = (
{
anchors = (
{
name = top;
position = "{827, 1349}";
}
);
layerId = "9209D6FA-1952-4593-83C2-3566FC124D27";
name = Regular;
paths = (
{
closed = 1;
nodes = (
"553 -154 LINE",
"433 -119 LINE",
"494 44 LINE",
"257 163 OFFCURVE",
"153 422 OFFCURVE",
"153 728 CURVE SMOOTH",
"153 1183 OFFCURVE",
"370 1486 OFFCURVE",
"817 1486 CURVE SMOOTH",
"899 1486 OFFCURVE",
"978 1475 OFFCURVE",
"1045 1455 CURVE",
"1109 1626 LINE",
"1234 1586 LINE",
"1163 1405 LINE",
"1378 1286 OFFCURVE",
"1484 1047 OFFCURVE",
"1484 729 CURVE SMOOTH",
"1484 307 OFFCURVE",
"1291 -26 OFFCURVE",
"820 -26 CURVE SMOOTH",
"741 -26 OFFCURVE",
"672 -16 OFFCURVE",
"610 2 CURVE"
);
},
{
closed = 1;
nodes = (
"257 484 OFFCURVE",
"349 264 OFFCURVE",
"538 160 CURVE",
"1003 1338 LINE",
"945 1356 OFFCURVE",
"886 1364 OFFCURVE",
"817 1364 CURVE SMOOTH",
"442 1364 OFFCURVE",
"257 1078 OFFCURVE",
"257 735 CURVE SMOOTH"
);
},
{
closed = 1;
nodes = (
"706 106 OFFCURVE",
"756 101 OFFCURVE",
"817 101 CURVE SMOOTH",
"1197 101 OFFCURVE",
"1375 393 OFFCURVE",
"1375 746 CURVE SMOOTH",
"1375 978 OFFCURVE",
"1291 1184 OFFCURVE",
"1120 1294 CURVE",
"654 121 LINE"
);
}
);
width = 1654;
}
);
unicode = 00D8;
},
{
glyphname = OE;
layers = (
{
anchors = (
{
name = top;
position = "{912, 1349}";
}
);
layerId = "9209D6FA-1952-4593-83C2-3566FC124D27";
name = Regular;
paths = (
{
closed = 1;
nodes = (
"1082 42 OFFCURVE",
"902 -24 OFFCURVE",
"802 -24 CURVE SMOOTH",
"338 -24 OFFCURVE",
"149 271 OFFCURVE",
"149 719 CURVE",
"163 1116 OFFCURVE",
"409 1403 OFFCURVE",
"769 1403 CURVE SMOOTH",
"914 1403 OFFCURVE",
"1038 1354 OFFCURVE",
"1093 1291 CURVE",
"1093 1374 LINE",
"1611 1374 LINE",
"1598 1277 LINE",
"1189 1277 LINE",
"1189 750 LINE",
"1560 750 LINE",
"1560 652 LINE",
"1189 652 LINE",
"1189 99 LINE",
"1630 99 LINE",
"1619 -3 LINE",
"1093 -3 LINE",
"1093 80 LINE"
);
},
{
closed = 1;
nodes = (
"262 357 OFFCURVE",
"388 77 OFFCURVE",
"806 71 CURVE SMOOTH",
"907 71 OFFCURVE",
"1062 137 OFFCURVE",
"1093 145 CURVE",
"1093 1211 LINE",
"1019 1264 OFFCURVE",
"910 1308 OFFCURVE",
"794 1308 CURVE SMOOTH",
"473 1308 OFFCURVE",
"273 1081 OFFCURVE",
"262 723 CURVE"
);
}
);
width = 1824;
}
);
unicode = 0152;
},
{
glyphname = P;
layers = (
{
layerId = "9209D6FA-1952-4593-83C2-3566FC124D27";
name = Regular;
paths = (
{
closed = 1;
nodes = (
"950 800 OFFCURVE",
"847 715 OFFCURVE",
"652 715 CURVE SMOOTH",
"328 715 LINE",
"328 1266 LINE",
"648 1266 LINE SMOOTH",
"821 1266 OFFCURVE",
"945 1185 OFFCURVE",
"950 1010 CURVE SMOOTH"
);
},
{
closed = 1;
nodes = (
"328 627 LINE",
"650 627 LINE SMOOTH",
"938 627 OFFCURVE",
"1064 772 OFFCURVE",
"1064 1009 CURVE SMOOTH",
"1064 1241 OFFCURVE",
"891 1354 OFFCURVE",
"655 1354 CURVE SMOOTH",
"214 1354 LINE",
"214 0 LINE",
"328 0 LINE"
);
}
);
width = 1164;
}
);
unicode = 0050;
},
{
glyphname = Thorn;
layers = (
{
layerId = "9209D6FA-1952-4593-83C2-3566FC124D27";
name = Regular;
paths = (
{
closed = 1;
nodes = (
"244 1384 LINE",
"244 1094 LINE",
"576 1094 LINE SMOOTH",
"929 1094 OFFCURVE",
"1075 1003 OFFCURVE",
"1075 720 CURVE SMOOTH",
"1075 494 OFFCURVE",
"1010 312 OFFCURVE",
"666 312 CURVE SMOOTH",
"655 312 OFFCURVE",
"204 323 OFFCURVE",
"244 323 CURVE",
"244 -11 LINE",
"123 -11 LINE",
"123 1384 LINE"
);
},
{
closed = 1;
nodes = (
"244 989 LINE",
"243 412 LINE",
"639 412 LINE SMOOTH",
"908 412 OFFCURVE",
"970 544 OFFCURVE",
"970 703 CURVE SMOOTH",
"970 897 OFFCURVE",
"886 989 OFFCURVE",
"592 989 CURVE SMOOTH"
);
}
);
width = 1250;
}
);
unicode = 00DE;
},
{
glyphname = Q;
layers = (
{
components = (
{
name = O;
transform = "{1, 0, 0, 1, 0, 0}";
}
);
layerId = "9209D6FA-1952-4593-83C2-3566FC124D27";
name = Regular;
paths = (
{
closed = 1;
nodes = (
"1248 -321 LINE",
"1173 -243 OFFCURVE",
"1045 -85 OFFCURVE",
"996 20 CURVE",
"906 8 LINE",
"991 -159 OFFCURVE",
"1137 -328 OFFCURVE",
"1185 -382 CURVE"
);
}
);
width = 1553;
}
);
unicode = 0051;
},
{
glyphname = R;
lastChange = "2012-12-20 11:32:39 +0000";
layers = (
{
anchors = (
{
name = bottom;
position = "{678, 0}";
},
{
name = top;
position = "{678, 1349}";
}
);
layerId = "9209D6FA-1952-4593-83C2-3566FC124D27";
name = Regular;
paths = (
{
closed = 1;
nodes = (
"686 765 LINE SMOOTH",
"1004 765 OFFCURVE",
"1049 847 OFFCURVE",
"1049 1021 CURVE SMOOTH",
"1049 1177 OFFCURVE",
"987 1266 OFFCURVE",
"773 1266 CURVE SMOOTH",
"328 1266 LINE",
"328 765 LINE"
);
},
{
closed = 1;
nodes = (
"214 0 LINE",
"214 1354 LINE",
"775 1354 LINE SMOOTH",
"1052 1354 OFFCURVE",
"1158 1232 OFFCURVE",
"1158 1022 CURVE SMOOTH",
"1158 821 OFFCURVE",
"1061 740 OFFCURVE",
"923 703 CURVE",
"923 703 OFFCURVE",
"971 584 OFFCURVE",
"998 520 CURVE SMOOTH",
"1215 0 LINE",
"1099 0 LINE",
"909 472 LINE SMOOTH",
"872 563 OFFCURVE",
"850 624 OFFCURVE",
"813 681 CURVE",
"780 677 OFFCURVE",
"684 675 OFFCURVE",
"655 675 CURVE SMOOTH",
"328 675 LINE",
"328 0 LINE"
);
}
);
width = 1341;
}
);
unicode = 0052;
},
{
glyphname = S;
layers = (
{
anchors = (
{
name = bottom;
position = "{582, 0}";
},
{
name = top;
position = "{582, 1349}";
}
);
layerId = "9209D6FA-1952-4593-83C2-3566FC124D27";
name = Regular;
paths = (
{
closed = 1;
nodes = (
"193 84 OFFCURVE",
"309 -18 OFFCURVE",
"566 -18 CURVE SMOOTH",
"807 -18 OFFCURVE",
"998 71 OFFCURVE",
"1013 343 CURVE SMOOTH",
"1026 583 OFFCURVE",
"864 647 OFFCURVE",
"684 720 CURVE SMOOTH",
"471 806 LINE SMOOTH",
"312 870 OFFCURVE",
"260 916 OFFCURVE",
"266 1049 CURVE SMOOTH",
"274 1233 OFFCURVE",
"438 1282 OFFCURVE",
"592 1282 CURVE SMOOTH",
"759 1282 OFFCURVE",
"875 1203 OFFCURVE",
"902 1184 CURVE",
"954 1255 LINE",
"894 1306 OFFCURVE",
"756 1372 OFFCURVE",
"604 1372 CURVE SMOOTH",
"397 1372 OFFCURVE",
"174 1311 OFFCURVE",
"160 1044 CURVE SMOOTH",
"151 865 OFFCURVE",
"266 786 OFFCURVE",
"441 717 CURVE SMOOTH",
"663 630 LINE SMOOTH",
"865 551 OFFCURVE",
"920 497 OFFCURVE",
"913 339 CURVE SMOOTH",
"904 146 OFFCURVE",
"782 72 OFFCURVE",
"571 72 CURVE SMOOTH",
"385 72 OFFCURVE",
"282 136 OFFCURVE",
"191 205 CURVE",
"146 125 LINE"
);
}
);
width = 1125.61;
}
);
unicode = 0053;
},
{
glyphname = T;
layers = (
{
anchors = (
{
name = bottom;
position = "{536, 0}";
},
{
name = center;
position = "{536, 675}";
},
{
name = top;
position = "{536, 1349}";
}
);
layerId = "9209D6FA-1952-4593-83C2-3566FC124D27";
name = Regular;
paths = (
{
closed = 1;
nodes = (
"1011 1354 LINE",
"1011 1272 LINE",
"587 1272 LINE",
"587 0 LINE",
"473 0 LINE",
"473 1272 LINE",
"54 1272 LINE",
"54 1354 LINE"
);
}
);
width = 1065;
}
);
unicode = 0054;
},
{
glyphname = Tbar;
layers = (
{
layerId = "9209D6FA-1952-4593-83C2-3566FC124D27";
name = Regular;
paths = (
{
closed = 1;
nodes = (
"484 595 LINE",
"484 1220 LINE",
"77 1220 LINE",
"77 1361 LINE",
"1053 1361 LINE",
"1053 1220 LINE",
"645 1220 LINE",
"645 595 LINE",
"793 595 LINE",
"793 483 LINE",
"645 483 LINE",
"645 0 LINE",
"484 0 LINE",
"484 483 LINE",
"330 483 LINE",
"330 595 LINE"
);
}
);
width = 1131;
}
);
unicode = 0166;
},
{
glyphname = U;
layers = (
{
anchors = (
{
name = ogonek;
position = "{1207, 10}";
},
{
name = top;
position = "{692, 1349}";
}
);
layerId = "9209D6FA-1952-4593-83C2-3566FC124D27";
name = Regular;
paths = (
{
closed = 1;
nodes = (
"1214 210 OFFCURVE",
"1055 -18 OFFCURVE",
"688 -18 CURVE SMOOTH",
"323 -18 OFFCURVE",
"164 213 OFFCURVE",
"164 502 CURVE SMOOTH",
"164 1354 LINE",
"278 1354 LINE",
"278 499 LINE SMOOTH",
"278 223 OFFCURVE",
"398 72 OFFCURVE",
"688 72 CURVE SMOOTH",
"963 72 OFFCURVE",
"1100 222 OFFCURVE",
"1100 498 CURVE SMOOTH",
"1100 1354 LINE",
"1214 1354 LINE",
"1214 499 LINE SMOOTH"
);
}
);
width = 1378;
}
);
unicode = 0055;
},
{
glyphname = V;
layers = (
{
layerId = "9209D6FA-1952-4593-83C2-3566FC124D27";
name = Regular;
paths = (
{
closed = 1;
nodes = (
"666 0 LINE",
"1194 1354 LINE",
"1081 1354 LINE",
"744 455 LINE",
"631 158 LINE",
"519 450 LINE",
"182 1354 LINE",
"68 1354 LINE",
"597 0 LINE"
);
}
);
width = 1262;
}
);
unicode = 0056;
},
{
glyphname = W;
layers = (
{
anchors = (
{
name = top;
position = "{978, 1349}";
}
);
layerId = "9209D6FA-1952-4593-83C2-3566FC124D27";
name = Regular;
paths = (
{
closed = 1;
nodes = (
"920 1315 LINE",
"1037 1315 LINE",
"1410 139 LINE",
"1783 1353 LINE",
"1892 1353 LINE",
"1466 0 LINE",
"1352 0 LINE",
"981 1198 LINE",
"607 0 LINE",
"496 0 LINE",
"64 1353 LINE",
"169 1353 LINE",
"549 139 LINE"
);
}
);
width = 1956;
}
);
unicode = 0057;
},
{
glyphname = X;
layers = (
{
layerId = "9209D6FA-1952-4593-83C2-3566FC124D27";
name = Regular;
paths = (
{
closed = 1;
nodes = (
"701 661 LINE",
"1132 1354 LINE",
"1020 1354 LINE",
"639 726 LINE",
"237 1354 LINE",
"134 1354 LINE",
"575 669 LINE",
"150 0 LINE",
"255 0 LINE",
"639 599 LINE",
"1032 0 LINE",
"1132 0 LINE"
);
}
);
width = 1266;
}
);
unicode = 0058;
},
{
glyphname = Y;
layers = (
{
anchors = (
{
name = top;
position = "{586, 1349}";
}
);
layerId = "9209D6FA-1952-4593-83C2-3566FC124D27";
name = Regular;
paths = (
{
closed = 1;
nodes = (
"591 644 LINE",
"978 1354 LINE",
"1084 1354 LINE",
"648 572 LINE",
"648 0 LINE",
"534 0 LINE",
"534 568 LINE",
"62 1354 LINE",
"167 1354 LINE"
);
}
);
width = 1146;
}
);
unicode = 0059;
},
{
glyphname = Z;
layers = (
{
anchors = (
{
name = top;
position = "{609, 1349}";
}
);
layerId = "9209D6FA-1952-4593-83C2-3566FC124D27";
name = Regular;
paths = (
{
closed = 1;
nodes = (
"178 1354 LINE",
"178 1266 LINE",
"894 1266 LINE",
"136 93 LINE",
"136 0 LINE",
"1008 0 LINE",
"1019 88 LINE",
"249 88 LINE",
"1013 1271 LINE",
"1004 1354 LINE"
);
}
);
width = 1131;
}
);
unicode = 005A;
},
{
glyphname = uni01C4;
layers = (
{
layerId = "9209D6FA-1952-4593-83C2-3566FC124D27";
name = Regular;
paths = (
{
closed = 1;
nodes = (
"230 1265 LINE",
"230 82 LINE",
"505 82 LINE SMOOTH",
"902 82 OFFCURVE",
"1123 276 OFFCURVE",
"1123 669 CURVE SMOOTH",
"1123 1101 OFFCURVE",
"875 1265 OFFCURVE",
"479 1265 CURVE SMOOTH"
);
},
{
closed = 1;
nodes = (
"141 0 LINE",
"141 1349 LINE",
"496 1349 LINE SMOOTH",
"931 1349 OFFCURVE",
"1214 1150 OFFCURVE",
"1214 673 CURVE SMOOTH",
"1214 223 OFFCURVE",
"961 0 OFFCURVE",
"525 0 CURVE SMOOTH"
);
},
{
closed = 1;
nodes = (
"2272 1947 LINE",
"2161 1583 LINE",
"1964 1583 LINE",
"1853 1947 LINE",
"1910 1947 LINE",
"2070 1588 LINE",
"2213 1947 LINE"
);
},
{
closed = 1;
nodes = (
"1536 1349 LINE",
"2401 1349 LINE",
"2401 1279 LINE",
"1607 87 LINE",
"2409 87 LINE",
"2400 0 LINE",
"1506 0 LINE",
"1506 92 LINE",
"2283 1261 LINE",
"1537 1261 LINE"
);
}
);
width = 2598;
}
);
unicode = 01C4;
},
{
glyphname = uni01C7;
layers = (
{
layerId = "9209D6FA-1952-4593-83C2-3566FC124D27";
name = Regular;
paths = (
{
closed = 1;
nodes = (
"419 92 LINE",
"415 0 LINE",
"-277 0 LINE",
"-277 1349 LINE",
"-187 1349 LINE",
"-187 92 LINE"
);
},
{
closed = 1;
nodes = (
"1806 -130 OFFCURVE",
"1774 -131 OFFCURVE",
"1797 -136 CURVE",
"1773 -25 LINE",
"1743 -21 OFFCURVE",
"1830 -19 OFFCURVE",
"1813 -19 CURVE SMOOTH",
"2004 -19 OFFCURVE",
"2000 98 OFFCURVE",
"2000 226 CURVE SMOOTH",
"2000 1349 LINE",
"2088 1349 LINE",
"2088 268 LINE SMOOTH",
"2088 0 OFFCURVE",
"2106 -130 OFFCURVE",
"1783 -130 CURVE SMOOTH"
);
}
);
width = 1586;
}
);
unicode = 01C7;
},
{
glyphname = uni01CA;
layers = (
{
layerId = "9209D6FA-1952-4593-83C2-3566FC124D27";
name = Regular;
paths = (
{
closed = 1;
nodes = (
"263 725 OFFCURVE",
"286 739 OFFCURVE",
"738 110 CURVE",
"739 60 OFFCURVE",
"742 322 OFFCURVE",
"742 393 CURVE SMOOTH",
"742 1349 LINE",
"795 1349 LINE",
"795 0 LINE",
"714 0 LINE",
"260 625 OFFCURVE",
"237 617 OFFCURVE",
"-212 1247 CURVE",
"-212 1247 OFFCURVE",
"-225 1200 OFFCURVE",
"-225 1034 CURVE SMOOTH",
"-225 0 LINE",
"-278 0 LINE",
"-278 1349 LINE",
"-193 1349 LINE"
);
},
{
closed = 1;
nodes = (
"2595 -130 OFFCURVE",
"2563 -131 OFFCURVE",
"2586 -136 CURVE",
"2562 -25 LINE",
"2532 -21 OFFCURVE",
"2619 -19 OFFCURVE",
"2602 -19 CURVE SMOOTH",
"2793 -19 OFFCURVE",
"2789 98 OFFCURVE",
"2789 226 CURVE SMOOTH",
"2789 1349 LINE",
"2879 1349 LINE",
"2879 268 LINE SMOOTH",
"2879 0 OFFCURVE",
"2895 -130 OFFCURVE",
"2572 -130 CURVE SMOOTH"
);
}
);
width = 2051;
}
);
unicode = 01CA;
},
{
glyphname = uni01F1;
layers = (
{
layerId = "9209D6FA-1952-4593-83C2-3566FC124D27";
name = Regular;
paths = (
{
closed = 1;
nodes = (
"230 1265 LINE",
"230 82 LINE",
"505 82 LINE SMOOTH",
"902 82 OFFCURVE",
"1123 276 OFFCURVE",
"1123 669 CURVE SMOOTH",
"1123 1101 OFFCURVE",
"875 1265 OFFCURVE",
"479 1265 CURVE SMOOTH"
);
},
{
closed = 1;
nodes = (
"141 0 LINE",
"141 1349 LINE",
"496 1349 LINE SMOOTH",
"931 1349 OFFCURVE",
"1214 1150 OFFCURVE",
"1214 673 CURVE SMOOTH",
"1214 223 OFFCURVE",
"961 0 OFFCURVE",
"525 0 CURVE SMOOTH"
);
},
{
closed = 1;
nodes = (
"1536 1349 LINE",
"2401 1349 LINE",
"2401 1279 LINE",
"1607 87 LINE",
"2409 87 LINE",
"2400 0 LINE",
"1506 0 LINE",
"1506 92 LINE",
"2283 1261 LINE",
"1537 1261 LINE"
);
}
);
width = 2598;
}
);
unicode = 01F1;
},
{
glyphname = a;
layers = (
{
anchors = (
{
name = ogonek;
position = "{936, 10}";
},
{
name = top;
position = "{519, 986}";
}
);
layerId = "9209D6FA-1952-4593-83C2-3566FC124D27";
name = Regular;
paths = (
{
closed = 1;
nodes = (
"118 74 OFFCURVE",
"245 -14 OFFCURVE",
"425 -14 CURVE SMOOTH",
"546 -14 OFFCURVE",
"683 16 OFFCURVE",
"798 169 CURVE",
"818 4 LINE",
"898 4 LINE",
"898 656 LINE SMOOTH",
"898 918 OFFCURVE",
"742 1005 OFFCURVE",
"519 1005 CURVE SMOOTH",
"406 1005 OFFCURVE",
"257 968 OFFCURVE",
"182 923 CURVE",
"190 900 OFFCURVE",
"209 864 OFFCURVE",
"219 842 CURVE",
"308 891 OFFCURVE",
"438 919 OFFCURVE",
"539 919 CURVE SMOOTH",
"710 919 OFFCURVE",
"787 828 OFFCURVE",
"787 676 CURVE SMOOTH",
"787 583 LINE",
"615 577 LINE SMOOTH",
"282 565 OFFCURVE",
"118 458 OFFCURVE",
"118 249 CURVE SMOOTH"
);
},
{
closed = 1;
nodes = (
"707 114 OFFCURVE",
"577 72 OFFCURVE",
"415 72 CURVE SMOOTH",
"325 72 OFFCURVE",
"230 115 OFFCURVE",
"230 246 CURVE SMOOTH",
"230 401 OFFCURVE",
"324 475 OFFCURVE",
"646 500 CURVE SMOOTH",
"787 511 LINE",
"787 299 LINE"
);
}
);
width = 1076;
}
);
unicode = 0061;
},
{
glyphname = b;
layers = (
{
layerId = "9209D6FA-1952-4593-83C2-3566FC124D27";
name = Regular;
paths = (
{
closed = 1;
nodes = (
"343 73 OFFCURVE",
"475 -18 OFFCURVE",
"630 -18 CURVE SMOOTH",
"917 -18 OFFCURVE",
"1065 180 OFFCURVE",
"1065 486 CURVE SMOOTH",
"1065 800 OFFCURVE",
"929 1004 OFFCURVE",
"638 1004 CURVE SMOOTH",
"508 1004 OFFCURVE",
"360 933 OFFCURVE",
"297 797 CURVE",
"297 1392 LINE",
"180 1382 LINE",
"180 0 LINE",
"268 0 LINE",
"283 211 LINE"
);
},
{
closed = 1;
nodes = (
"951 240 OFFCURVE",
"866 68 OFFCURVE",
"635 68 CURVE SMOOTH",
"424 68 OFFCURVE",
"294 223 OFFCURVE",
"294 506 CURVE",
"293 739 OFFCURVE",
"393 918 OFFCURVE",
"643 918 CURVE SMOOTH",
"878 918 OFFCURVE",
"951 724 OFFCURVE",
"951 488 CURVE SMOOTH"
);
}
);
width = 1185;
}
);
unicode = 0062;
},
{
glyphname = c;
layers = (
{
anchors = (
{
name = bottom;
position = "{471, 0}";
},
{
name = top;
position = "{471, 986}";
}
);
layerId = "9209D6FA-1952-4593-83C2-3566FC124D27";
name = Regular;
paths = (
{
closed = 1;
nodes = (
"795 15 OFFCURVE",
"690 -18 OFFCURVE",
"579 -18 CURVE SMOOTH",
"298 -18 OFFCURVE",
"120 204 OFFCURVE",
"120 483 CURVE SMOOTH",
"120 784 OFFCURVE",
"309 1004 OFFCURVE",
"592 1004 CURVE SMOOTH",
"687 1004 OFFCURVE",
"776 975 OFFCURVE",
"832 942 CURVE",
"794 869 LINE",
"699 921 OFFCURVE",
"624 918 OFFCURVE",
"609 918 CURVE SMOOTH",
"358 918 OFFCURVE",
"232 732 OFFCURVE",
"232 483 CURVE SMOOTH",
"232 265 OFFCURVE",
"342 68 OFFCURVE",
"595 68 CURVE SMOOTH",
"676 68 OFFCURVE",
"762 94 OFFCURVE",
"804 118 CURVE",
"832 46 LINE"
);
}
);
width = 937;
}
);
unicode = 0063;
},
{
glyphname = d;
lastChange = "2012-12-29 10:53:29 +0000";
layers = (
{
anchors = (
{
name = center;
position = "{566, 492}";
}
);
layerId = "9209D6FA-1952-4593-83C2-3566FC124D27";
name = Regular;
paths = (
{
closed = 1;
nodes = (
"886 249 OFFCURVE",
"794 68 OFFCURVE",
"547 68 CURVE SMOOTH",
"315 68 OFFCURVE",
"234 261 OFFCURVE",
"234 497 CURVE SMOOTH",
"234 745 OFFCURVE",
"326 918 OFFCURVE",
"554 918 CURVE SMOOTH",
"762 918 OFFCURVE",
"886 753 OFFCURVE",
"886 482 CURVE SMOOTH"
);
},
{
closed = 1;
nodes = (
"688 -18 OFFCURVE",
"838 66 OFFCURVE",
"892 221 CURVE",
"906 0 LINE",
"997 0 LINE",
"997 1392 LINE",
"883 1382 LINE",
"883 1067 LINE SMOOTH",
"883 983 OFFCURVE",
"888 856 OFFCURVE",
"893 776 CURVE",
"832 920 OFFCURVE",
"708 1004 OFFCURVE",
"540 1004 CURVE SMOOTH",
"272 1004 OFFCURVE",
"120 797 OFFCURVE",
"120 499 CURVE SMOOTH",
"120 185 OFFCURVE",
"264 -18 OFFCURVE",
"551 -18 CURVE SMOOTH"
);
}
);
width = 1177;
}
);
unicode = 0064;
},
{
glyphname = eth;
layers = (
{
layerId = "9209D6FA-1952-4593-83C2-3566FC124D27";
name = Regular;
paths = (
{
closed = 1;
nodes = (
"1059 204 OFFCURVE",
"923 -27 OFFCURVE",
"603 -27 CURVE SMOOTH",
"292 -27 OFFCURVE",
"148 210 OFFCURVE",
"148 448 CURVE SMOOTH",
"148 718 OFFCURVE",
"319 900 OFFCURVE",
"580 900 CURVE SMOOTH",
"761 900 OFFCURVE",
"865 825 OFFCURVE",
"931 769 CURVE",
"886 868 OFFCURVE",
"795 1002 OFFCURVE",
"565 1222 CURVE",
"299 1112 LINE",
"276 1200 LINE",
"508 1288 LINE",
"272 1490 LINE",
"410 1490 LINE",
"563 1330 LINE",
"844 1436 LINE",
"870 1354 LINE",
"620 1261 LINE",
"794 1079 OFFCURVE",
"903 942 OFFCURVE",
"966 826 CURVE",
"1035 693 OFFCURVE",
"1059 587 OFFCURVE",
"1059 464 CURVE"
);
},
{
closed = 1;
nodes = (
"262 255 OFFCURVE",
"369 55 OFFCURVE",
"608 55 CURVE SMOOTH",
"831 55 OFFCURVE",
"953 227 OFFCURVE",
"953 430 CURVE SMOOTH",
"953 604 OFFCURVE",
"832 804 OFFCURVE",
"602 804 CURVE SMOOTH",
"388 804 OFFCURVE",
"262 630 OFFCURVE",
"262 446 CURVE SMOOTH"
);
}
);
width = 1231;
}
);
unicode = 00F0;
},
{
glyphname = dcroat;
layers = (
{
layerId = "9209D6FA-1952-4593-83C2-3566FC124D27";
name = Regular;
paths = (
{
closed = 1;
nodes = (
"128 1118 LINE",
"128 1220 LINE",
"591 1220 LINE",
"591 1118 LINE"
);
},
{
closed = 1;
nodes = (
"884 741 OFFCURVE",
"807 891 OFFCURVE",
"592 891 CURVE SMOOTH",
"401 891 OFFCURVE",
"301 738 OFFCURVE",
"301 499 CURVE SMOOTH",
"301 265 OFFCURVE",
"398 108 OFFCURVE",
"592 108 CURVE SMOOTH",
"798 108 OFFCURVE",
"884 252 OFFCURVE",
"884 482 CURVE SMOOTH"
);
},
{
closed = 1;
nodes = (
"1058 0 LINE",
"901 0 LINE",
"884 163 LINE",
"829 45 OFFCURVE",
"702 -21 OFFCURVE",
"565 -21 CURVE SMOOTH",
"286 -21 OFFCURVE",
"126 198 OFFCURVE",
"126 504 CURVE SMOOTH",
"126 807 OFFCURVE",
"304 1019 OFFCURVE",
"564 1019 CURVE SMOOTH",
"696 1019 OFFCURVE",
"822 955 OFFCURVE",
"888 862 CURVE",
"884 928 OFFCURVE",
"884 991 OFFCURVE",
"884 1053 CURVE SMOOTH",
"884 1417 LINE",
"1058 1431 LINE"
);
}
);
width = 1193;
}
);
unicode = 0111;
},
{
glyphname = e;
lastChange = "2012-12-29 10:29:35 +0000";
layers = (
{
anchors = (
{
name = bottom;
position = "{530, 0}";
},
{
name = ogonek;
position = "{934, 10}";
},
{
name = top;
position = "{530, 986}";
}
);
layerId = "9209D6FA-1952-4593-83C2-3566FC124D27";
name = Regular;
paths = (
{
closed = 1;
nodes = (
"229 558 LINE",
"244 767 OFFCURVE",
"368 918 OFFCURVE",
"578 918 CURVE SMOOTH",
"772 918 OFFCURVE",
"858 788 OFFCURVE",
"864 558 CURVE"
);
},
{
closed = 1;
nodes = (
"120 171 OFFCURVE",
"312 -18 OFFCURVE",
"581 -18 CURVE SMOOTH",
"725 -18 OFFCURVE",
"834 13 OFFCURVE",
"930 69 CURVE",
"896 141 LINE",
"773 77 OFFCURVE",
"687 68 OFFCURVE",
"590 68 CURVE SMOOTH",
"387 68 OFFCURVE",
"226 186 OFFCURVE",
"226 487 CURVE",
"947 487 LINE",
"947 487 OFFCURVE",
"952 521 OFFCURVE",
"952 550 CURVE SMOOTH",
"952 827 OFFCURVE",
"816 1004 OFFCURVE",
"576 1004 CURVE SMOOTH",
"333 1004 OFFCURVE",
"120 812 OFFCURVE",
"120 485 CURVE SMOOTH"
);
}
);
width = 1074;
}
);
unicode = 0065;
},
{
glyphname = f;
layers = (
{
layerId = "9209D6FA-1952-4593-83C2-3566FC124D27";
name = Regular;
paths = (
{
closed = 1;
nodes = (
"267 0 LINE",
"381 0 LINE",
"381 919 LINE",
"617 919 LINE",
"617 986 LINE",
"381 986 LINE",
"381 1065 LINE SMOOTH",
"381 1279 OFFCURVE",
"444 1304 OFFCURVE",
"544 1304 CURVE SMOOTH",
"588 1304 OFFCURVE",
"650 1294 OFFCURVE",
"650 1294 CURVE",
"657 1371 LINE",
"657 1371 OFFCURVE",
"596 1385 OFFCURVE",
"522 1385 CURVE SMOOTH",
"357 1385 OFFCURVE",
"267 1297 OFFCURVE",
"267 1061 CURVE SMOOTH",
"267 987 LINE",
"77 970 LINE",
"72 919 LINE",
"267 919 LINE"
);
}
);
width = 701;
}
);
unicode = 0066;
},
{
glyphname = g;
lastChange = "2012-12-29 10:53:18 +0000";
layers = (
{
anchors = (
{
name = top;
position = "{604, 986}";
}
);
layerId = "9209D6FA-1952-4593-83C2-3566FC124D27";
name = Regular;
paths = (
{
closed = 1;
nodes = (
"310 87 OFFCURVE",
"234 326 OFFCURVE",
"234 490 CURVE SMOOTH",
"234 651 OFFCURVE",
"303 918 OFFCURVE",
"558 918 CURVE SMOOTH",
"560 918 LINE SMOOTH",
"814 918 OFFCURVE",
"916 739 OFFCURVE",
"916 548 CURVE SMOOTH",
"916 440 LINE SMOOTH",
"916 267 OFFCURVE",
"808 87 OFFCURVE",
"561 87 CURVE SMOOTH"
);
},
{
closed = 1;
nodes = (
"378 -394 OFFCURVE",
"453 -398 OFFCURVE",
"519 -398 CURVE SMOOTH",
"957 -398 OFFCURVE",
"1030 -194 OFFCURVE",
"1030 89 CURVE SMOOTH",
"1030 986 LINE",
"923 986 LINE",
"911 808 LINE",
"851 935 OFFCURVE",
"714 1004 OFFCURVE",
"580 1004 CURVE SMOOTH",
"232 1004 OFFCURVE",
"120 731 OFFCURVE",
"120 481 CURVE SMOOTH",
"120 273 OFFCURVE",
"243 0 OFFCURVE",
"566 0 CURVE SMOOTH",
"739 0 OFFCURVE",
"879 94 OFFCURVE",
"913 211 CURVE",
"913 89 LINE SMOOTH",
"913 -204 OFFCURVE",
"838 -304 OFFCURVE",
"493 -304 CURVE SMOOTH",
"433 -304 OFFCURVE",
"364 -301 OFFCURVE",
"286 -295 CURVE",
"295 -384 LINE"
);
}
);
width = 1200;
},
{
anchors = (
{
name = top;
position = "{604, 986}";
}
);
associatedMasterId = "9209D6FA-1952-4593-83C2-3566FC124D27";
layerId = "A755F12F-EC1A-4297-A6F3-2E96D37E70F9";
name = "Regular Dec 29 12, 10:41";
paths = (
{
closed = 1;
nodes = (
"310 87 OFFCURVE",
"234 326 OFFCURVE",
"234 490 CURVE SMOOTH",
"234 651 OFFCURVE",
"303 918 OFFCURVE",
"558 918 CURVE SMOOTH",
"560 918 LINE SMOOTH",
"814 918 OFFCURVE",
"916 731 OFFCURVE",
"916 548 CURVE SMOOTH",
"916 440 LINE SMOOTH",
"916 267 OFFCURVE",
"808 87 OFFCURVE",
"561 87 CURVE SMOOTH"
);
},
{
closed = 1;
nodes = (
"568 -398 LINE",
"858 -398 OFFCURVE",
"1030 -209 OFFCURVE",
"1030 69 CURVE SMOOTH",
"1030 986 LINE",
"923 986 LINE",
"911 800 LINE",
"851 927 OFFCURVE",
"714 1004 OFFCURVE",
"580 1004 CURVE SMOOTH",
"232 1004 OFFCURVE",
"120 731 OFFCURVE",
"120 481 CURVE SMOOTH",
"120 273 OFFCURVE",
"243 0 OFFCURVE",
"566 0 CURVE SMOOTH",
"739 0 OFFCURVE",
"879 94 OFFCURVE",
"913 211 CURVE",
"913 89 LINE SMOOTH",
"913 -189 OFFCURVE",
"782 -305 OFFCURVE",
"569 -305 CURVE",
"286 -295 LINE",
"283 -380 LINE"
);
}
);
width = 1200;
}
);
unicode = 0067;
},
{
glyphname = h;
layers = (
{
anchors = (
{
name = center;
position = "{551, 494}";
},
{
name = top;
position = "{551, 986}";
}
);
layerId = "9209D6FA-1952-4593-83C2-3566FC124D27";
name = Regular;
paths = (
{
closed = 1;
nodes = (
"180 1382 LINE",
"180 0 LINE",
"294 0 LINE",
"294 567 LINE SMOOTH",
"294 595 OFFCURVE",
"297 623 OFFCURVE",
"297 658 CURVE",
"321 797 OFFCURVE",
"413 918 OFFCURVE",
"621 918 CURVE SMOOTH",
"789 918 OFFCURVE",
"850 812 OFFCURVE",
"850 606 CURVE SMOOTH",
"850 0 LINE",
"964 0 LINE",
"964 605 LINE SMOOTH",
"964 851 OFFCURVE",
"857 1004 OFFCURVE",
"637 1004 CURVE SMOOTH",
"503 1004 OFFCURVE",
"347 945 OFFCURVE",
"288 810 CURVE",
"288 810 OFFCURVE",
"294 1011 OFFCURVE",
"294 1029 CURVE SMOOTH",
"294 1392 LINE"
);
}
);
width = 1134;
}
);
unicode = 0068;
},
{
glyphname = hbar;
layers = (
{
layerId = "9209D6FA-1952-4593-83C2-3566FC124D27";
name = Regular;
paths = (
{
closed = 1;
nodes = (
"275 1269 LINE",
"275 1347 LINE",
"358 1365 LINE",
"358 1269 LINE",
"602 1269 LINE",
"602 1188 LINE",
"358 1188 LINE",
"358 828 LINE",
"448 948 OFFCURVE",
"578 1016 OFFCURVE",
"751 1016 CURVE SMOOTH",
"972 1016 OFFCURVE",
"1027 829 OFFCURVE",
"1027 597 CURVE SMOOTH",
"1027 0 LINE",
"944 0 LINE",
"944 532 LINE SMOOTH",
"944 797 OFFCURVE",
"912 924 OFFCURVE",
"705 924 CURVE SMOOTH",
"517 924 OFFCURVE",
"370 779 OFFCURVE",
"358 678 CURVE",
"358 0 LINE",
"275 0 LINE",
"275 1188 LINE",
"194 1188 LINE",
"194 1269 LINE"
);
}
);
width = 1196;
}
);
unicode = 0127;
},
{
glyphname = i;
layers = (
{
layerId = "9209D6FA-1952-4593-83C2-3566FC124D27";
name = Regular;
paths = (
{
closed = 1;
nodes = (
"180 0 LINE",
"180 986 LINE",
"294 986 LINE",
"294 0 LINE"
);
},
{
closed = 1;
nodes = (
"180 1209 LINE",
"180 1354 LINE",
"294 1354 LINE",
"294 1209 LINE"
);
}
);
width = 470;
}
);
unicode = 0069;
},
{
glyphname = dotlessi;
layers = (
{
anchors = (
{
name = ogonek;
position = "{327, 10}";
},
{
name = top;
position = "{182, 986}";
}
);
layerId = "9209D6FA-1952-4593-83C2-3566FC124D27";
name = Regular;
paths = (
{
closed = 1;
nodes = (
"146 0 LINE",
"146 988 LINE",
"230 988 LINE",
"230 0 LINE"
);
}
);
width = 363;
}
);
unicode = 0131;
},
{
glyphname = j;
layers = (
{
layerId = "9209D6FA-1952-4593-83C2-3566FC124D27";
name = Regular;
paths = (
{
closed = 1;
nodes = (
"215 1209 LINE",
"215 1354 LINE",
"331 1354 LINE",
"331 1209 LINE"
);
},
{
closed = 1;
nodes = (
"47 -411 LINE",
"86 -411 LINE SMOOTH",
"281 -411 OFFCURVE",
"331 -359 OFFCURVE",
"331 -139 CURVE SMOOTH",
"331 986 LINE",
"215 986 LINE",
"215 -84 LINE SMOOTH",
"215 -243 OFFCURVE",
"254 -303 OFFCURVE",
"71 -303 CURVE SMOOTH",
"34 -303 LINE"
);
}
);
width = 501;
}
);
unicode = 006A;
},
{
glyphname = uni0237;
layers = (
{
anchors = (
{
name = top;
position = "{192, 986}";
}
);
layerId = "9209D6FA-1952-4593-83C2-3566FC124D27";
name = Regular;
paths = (
{
closed = 1;
nodes = (
"-64 -448 LINE",
"-13 -448 LINE SMOOTH",
"193 -448 OFFCURVE",
"237 -397 OFFCURVE",
"237 -178 CURVE SMOOTH",
"237 1005 LINE",
"104 1005 LINE",
"104 -126 LINE SMOOTH",
"104 -283 OFFCURVE",
"142 -343 OFFCURVE",
"-42 -343 CURVE SMOOTH",
"-95 -343 LINE"
);
}
);
width = 384;
}
);
unicode = 0237;
},
{
glyphname = k;
lastChange = "2012-12-29 10:44:46 +0000";
layers = (
{
anchors = (
{
name = bottom;
position = "{505, 0}";
}
);
layerId = "9209D6FA-1952-4593-83C2-3566FC124D27";
name = Regular;
paths = (
{
closed = 1;
nodes = (
"180 1382 LINE",
"294 1392 LINE",
"294 657 LINE",
"288 464 LINE",
"844 986 LINE",
"977 986 LINE",
"488 528 LINE",
"983 0 LINE",
"851 0 LINE",
"418 469 LINE",
"294 358 LINE",
"294 0 LINE",
"180 0 LINE"
);
}
);
width = 1021;
}
);
unicode = 006B;
},
{
glyphname = kgreenlandic;
layers = (
{
layerId = "9209D6FA-1952-4593-83C2-3566FC124D27";
name = Regular;
paths = (
{
closed = 1;
nodes = (
"130 0 LINE",
"130 999 LINE",
"281 999 LINE",
"281 520 LINE",
"292 532 OFFCURVE",
"303 544 OFFCURVE",
"315 557 CURVE SMOOTH",
"431 690 OFFCURVE",
"589 855 OFFCURVE",
"724 998 CURVE",
"917 998 LINE",
"502 555 LINE",
"946 0 LINE",
"757 0 LINE",
"392 469 LINE",
"281 373 LINE",
"281 0 LINE"
);
}
);
width = 1047;
}
);
unicode = 0138;
},
{
glyphname = l;
layers = (
{
anchors = (
{
name = bottom;
position = "{236, 0}";
},
{
name = top;
position = "{236, 986}";
},
{
name = topright;
position = "{437, 986}";
}
);
layerId = "9209D6FA-1952-4593-83C2-3566FC124D27";
name = Regular;
paths = (
{
closed = 1;
nodes = (
"180 28 OFFCURVE",
"276 -11 OFFCURVE",
"398 -11 CURVE SMOOTH",
"421 -11 OFFCURVE",
"445 -10 OFFCURVE",
"469 -8 CURVE",
"462 72 LINE",
"453 72 OFFCURVE",
"445 71 OFFCURVE",
"437 71 CURVE SMOOTH",
"313 71 OFFCURVE",
"294 117 OFFCURVE",
"294 232 CURVE SMOOTH",
"294 1392 LINE",
"180 1382 LINE",
"180 242 LINE SMOOTH"
);
}
);
width = 533;
}
);
unicode = 006C;
},
{
glyphname = ldot;
layers = (
{
layerId = "9209D6FA-1952-4593-83C2-3566FC124D27";
name = Regular;
paths = (
{
closed = 1;
nodes = (
"802 511 LINE",
"802 691 LINE",
"955 691 LINE",
"955 511 LINE"
);
},
{
closed = 1;
nodes = (
"485 -14 OFFCURVE",
"427 -18 OFFCURVE",
"401 -18 CURVE SMOOTH",
"244 -18 OFFCURVE",
"135 45 OFFCURVE",
"135 305 CURVE SMOOTH",
"135 1417 LINE",
"309 1431 LINE",
"309 360 LINE SMOOTH",
"309 163 OFFCURVE",
"313 116 OFFCURVE",
"445 116 CURVE SMOOTH",
"471 116 OFFCURVE",
"513 118 OFFCURVE",
"542 122 CURVE",
"551 -3 LINE"
);
}
);
width = 1062;
}
);
unicode = 0140;
},
{
glyphname = m;
layers = (
{
layerId = "9209D6FA-1952-4593-83C2-3566FC124D27";
name = Regular;
paths = (
{
closed = 1;
nodes = (
"294 653 LINE",
"329 802 OFFCURVE",
"439 918 OFFCURVE",
"589 918 CURVE SMOOTH",
"743 918 OFFCURVE",
"790 809 OFFCURVE",
"790 545 CURVE SMOOTH",
"790 0 LINE",
"904 0 LINE",
"904 475 LINE SMOOTH",
"904 566 OFFCURVE",
"903 618 OFFCURVE",
"907 641 CURVE SMOOTH",
"949 848 OFFCURVE",
"1071 918 OFFCURVE",
"1189 918 CURVE SMOOTH",
"1395 918 OFFCURVE",
"1386 694 OFFCURVE",
"1386 561 CURVE SMOOTH",
"1386 0 LINE",
"1500 0 LINE",
"1500 639 LINE SMOOTH",
"1500 879 OFFCURVE",
"1404 1004 OFFCURVE",
"1209 1004 CURVE SMOOTH",
"1053 1004 OFFCURVE",
"937 918 OFFCURVE",
"868 771 CURVE",
"849 854 OFFCURVE",
"791 1004 OFFCURVE",
"593 1004 CURVE SMOOTH",
"477 1004 OFFCURVE",
"372 946 OFFCURVE",
"287 810 CURVE",
"272 986 LINE",
"180 986 LINE",
"180 0 LINE",
"294 0 LINE"
);
}
);
width = 1670;
}
);
unicode = 006D;
},
{
glyphname = n;
layers = (
{
anchors = (
{
name = bottom;
position = "{545, 0}";
},
{
name = top;
position = "{545, 986}";
}
);
layerId = "9209D6FA-1952-4593-83C2-3566FC124D27";
name = Regular;
paths = (
{
closed = 1;
nodes = (
"180 0 LINE",
"294 0 LINE",
"294 579 LINE SMOOTH",
"294 607 OFFCURVE",
"297 634 OFFCURVE",
"298 668 CURVE",
"324 809 OFFCURVE",
"411 918 OFFCURVE",
"621 918 CURVE SMOOTH",
"795 918 OFFCURVE",
"845 806 OFFCURVE",
"844 630 CURVE SMOOTH",
"844 0 LINE",
"958 0 LINE",
"958 594 LINE SMOOTH",
"958 873 OFFCURVE",
"858 1004 OFFCURVE",
"632 1004 CURVE SMOOTH",
"487 1004 OFFCURVE",
"366 952 OFFCURVE",
"300 824 CURVE",
"285 986 LINE",
"180 986 LINE"
);
}
);
width = 1128;
}
);
unicode = 006E;
},
{
glyphname = eng;
layers = (
{
layerId = "9209D6FA-1952-4593-83C2-3566FC124D27";
name = Regular;
paths = (
{
closed = 1;
nodes = (
"658 -237 LINE",
"893 -237 OFFCURVE",
"921 -100 OFFCURVE",
"921 172 CURVE",
"921 594 LINE SMOOTH",
"921 873 OFFCURVE",
"830 1005 OFFCURVE",
"604 1005 CURVE SMOOTH",
"460 1005 OFFCURVE",
"354 952 OFFCURVE",
"288 824 CURVE",
"273 986 LINE",
"169 986 LINE",
"169 0 LINE",
"283 0 LINE",
"283 579 LINE SMOOTH",
"283 607 OFFCURVE",
"286 634 OFFCURVE",
"286 668 CURVE",
"312 809 OFFCURVE",
"383 919 OFFCURVE",
"593 919 CURVE SMOOTH",
"767 919 OFFCURVE",
"807 806 OFFCURVE",
"807 630 CURVE",
"807 122 LINE SMOOTH",
"807 -94 OFFCURVE",
"790 -119 OFFCURVE",
"617 -119 CURVE SMOOTH",
"594 -119 LINE",
"594 -237 LINE"
);
}
);
width = 1137;
}
);
unicode = 014B;
},
{
glyphname = o;
layers = (
{
anchors = (
{
name = top;
position = "{575, 986}";
}
);
layerId = "9209D6FA-1952-4593-83C2-3566FC124D27";
name = Regular;
paths = (
{
closed = 1;
nodes = (
"121 200 OFFCURVE",
"291 -18 OFFCURVE",
"576 -18 CURVE SMOOTH",
"844 -18 OFFCURVE",
"1031 203 OFFCURVE",
"1031 490 CURVE SMOOTH",
"1031 790 OFFCURVE",
"869 1004 OFFCURVE",
"576 1004 CURVE SMOOTH",
"291 1004 OFFCURVE",
"121 785 OFFCURVE",
"121 490 CURVE SMOOTH"
);
},
{
closed = 1;
nodes = (
"919 259 OFFCURVE",
"826 68 OFFCURVE",
"576 68 CURVE SMOOTH",
"335 68 OFFCURVE",
"233 259 OFFCURVE",
"233 488 CURVE SMOOTH",
"233 726 OFFCURVE",
"335 918 OFFCURVE",
"576 918 CURVE SMOOTH",
"823 918 OFFCURVE",
"919 725 OFFCURVE",
"919 487 CURVE SMOOTH"
);
}
);
width = 1150;
}
);
unicode = 006F;
},
{
glyphname = oslash;
layers = (
{
anchors = (
{
name = top;
position = "{623, 986}";
}
);
layerId = "9209D6FA-1952-4593-83C2-3566FC124D27";
name = Regular;
paths = (
{
closed = 1;
nodes = (
"316 -281 LINE",
"259 -250 LINE",
"380 33 LINE",
"232 121 OFFCURVE",
"150 299 OFFCURVE",
"150 490 CURVE SMOOTH",
"150 764 OFFCURVE",
"324 1016 OFFCURVE",
"619 1016 CURVE SMOOTH",
"678 1016 OFFCURVE",
"737 1004 OFFCURVE",
"784 987 CURVE",
"904 1288 LINE",
"967 1258 LINE",
"844 958 LINE",
"995 871 OFFCURVE",
"1069 688 OFFCURVE",
"1069 493 CURVE SMOOTH",
"1069 230 OFFCURVE",
"908 -29 OFFCURVE",
"618 -29 CURVE SMOOTH",
"553 -29 OFFCURVE",
"493 -18 OFFCURVE",
"441 4 CURVE"
);
},
{
closed = 1;
nodes = (
"247 342 OFFCURVE",
"300 194 OFFCURVE",
"414 112 CURVE",
"752 904 LINE",
"713 918 OFFCURVE",
"669 926 OFFCURVE",
"618 926 CURVE SMOOTH",
"354 926 OFFCURVE",
"247 679 OFFCURVE",
"247 481 CURVE SMOOTH"
);
},
{
closed = 1;
nodes = (
"515 72 OFFCURVE",
"565 63 OFFCURVE",
"620 63 CURVE SMOOTH",
"885 63 OFFCURVE",
"973 296 OFFCURVE",
"973 497 CURVE SMOOTH",
"973 651 OFFCURVE",
"929 806 OFFCURVE",
"812 886 CURVE",
"473 90 LINE"
);
}
);
width = 1248;
}
);
unicode = 00F8;
},
{
glyphname = p;
layers = (
{
layerId = "9209D6FA-1952-4593-83C2-3566FC124D27";
name = Regular;
paths = (
{
closed = 1;
nodes = (
"180 986 LINE",
"271 986 LINE",
"285 770 LINE",
"339 925 OFFCURVE",
"492 1004 OFFCURVE",
"629 1004 CURVE SMOOTH",
"916 1004 OFFCURVE",
"1057 800 OFFCURVE",
"1057 486 CURVE SMOOTH",
"1057 188 OFFCURVE",
"905 -18 OFFCURVE",
"637 -18 CURVE SMOOTH",
"490 -18 OFFCURVE",
"339.294 69.2353 OFFCURVE",
"284 221 CURVE",
"289 141 OFFCURVE",
"294 3 OFFCURVE",
"294 -81 CURVE SMOOTH",
"294 -441 LINE",
"180 -449 LINE"
);
},
{
closed = 1;
nodes = (
"851 68 OFFCURVE",
"943 240 OFFCURVE",
"943 488 CURVE SMOOTH",
"943 724 OFFCURVE",
"867 918 OFFCURVE",
"635 918 CURVE SMOOTH",
"389 918 OFFCURVE",
"291 740 OFFCURVE",
"291 509 CURVE SMOOTH",
"291 505 LINE SMOOTH",
"291 242 OFFCURVE",
"415 68 OFFCURVE",
"623 68 CURVE SMOOTH"
);
}
);
width = 1177;
}
);
unicode = 0070;
},
{
glyphname = thorn;
layers = (
{
layerId = "9209D6FA-1952-4593-83C2-3566FC124D27";
name = Regular;
paths = (
{
closed = 1;
nodes = (
"136 1374 LINE",
"289 1374 LINE",
"289 849 LINE",
"367 965 OFFCURVE",
"473 1023 OFFCURVE",
"609 1023 CURVE",
"860 1021 OFFCURVE",
"1024 800 OFFCURVE",
"1024 510 CURVE SMOOTH",
"1024 244 OFFCURVE",
"889 -23 OFFCURVE",
"609 -23 CURVE SMOOTH",
"471 -23 OFFCURVE",
"357 31 OFFCURVE",
"289 147 CURVE",
"289 -418 LINE",
"136 -418 LINE"
);
},
{
closed = 1;
nodes = (
"288 291 OFFCURVE",
"375 103 OFFCURVE",
"592 103 CURVE SMOOTH",
"805 103 OFFCURVE",
"866 327 OFFCURVE",
"866 501 CURVE SMOOTH",
"866 676 OFFCURVE",
"806 897 OFFCURVE",
"598 897 CURVE SMOOTH",
"392 897 OFFCURVE",
"288 710 OFFCURVE",
"288 501 CURVE SMOOTH"
);
}
);
width = 1136;
}
);
unicode = 00FE;
},
{
glyphname = q;
layers = (
{
layerId = "9209D6FA-1952-4593-83C2-3566FC124D27";
name = Regular;
paths = (
{
closed = 1;
nodes = (
"1039 986 LINE",
"933 986 LINE",
"916 788 LINE",
"857 940 OFFCURVE",
"699 1004 OFFCURVE",
"566 1004 CURVE SMOOTH",
"282 1004 OFFCURVE",
"120 789 OFFCURVE",
"120 481 CURVE SMOOTH",
"120 192 OFFCURVE",
"300 -18 OFFCURVE",
"561 -18 CURVE SMOOTH",
"743 -18 OFFCURVE",
"878 71 OFFCURVE",
"932 205 CURVE",
"926 119 OFFCURVE",
"927 -19 OFFCURVE",
"927 -102 CURVE SMOOTH",
"927 -449 LINE",
"1039 -443 LINE"
);
},
{
closed = 1;
nodes = (
"922 253 OFFCURVE",
"848 68 OFFCURVE",
"576 68 CURVE SMOOTH",
"341 68 OFFCURVE",
"232 247 OFFCURVE",
"232 493 CURVE SMOOTH",
"232 727 OFFCURVE",
"333 918 OFFCURVE",
"578 918 CURVE SMOOTH",
"830 918 OFFCURVE",
"919 746 OFFCURVE",
"919 530 CURVE SMOOTH"
);
}
);
width = 1219;
}
);
unicode = 0071;
},
{
glyphname = r;
layers = (
{
anchors = (
{
name = bottom;
position = "{350, 0}";
},
{
name = top;
position = "{350, 986}";
}
);
layerId = "9209D6FA-1952-4593-83C2-3566FC124D27";
name = Regular;
paths = (
{
closed = 1;
nodes = (
"180 986 LINE",
"266 986 LINE",
"280 760 LINE",
"352 919 OFFCURVE",
"469 998 OFFCURVE",
"598 998 CURVE SMOOTH",
"628 998 OFFCURVE",
"656 996 OFFCURVE",
"676 993 CURVE",
"668 903 LINE",
"648 908 OFFCURVE",
"624 910 OFFCURVE",
"605 910 CURVE SMOOTH",
"430 910 OFFCURVE",
"294 748 OFFCURVE",
"294 568 CURVE SMOOTH",
"294 0 LINE",
"180 0 LINE"
);
}
);
width = 756;
}
);
unicode = 0072;
},
{
glyphname = s;
layers = (
{
anchors = (
{
name = bottom;
position = "{458, 0}";
},
{
name = top;
position = "{458, 984}";
}
);
layerId = "9209D6FA-1952-4593-83C2-3566FC124D27";
name = Regular;
paths = (
{
closed = 1;
nodes = (
"784 71 OFFCURVE",
"662 -18 OFFCURVE",
"453 -18 CURVE SMOOTH",
"319 -18 OFFCURVE",
"196 17 OFFCURVE",
"157 36 CURVE",
"187 116 LINE",
"238 98 OFFCURVE",
"320 68 OFFCURVE",
"460 68 CURVE SMOOTH",
"623 68 OFFCURVE",
"693 130 OFFCURVE",
"693 245 CURVE SMOOTH",
"693 349 OFFCURVE",
"661 403 OFFCURVE",
"471 461 CURVE SMOOTH",
"379 489 LINE SMOOTH",
"191 546 OFFCURVE",
"137 643 OFFCURVE",
"136 743 CURVE",
"136 879 OFFCURVE",
"253 1004 OFFCURVE",
"471 1004 CURVE SMOOTH",
"589 1004 OFFCURVE",
"657 990 OFFCURVE",
"738 955 CURVE",
"708 870 LINE",
"649 896 OFFCURVE",
"588 918 OFFCURVE",
"483 918 CURVE SMOOTH",
"321 918 OFFCURVE",
"235 843 OFFCURVE",
"235 752 CURVE SMOOTH",
"235 652 OFFCURVE",
"287 608 OFFCURVE",
"421 569 CURVE SMOOTH",
"506 542 LINE SMOOTH",
"740 470 OFFCURVE",
"789 389 OFFCURVE",
"789 244 CURVE SMOOTH"
);
}
);
width = 899;
}
);
unicode = 0073;
},
{
glyphname = t;
layers = (
{
anchors = (
{
name = bottom;
position = "{353, 0}";
},
{
name = center;
position = "{353, 494}";
}
);
layerId = "9209D6FA-1952-4593-83C2-3566FC124D27";
name = Regular;
paths = (
{
closed = 1;
nodes = (
"654 8 OFFCURVE",
"583 -10 OFFCURVE",
"486 -10 CURVE SMOOTH",
"336 -10 OFFCURVE",
"228 68 OFFCURVE",
"228 261 CURVE SMOOTH",
"228 919 LINE",
"90 919 LINE",
"90 974 LINE",
"236 986 LINE",
"267 1235 LINE",
"342 1240 LINE",
"342 986 LINE",
"645 986 LINE",
"645 919 LINE",
"342 919 LINE",
"342 265 LINE SMOOTH",
"342 106 OFFCURVE",
"407 68 OFFCURVE",
"505 68 CURVE SMOOTH",
"571 68 OFFCURVE",
"632 88 OFFCURVE",
"632 88 CURVE",
"654 8 LINE"
);
}
);
width = 744;
}
);
unicode = 0074;
},
{
glyphname = tbar;
layers = (
{
layerId = "9209D6FA-1952-4593-83C2-3566FC124D27";
name = Regular;
paths = (
{
closed = 1;
nodes = (
"587 -16 OFFCURVE",
"559 -18 OFFCURVE",
"528 -18 CURVE SMOOTH",
"285 -18 OFFCURVE",
"266 101 OFFCURVE",
"266 405 CURVE SMOOTH",
"266 581 LINE",
"125 581 LINE",
"125 695 LINE",
"266 695 LINE",
"266 892 LINE",
"114 892 LINE",
"126 999 LINE",
"266 999 LINE",
"306 1225 LINE",
"419 1233 LINE",
"419 999 LINE",
"683 999 LINE",
"683 892 LINE",
"419 892 LINE",
"419 695 LINE",
"609 695 LINE",
"609 581 LINE",
"419 581 LINE",
"419 334 LINE SMOOTH",
"419 147 OFFCURVE",
"441 107 OFFCURVE",
"563 107 CURVE SMOOTH",
"580 107 OFFCURVE",
"617 112 OFFCURVE",
"687 117 CURVE",
"701 -6 LINE"
);
}
);
width = 815;
}
);
unicode = 0167;
},
{
glyphname = v;
layers = (
{
layerId = "9209D6FA-1952-4593-83C2-3566FC124D27";
name = Regular;
paths = (
{
closed = 1;
nodes = (
"440 0 LINE",
"561 0 LINE",
"937 986 LINE",
"824 986 LINE SMOOTH",
"824 986 OFFCURVE",
"707 664 OFFCURVE",
"613 409 CURVE SMOOTH",
"572 295 OFFCURVE",
"500 106 OFFCURVE",
"500 106 CURVE SMOOTH",
"500 106 OFFCURVE",
"439 271 OFFCURVE",
"388 406 CURVE SMOOTH",
"175 986 LINE",
"62 986 LINE"
);
}
);
width = 999;
}
);
unicode = 0076;
},
{
glyphname = w;
layers = (
{
anchors = (
{
name = top;
position = "{724, 986}";
}
);
layerId = "9209D6FA-1952-4593-83C2-3566FC124D27";
name = Regular;
paths = (
{
closed = 1;
nodes = (
"66 986 LINE",
"170 986 LINE",
"394 112 LINE",
"541 570 OFFCURVE",
"618 863 OFFCURVE",
"661 986 CURVE",
"791 986 LINE",
"824 893 OFFCURVE",
"966 474 OFFCURVE",
"1080 116 CURVE",
"1283 986 LINE",
"1383 986 LINE",
"1129 0 LINE",
"1036 0 LINE",
"1050 -49 OFFCURVE",
"846 544 OFFCURVE",
"728 911 CURVE",
"586 436 OFFCURVE",
"449 0 OFFCURVE",
"449 0 CURVE SMOOTH",
"339 0 LINE"
);
}
);
width = 1449;
}
);
unicode = 0077;
},
{
glyphname = x;
layers = (
{
layerId = "9209D6FA-1952-4593-83C2-3566FC124D27";
name = Regular;
paths = (
{
closed = 1;
nodes = (
"491 580 LINE",
"797 986 LINE",
"919 986 LINE",
"542 496 LINE",
"927 0 LINE",
"820 0 LINE",
"491 423 LINE",
"168 0 LINE",
"62 0 LINE",
"437 500 LINE",
"73 986 LINE",
"179 986 LINE"
);
}
);
width = 989;
}
);
unicode = 0078;
},
{
glyphname = y;
layers = (
{
anchors = (
{
name = top;
position = "{488, 986}";
}
);
layerId = "9209D6FA-1952-4593-83C2-3566FC124D27";
name = Regular;
paths = (
{
closed = 1;
nodes = (
"425 -374 LINE",
"955 986 LINE",
"848 986 LINE",
"529 152 LINE",
"191 986 LINE",
"76 986 LINE",
"477 22 LINE",
"327 -374 LINE"
);
}
);
width = 1005;
}
);
unicode = 0079;
},
{
glyphname = z;
layers = (
{
anchors = (
{
name = top;
position = "{444, 986}";
}
);
layerId = "9209D6FA-1952-4593-83C2-3566FC124D27";
name = Regular;
paths = (
{
closed = 1;
nodes = (
"134 986 LINE",
"747 986 LINE",
"747 908 LINE",
"221 78 LINE",
"752 78 LINE",
"752 0 LINE",
"114 0 LINE",
"114 77 LINE",
"640 908 LINE",
"134 908 LINE"
);
}
);
width = 858;
}
);
unicode = 007A;
},
{
glyphname = uniFB01;
layers = (
{
layerId = "9209D6FA-1952-4593-83C2-3566FC124D27";
name = Regular;
paths = (
{
closed = 1;
nodes = (
"180 918 LINE",
"180 988 LINE",
"320 988 LINE",
"320 1037 LINE",
"329 1355 OFFCURVE",
"438 1389 OFFCURVE",
"623 1389 CURVE SMOOTH",
"688 1389 LINE",
"705 1319 LINE",
"609 1319 LINE SMOOTH",
"422 1319 OFFCURVE",
"406 1240 OFFCURVE",
"405 1012 CURVE SMOOTH",
"405 988 LINE",
"958 988 LINE",
"958 0 LINE",
"876 0 LINE",
"876 928 LINE",
"405 928 LINE",
"405 0 LINE",
"320 0 LINE",
"320 918 LINE"
);
},
{
closed = 1;
nodes = (
"876 1209 LINE",
"876 1364 LINE",
"958 1364 LINE",
"958 1209 LINE"
);
}
);
width = 1131;
}
);
unicode = FB01;
},
{
glyphname = uni0411;
layers = (
{
layerId = "9209D6FA-1952-4593-83C2-3566FC124D27";
name = Regular;
paths = (
{
closed = 1;
nodes = (
"308 688 LINE",
"308 80 LINE",
"662 80 LINE SMOOTH",
"875 80 OFFCURVE",
"964 177 OFFCURVE",
"964 385 CURVE SMOOTH",
"964 597 OFFCURVE",
"873 688 OFFCURVE",
"649 688 CURVE SMOOTH"
);
},
{
closed = 1;
nodes = (
"1018 766 OFFCURVE",
"1078 588 OFFCURVE",
"1078 389 CURVE SMOOTH",
"1078 181 OFFCURVE",
"1026 0 OFFCURVE",
"656 0 CURVE SMOOTH",
"198 0 LINE",
"198 1353 LINE",
"952 1353 LINE",
"952 1267 LINE",
"308 1267 LINE",
"308 766 LINE",
"650 766 LINE SMOOTH"
);
}
);
width = 1198;
}
);
unicode = 0411;
},
{
glyphname = uni0413;
layers = (
{
anchors = (
{
name = top;
position = "{435, 1349}";
}
);
layerId = "9209D6FA-1952-4593-83C2-3566FC124D27";
name = Regular;
paths = (
{
closed = 1;
nodes = (
"1038 1252 LINE",
"1045 1353 LINE",
"198 1353 LINE",
"198 0 LINE",
"308 0 LINE",
"308 1252 LINE"
);
}
);
width = 869;
}
);
unicode = 0413;
},
{
glyphname = uni0403;
layers = (
{
layerId = "9209D6FA-1952-4593-83C2-3566FC124D27";
name = Regular;
paths = (
{
closed = 1;
nodes = (
"995 1205 LINE",
"1008 1346 LINE",
"160 1346 LINE",
"160 0 LINE",
"334 0 LINE",
"334 1205 LINE"
);
}
);
width = 1047;
}
);
unicode = 0403;
},
{
glyphname = uni0414;
layers = (
{
layerId = "9209D6FA-1952-4593-83C2-3566FC124D27";
name = Regular;
paths = (
{
closed = 1;
nodes = (
"482 1205 LINE",
"978 1205 LINE",
"978 138 LINE",
"317 138 LINE",
"391 257 OFFCURVE",
"410 471 OFFCURVE",
"456 938 CURVE",
"460 989 OFFCURVE",
"476 1142 OFFCURVE",
"482 1202 CURVE"
);
},
{
closed = 1;
nodes = (
"126 -275 LINE",
"126 0 LINE",
"1145 0 LINE",
"1145 -275 LINE",
"1306 -275 LINE",
"1306 138 LINE",
"1152 138 LINE",
"1152 1346 LINE",
"321 1346 LINE",
"311 1238 OFFCURVE",
"298 1109 OFFCURVE",
"289 1019 CURVE SMOOTH",
"223 353 OFFCURVE",
"198 199 OFFCURVE",
"112 138 CURVE",
"-38 138 LINE",
"-38 -275 LINE"
);
}
);
width = 1368;
}
);
unicode = 0414;
},
{
glyphname = uni0416;
layers = (
{
layerId = "9209D6FA-1952-4593-83C2-3566FC124D27";
name = Regular;
paths = (
{
closed = 1;
nodes = (
"832 0 LINE",
"1006 0 LINE",
"1006 600 LINE",
"1535 0 LINE",
"1744 0 LINE",
"1147 668 LINE",
"1673 1346 LINE",
"1477 1346 LINE",
"1006 733 LINE",
"1006 1346 LINE",
"832 1346 LINE",
"832 735 LINE",
"362 1346 LINE",
"166 1346 LINE",
"692 668 LINE",
"95 0 LINE",
"304 0 LINE",
"832 599 LINE"
);
}
);
width = 1851;
}
);
unicode = 0416;
},
{
glyphname = uni0418;
layers = (
{
anchors = (
{
name = top;
position = "{762, 1349}";
}
);
layerId = "9209D6FA-1952-4593-83C2-3566FC124D27";
name = Regular;
paths = (
{
closed = 1;
nodes = (
"779 853 OFFCURVE",
"651 616 OFFCURVE",
"277 83 CURVE",
"277 83 OFFCURVE",
"286 -35 OFFCURVE",
"286 41 CURVE",
"466 1353 LINE",
"198 2232 LINE",
"28 0 LINE",
"-135 -552 LINE",
"319 73 OFFCURVE",
"783 1239 OFFCURVE",
"1232 1869 CURVE",
"1232 1869 OFFCURVE",
"1044 1483 OFFCURVE",
"1044 1304 CURVE",
"1044 -879 LINE",
"1484 -879 LINE",
"1486 1357 LINE SMOOTH",
"1491 1365 OFFCURVE",
"1191 1416 OFFCURVE",
"1193 1422 CURVE"
);
}
);
width = 1525;
}
);
unicode = 0418;
},
{
glyphname = uni041B;
layers = (
{
layerId = "9209D6FA-1952-4593-83C2-3566FC124D27";
name = Regular;
paths = (
{
closed = 1;
nodes = (
"914 0 LINE",
"914 1205 LINE",
"391 1205 LINE",
"389 1148 OFFCURVE",
"380 991 OFFCURVE",
"378 939 CURVE SMOOTH",
"337 123 OFFCURVE",
"323 -10 OFFCURVE",
"-30 -46 CURVE",
"-60 91 LINE",
"145 144 OFFCURVE",
"160 94 OFFCURVE",
"207 1019 CURVE SMOOTH",
"212 1109 OFFCURVE",
"219 1238 OFFCURVE",
"224 1346 CURVE",
"1088 1346 LINE",
"1088 0 LINE"
);
}
);
width = 1248;
}
);
unicode = 041B;
},
{
glyphname = uni041F;
layers = (
{
layerId = "9209D6FA-1952-4593-83C2-3566FC124D27";
name = Regular;
paths = (
{
closed = 1;
nodes = (
"308 1252 LINE",
"1111 1252 LINE",
"1111 0 LINE",
"1221 0 LINE",
"1221 1353 LINE",
"198 1353 LINE",
"198 0 LINE",
"308 0 LINE"
);
}
);
width = 1436;
}
);
unicode = 041F;
},
{
glyphname = uni0423;
layers = (
{
anchors = (
{
name = top;
position = "{624, 1346}";
}
);
layerId = "9209D6FA-1952-4593-83C2-3566FC124D27";
name = Regular;
paths = (
{
closed = 1;
nodes = (
"255 1346 LINE",
"64 1346 LINE",
"567 424 LINE",
"390 0 LINE",
"577 0 LINE",
"1217 1346 LINE",
"1029 1346 LINE",
"670 580 LINE"
);
}
);
width = 1248;
}
);
unicode = 0423;
},
{
glyphname = uni0424;
layers = (
{
layerId = "9209D6FA-1952-4593-83C2-3566FC124D27";
name = Regular;
paths = (
{
closed = 1;
nodes = (
"789 0 LINE",
"715 0 LINE",
"716 97 LINE",
"295 145 OFFCURVE",
"107 342 OFFCURVE",
"107 670 CURVE SMOOTH",
"107 1004 OFFCURVE",
"298 1204 OFFCURVE",
"716 1252 CURVE",
"715 1378 LINE",
"789 1378 LINE",
"789 1255 LINE",
"1203 1219 OFFCURVE",
"1421 1032 OFFCURVE",
"1421 670 CURVE SMOOTH",
"1421 313 OFFCURVE",
"1200 131 OFFCURVE",
"789 95 CURVE"
);
},
{
closed = 1;
nodes = (
"217 398 OFFCURVE",
"372 239 OFFCURVE",
"716 194 CURVE",
"716 1157 LINE",
"370 1112 OFFCURVE",
"217 949 OFFCURVE",
"217 672 CURVE SMOOTH"
);
},
{
closed = 1;
nodes = (
"1310 951 OFFCURVE",
"1154 1118 OFFCURVE",
"789 1159 CURVE",
"789 192 LINE",
"1157 233 OFFCURVE",
"1310 398 OFFCURVE",
"1310 672 CURVE SMOOTH"
);
}
);
width = 1543;
}
);
unicode = 0424;
},
{
glyphname = uni0427;
layers = (
{
layerId = "9209D6FA-1952-4593-83C2-3566FC124D27";
name = Regular;
paths = (
{
closed = 1;
nodes = (
"896 -11 LINE",
"768 -11 LINE",
"768 411 LINE",
"807 424 OFFCURVE",
"328 431 OFFCURVE",
"349 431 CURVE SMOOTH",
"141 431 OFFCURVE",
"77 613 OFFCURVE",
"77 791 CURVE SMOOTH",
"77 1359 LINE",
"216 1359 LINE",
"216 831 LINE SMOOTH",
"216 586 OFFCURVE",
"290 547 OFFCURVE",
"427 547 CURVE SMOOTH",
"407 547 OFFCURVE",
"794 532 OFFCURVE",
"768 523 CURVE",
"768 1359 LINE",
"896 1359 LINE"
);
}
);
width = 793;
}
);
unicode = 0427;
},
{
glyphname = uni0426;
layers = (
{
layerId = "9209D6FA-1952-4593-83C2-3566FC124D27";
name = Regular;
paths = (
{
closed = 1;
nodes = (
"1228 -257 LINE",
"1228 160 LINE",
"1082 160 LINE",
"1082 1353 LINE",
"972 1353 LINE",
"972 101 LINE",
"308 101 LINE",
"308 1353 LINE",
"198 1353 LINE",
"198 0 LINE",
"1121 0 LINE",
"1120 -257 LINE"
);
}
);
width = 1408;
}
);
unicode = 0426;
},
{
glyphname = uni0428;
layers = (
{
layerId = "9209D6FA-1952-4593-83C2-3566FC124D27";
name = Regular;
paths = (
{
closed = 1;
nodes = (
"663 106 LINE",
"663 1353 LINE",
"752 1353 LINE",
"752 106 LINE",
"1196 106 LINE",
"1196 1353 LINE",
"1285 1353 LINE",
"1285 0 LINE",
"156 0 LINE",
"156 1353 LINE",
"245 1353 LINE",
"245 106 LINE"
);
}
);
width = 1456;
}
);
unicode = 0428;
},
{
glyphname = uni0429;
layers = (
{
layerId = "9209D6FA-1952-4593-83C2-3566FC124D27";
name = Regular;
paths = (
{
closed = 1;
nodes = (
"705 106 LINE",
"705 1353 LINE",
"794 1353 LINE",
"794 106 LINE",
"1237 106 LINE",
"1237 1353 LINE",
"1327 1353 LINE",
"1327 160 LINE",
"1407 160 LINE",
"1407 -257 LINE",
"1301 -257 LINE",
"1302 0 LINE",
"198 0 LINE",
"198 1353 LINE",
"287 1353 LINE",
"287 106 LINE"
);
}
);
width = 1532;
}
);
unicode = 0429;
},
{
glyphname = uni040F;
layers = (
{
layerId = "9209D6FA-1952-4593-83C2-3566FC124D27";
name = Regular;
paths = (
{
closed = 1;
nodes = (
"760 0 LINE",
"1167 0 LINE",
"1167 1346 LINE",
"993 1346 LINE",
"993 138 LINE",
"334 138 LINE",
"334 1346 LINE",
"160 1346 LINE",
"160 0 LINE",
"601 0 LINE",
"601 -275 LINE",
"760 -275 LINE"
);
}
);
width = 1327;
}
);
unicode = 040F;
},
{
glyphname = uni042A;
layers = (
{
layerId = "9209D6FA-1952-4593-83C2-3566FC124D27";
name = Regular;
paths = (
{
closed = 1;
nodes = (
"664 1359 LINE",
"664 716 LINE",
"829 716 LINE SMOOTH",
"1167 716 OFFCURVE",
"1311 593 OFFCURVE",
"1311 349 CURVE SMOOTH",
"1311 105 OFFCURVE",
"1147 -11 OFFCURVE",
"828 -11 CURVE SMOOTH",
"531 -11 LINE",
"531 1258 LINE",
"200 1258 LINE",
"200 1359 LINE"
);
},
{
closed = 1;
nodes = (
"664 615 LINE",
"664 91 LINE",
"847 91 LINE SMOOTH",
"1125 91 OFFCURVE",
"1168 185 OFFCURVE",
"1168 359 CURVE SMOOTH",
"1168 517 OFFCURVE",
"1115 615 OFFCURVE",
"848 615 CURVE SMOOTH"
);
}
);
width = 1420;
}
);
unicode = 042A;
},
{
glyphname = uni042B;
layers = (
{
layerId = "9209D6FA-1952-4593-83C2-3566FC124D27";
name = Regular;
paths = (
{
closed = 1;
nodes = (
"324 1346 LINE",
"324 773 LINE",
"454 773 LINE SMOOTH",
"776 773 OFFCURVE",
"949 634 OFFCURVE",
"949 387 CURVE SMOOTH",
"949 149 OFFCURVE",
"781 0 OFFCURVE",
"441 0 CURVE SMOOTH",
"149 0 LINE",
"149 1346 LINE"
);
},
{
closed = 1;
nodes = (
"324 633 LINE",
"324 141 LINE",
"459 141 LINE SMOOTH",
"689 141 OFFCURVE",
"774 223 OFFCURVE",
"774 383 CURVE SMOOTH",
"774 537 OFFCURVE",
"692 633 OFFCURVE",
"453 633 CURVE SMOOTH"
);
}
);
width = 1032;
}
);
unicode = 042B;
},
{
glyphname = uni0409;
layers = (
{
layerId = "9209D6FA-1952-4593-83C2-3566FC124D27";
name = Regular;
paths = (
{
closed = 1;
nodes = (
"101 -29 LINE",
"101 83 LINE",
"116 81 LINE SMOOTH",
"301 79 OFFCURVE",
"303 205 OFFCURVE",
"303 339 CURVE SMOOTH",
"305 1359 LINE",
"981 1359 LINE",
"981 781 LINE",
"1283 781 LINE SMOOTH",
"1506 781 OFFCURVE",
"1627 662 OFFCURVE",
"1627 378 CURVE SMOOTH",
"1627 130 OFFCURVE",
"1506 -3 OFFCURVE",
"1279 -3 CURVE SMOOTH",
"832 -3 LINE",
"853 1263 LINE",
"431 1263 LINE",
"423 389 LINE",
"423 115 OFFCURVE",
"410 -29 OFFCURVE",
"102 -29 CURVE SMOOTH"
);
},
{
closed = 1;
nodes = (
"968 679 LINE",
"968 92 LINE",
"1268 92 LINE SMOOTH",
"1395 92 OFFCURVE",
"1489 200 OFFCURVE",
"1489 377 CURVE SMOOTH",
"1489 555 OFFCURVE",
"1403 679 OFFCURVE",
"1268 679 CURVE SMOOTH"
);
}
);
width = 1831;
}
);
unicode = 0409;
},
{
glyphname = uni040A;
layers = (
{
layerId = "9209D6FA-1952-4593-83C2-3566FC124D27";
name = Regular;
paths = (
{
closed = 1;
nodes = (
"1335 653 LINE",
"1527 653 OFFCURVE",
"1627 573 OFFCURVE",
"1627 392 CURVE SMOOTH",
"1627 212 OFFCURVE",
"1529 129 OFFCURVE",
"1343 129 CURVE SMOOTH",
"1120 129 LINE",
"1120 653 LINE"
);
},
{
closed = 1;
nodes = (
"334 630 LINE",
"946 630 LINE",
"946 0 LINE",
"1334 0 LINE SMOOTH",
"1664 0 OFFCURVE",
"1792 155 OFFCURVE",
"1792 393 CURVE SMOOTH",
"1792 628 OFFCURVE",
"1664 779 OFFCURVE",
"1340 779 CURVE SMOOTH",
"1120 779 LINE",
"1120 1346 LINE",
"946 1346 LINE",
"946 768 LINE",
"334 768 LINE",
"334 1346 LINE",
"160 1346 LINE",
"160 0 LINE",
"334 0 LINE"
);
}
);
width = 1853;
}
);
unicode = 040A;
},
{
glyphname = uni0405;
layers = (
{
layerId = "9209D6FA-1952-4593-83C2-3566FC124D27";
name = Regular;
paths = (
{
closed = 1;
nodes = (
"1145 104 OFFCURVE",
"954 -22 OFFCURVE",
"684 -22 CURVE SMOOTH",
"401 -22 OFFCURVE",
"216 56 OFFCURVE",
"157 97 CURVE",
"193 171 LINE",
"345 103 OFFCURVE",
"488 57 OFFCURVE",
"694 57 CURVE SMOOTH",
"926 57 OFFCURVE",
"1058 166 OFFCURVE",
"1058 390 CURVE SMOOTH",
"1058 519 OFFCURVE",
"1017 608 OFFCURVE",
"787 660 CURVE SMOOTH",
"487 725 LINE SMOOTH",
"282 768 OFFCURVE",
"150 858 OFFCURVE",
"150 1031 CURVE SMOOTH",
"150 1305 OFFCURVE",
"350 1371 OFFCURVE",
"671 1371 CURVE SMOOTH",
"843 1371 OFFCURVE",
"1000 1344 OFFCURVE",
"1072 1293 CURVE",
"1052 1225 LINE",
"955 1275 OFFCURVE",
"839 1294 OFFCURVE",
"671 1294 CURVE SMOOTH",
"391 1294 OFFCURVE",
"240 1230 OFFCURVE",
"240 1046 CURVE SMOOTH",
"240 913 OFFCURVE",
"331 845 OFFCURVE",
"515 805 CURVE SMOOTH",
"807 750 LINE",
"988 720 OFFCURVE",
"1145 626 OFFCURVE",
"1145 401 CURVE SMOOTH"
);
}
);
width = 1323;
}
);
unicode = 0405;
},
{
glyphname = uni0406;
layers = (
{
anchors = (
{
name = top;
position = "{216, 1346}";
}
);
layerId = "9209D6FA-1952-4593-83C2-3566FC124D27";
name = Regular;
paths = (
{
closed = 1;
nodes = (
"136 0 LINE",
"136 1362 LINE",
"297 1362 LINE",
"297 0 LINE"
);
}
);
width = 432;
}
);
unicode = 0406;
},
{
glyphname = uni0408;
layers = (
{
layerId = "9209D6FA-1952-4593-83C2-3566FC124D27";
name = Regular;
paths = (
{
closed = 1;
nodes = (
"204 -130 OFFCURVE",
"172 -131 OFFCURVE",
"195 -136 CURVE",
"171 -25 LINE",
"141 -21 OFFCURVE",
"228 -19 OFFCURVE",
"211 -19 CURVE SMOOTH",
"402 -19 OFFCURVE",
"398 98 OFFCURVE",
"398 226 CURVE SMOOTH",
"398 1349 LINE",
"487 1349 LINE",
"487 268 LINE SMOOTH",
"487 0 OFFCURVE",
"504 -130 OFFCURVE",
"181 -130 CURVE SMOOTH"
);
}
);
width = 689;
}
);
unicode = 0408;
},
{
glyphname = uni042E;
layers = (
{
layerId = "9209D6FA-1952-4593-83C2-3566FC124D27";
name = Regular;
paths = (
{
closed = 1;
nodes = (
"1773 295 OFFCURVE",
"1555 -24 OFFCURVE",
"1177 -24 CURVE SMOOTH",
"819 -24 OFFCURVE",
"605 278 OFFCURVE",
"584 648 CURVE",
"237 648 LINE",
"237 -7 LINE",
"123 -7 LINE",
"123 1379 LINE",
"237 1379 LINE",
"237 743 LINE",
"587 743 LINE",
"607 1140 OFFCURVE",
"811 1404 OFFCURVE",
"1164 1404 CURVE SMOOTH",
"1540 1404 OFFCURVE",
"1773 1099 OFFCURVE",
"1773 678 CURVE SMOOTH"
);
},
{
closed = 1;
nodes = (
"700 235 OFFCURVE",
"867 71 OFFCURVE",
"1181 71 CURVE SMOOTH",
"1489 71 OFFCURVE",
"1652 360 OFFCURVE",
"1652 684 CURVE SMOOTH",
"1652 987 OFFCURVE",
"1489 1308 OFFCURVE",
"1167 1308 CURVE SMOOTH",
"858 1308 OFFCURVE",
"700 1000 OFFCURVE",
"700 681 CURVE SMOOTH"
);
}
);
width = 2196;
}
);
unicode = 042E;
},
{
glyphname = uni0431;
layers = (
{
layerId = "9209D6FA-1952-4593-83C2-3566FC124D27";
name = Regular;
paths = (
{
closed = 1;
nodes = (
"108 496 OFFCURVE",
"58 -19 OFFCURVE",
"528 -19 CURVE SMOOTH",
"761 -19 OFFCURVE",
"895 181 OFFCURVE",
"895 392 CURVE SMOOTH",
"895 536 OFFCURVE",
"793 765 OFFCURVE",
"567 765 CURVE SMOOTH",
"391 765 OFFCURVE",
"351 705 OFFCURVE",
"215 640 CURVE",
"290 1007 OFFCURVE",
"582 1044 OFFCURVE",
"832 1059 CURVE",
"835 1131 LINE",
"267 1098 OFFCURVE",
"108 856 OFFCURVE",
"108 487 CURVE SMOOTH"
);
},
{
closed = 1;
nodes = (
"817 182 OFFCURVE",
"751 67 OFFCURVE",
"524 67 CURVE SMOOTH",
"385 67 OFFCURVE",
"183 180 OFFCURVE",
"232 550 CURVE",
"369 685 OFFCURVE",
"518 697 OFFCURVE",
"567 697 CURVE SMOOTH",
"716 697 OFFCURVE",
"817 559 OFFCURVE",
"817 406 CURVE SMOOTH"
);
}
);
width = 1006;
}
);
unicode = 0431;
},
{
glyphname = uni0432;
layers = (
{
layerId = "9209D6FA-1952-4593-83C2-3566FC124D27";
name = Regular;
paths = (
{
closed = 1;
nodes = (
"194 0 LINE",
"194 988 LINE",
"622 988 LINE SMOOTH",
"878 988 OFFCURVE",
"938 857 OFFCURVE",
"938 757 CURVE SMOOTH",
"938 642 OFFCURVE",
"890 575 OFFCURVE",
"731 534 CURVE",
"925 498 OFFCURVE",
"974 364 OFFCURVE",
"974 281 CURVE",
"974 163 OFFCURVE",
"914 0 OFFCURVE",
"609 0 CURVE SMOOTH"
);
},
{
closed = 1;
nodes = (
"315 469 LINE",
"315 79 LINE",
"594 79 LINE SMOOTH",
"801 79 OFFCURVE",
"832 151 OFFCURVE",
"832 281 CURVE",
"833 367 OFFCURVE",
"823 469 OFFCURVE",
"620 469 CURVE SMOOTH"
);
},
{
closed = 1;
nodes = (
"315 907 LINE",
"315 564 LINE",
"616 564 LINE SMOOTH",
"768 564 OFFCURVE",
"797 651 OFFCURVE",
"797 733 CURVE SMOOTH",
"797 834 OFFCURVE",
"746 907 OFFCURVE",
"595 907 CURVE SMOOTH"
);
}
);
width = 1090;
}
);
unicode = 0432;
},
{
glyphname = uni0433;
layers = (
{
anchors = (
{
name = top;
position = "{497, 986}";
}
);
layerId = "9209D6FA-1952-4593-83C2-3566FC124D27";
name = Regular;
paths = (
{
closed = 1;
nodes = (
"895 917 LINE",
"914 988 LINE",
"194 988 LINE",
"194 0 LINE",
"315 0 LINE",
"315 917 LINE"
);
}
);
width = 994;
}
);
unicode = 0433;
},
{
glyphname = uni0434;
layers = (
{
layerId = "9209D6FA-1952-4593-83C2-3566FC124D27";
name = Regular;
paths = (
{
closed = 1;
nodes = (
"57 -257 LINE",
"57 71 LINE",
"153 71 LINE",
"230 93 OFFCURVE",
"249 164 OFFCURVE",
"284 260 CURVE",
"415 988 LINE",
"981 988 LINE",
"981 71 LINE",
"1038 71 LINE",
"1038 -257 LINE",
"941 -257 LINE",
"952 0 LINE",
"138 0 LINE",
"144 -257 LINE"
);
},
{
closed = 1;
nodes = (
"858 923 LINE",
"500 923 LINE",
"501 948 OFFCURVE",
"406 348 OFFCURVE",
"408 367 CURVE",
"373 204 OFFCURVE",
"317 75 OFFCURVE",
"278 69 CURVE",
"858 69 LINE"
);
}
);
width = 1160;
}
);
unicode = 0434;
},
{
glyphname = uni0436;
layers = (
{
layerId = "9209D6FA-1952-4593-83C2-3566FC124D27";
name = Regular;
paths = (
{
closed = 1;
nodes = (
"646 515 LINE",
"646 988 LINE",
"767 988 LINE",
"767 515 LINE",
"1258 988 LINE",
"1355 988 LINE",
"852 510 LINE",
"1358 0 LINE",
"1248 0 LINE",
"767 490 LINE",
"767 0 LINE",
"646 0 LINE",
"646 490 LINE",
"168 0 LINE",
"57 0 LINE",
"564 510 LINE",
"60 988 LINE",
"159 988 LINE"
);
}
);
width = 1438;
}
);
unicode = 0436;
},
{
glyphname = uni0437;
layers = (
{
anchors = (
{
name = bottom;
position = "{430, 0}";
},
{
name = top;
position = "{430, 986}";
}
);
layerId = "9209D6FA-1952-4593-83C2-3566FC124D27";
name = Regular;
paths = (
{
closed = 1;
nodes = (
"605 -18 OFFCURVE",
"736 141 OFFCURVE",
"736 259 CURVE",
"737 374 OFFCURVE",
"681 479 OFFCURVE",
"529 523 CURVE",
"684 569 OFFCURVE",
"699 669 OFFCURVE",
"699 751 CURVE SMOOTH",
"699 862 OFFCURVE",
"667 1028 OFFCURVE",
"396 1028 CURVE SMOOTH",
"298 1028 OFFCURVE",
"193 1000 OFFCURVE",
"108 923 CURVE",
"130 870 OFFCURVE",
"141 839 OFFCURVE",
"141 839 CURVE SMOOTH",
"207 887 OFFCURVE",
"297 927 OFFCURVE",
"369 927 CURVE SMOOTH",
"513 927 OFFCURVE",
"589 853 OFFCURVE",
"589 739 CURVE SMOOTH",
"589 649 OFFCURVE",
"512 563 OFFCURVE",
"348 563 CURVE SMOOTH",
"279 563 LINE",
"279 482 LINE",
"348 482 LINE SMOOTH",
"549 482 OFFCURVE",
"604 374 OFFCURVE",
"604 269 CURVE SMOOTH",
"604 159 OFFCURVE",
"498 74 OFFCURVE",
"378 74 CURVE SMOOTH",
"299 74 OFFCURVE",
"195 115 OFFCURVE",
"144 160 CURVE",
"121 64 LINE",
"208 -6 OFFCURVE",
"308 -18 OFFCURVE",
"384 -18 CURVE SMOOTH"
);
}
);
width = 858;
}
);
unicode = 0437;
},
{
glyphname = uni0438;
layers = (
{
anchors = (
{
name = top;
position = "{544, 986}";
}
);
layerId = "9209D6FA-1952-4593-83C2-3566FC124D27";
name = Regular;
paths = (
{
closed = 1;
nodes = (
"254 147 LINE",
"254 988 LINE",
"161 988 LINE",
"161 0 LINE",
"253 0 LINE",
"818 759 LINE",
"818 0 LINE",
"913 0 LINE",
"913 988 LINE",
"818 988 LINE",
"818 904 LINE"
);
}
);
width = 1088;
}
);
unicode = 0438;
},
{
glyphname = uni043A;
layers = (
{
anchors = (
{
name = top;
position = "{561, 986}";
}
);
layerId = "9209D6FA-1952-4593-83C2-3566FC124D27";
name = Regular;
paths = (
{
closed = 1;
nodes = (
"194 988 LINE",
"194 0 LINE",
"315 0 LINE",
"315 482 LINE",
"820 0 LINE",
"957 0 LINE",
"444 493 LINE",
"419 471 OFFCURVE",
"904 987 OFFCURVE",
"904 987 CURVE",
"751 985 LINE SMOOTH",
"751 985 OFFCURVE",
"278 477 OFFCURVE",
"315 511 CURVE",
"315 988 LINE"
);
}
);
width = 1122;
}
);
unicode = 043A;
},
{
glyphname = uni043B;
layers = (
{
layerId = "9209D6FA-1952-4593-83C2-3566FC124D27";
name = Regular;
paths = (
{
closed = 1;
nodes = (
"839 -1 LINE",
"839 909 LINE",
"567 909 LINE",
"463 516 LINE SMOOTH",
"391 215 OFFCURVE",
"383 -13 OFFCURVE",
"94 -7 CURVE SMOOTH",
"100 -7 OFFCURVE",
"77 77 OFFCURVE",
"77 77 CURVE",
"230 69 OFFCURVE",
"284 166 OFFCURVE",
"356 541 CURVE SMOOTH",
"484 988 LINE",
"960 988 LINE",
"960 -1 LINE"
);
}
);
width = 1168;
}
);
unicode = 043B;
},
{
glyphname = uni043C;
layers = (
{
layerId = "9209D6FA-1952-4593-83C2-3566FC124D27";
name = Regular;
paths = (
{
closed = 1;
nodes = (
"885 988 LINE",
"985 988 LINE",
"985 0 LINE",
"890 0 LINE",
"890 766 LINE",
"645 137 LINE",
"555 137 LINE",
"287 766 LINE",
"287 0 LINE",
"194 0 LINE",
"194 988 LINE",
"295 988 LINE",
"589 243 LINE"
);
}
);
width = 1195;
}
);
unicode = 043C;
},
{
glyphname = uni043D;
layers = (
{
layerId = "9209D6FA-1952-4593-83C2-3566FC124D27";
name = Regular;
paths = (
{
closed = 1;
nodes = (
"885 563 LINE",
"885 988 LINE",
"1006 988 LINE",
"1006 0 LINE",
"885 0 LINE",
"885 485 LINE",
"315 485 LINE",
"315 0 LINE",
"194 0 LINE",
"194 988 LINE",
"315 988 LINE",
"315 563 LINE"
);
}
);
width = 1215;
}
);
unicode = 043D;
},
{
glyphname = uni043F;
layers = (
{
layerId = "9209D6FA-1952-4593-83C2-3566FC124D27";
name = Regular;
paths = (
{
closed = 1;
nodes = (
"823 0 LINE",
"823 902 LINE",
"238 902 LINE",
"238 0 LINE",
"155 0 LINE",
"155 988 LINE",
"905 988 LINE",
"905 0 LINE"
);
}
);
width = 1074;
}
);
unicode = 043F;
},
{
glyphname = uni0440;
layers = (
{
layerId = "9209D6FA-1952-4593-83C2-3566FC124D27";
name = Regular;
paths = (
{
closed = 1;
nodes = (
"135 985 LINE",
"247 985 LINE",
"261 788 LINE",
"313 938 OFFCURVE",
"445 1005 OFFCURVE",
"588 1005 CURVE SMOOTH",
"891 1005 OFFCURVE",
"1061 796 OFFCURVE",
"1061 481 CURVE SMOOTH",
"1061 189 OFFCURVE",
"866 -23 OFFCURVE",
"606 -23 CURVE SMOOTH",
"461 -23 OFFCURVE",
"311 53 OFFCURVE",
"246 160 CURVE",
"251 81 OFFCURVE",
"251 3 OFFCURVE",
"251 -81 CURVE SMOOTH",
"251 -441 LINE",
"135 -449 LINE"
);
},
{
closed = 1;
nodes = (
"252 244 OFFCURVE",
"325 60 OFFCURVE",
"593 60 CURVE SMOOTH",
"833 60 OFFCURVE",
"945 241 OFFCURVE",
"945 490 CURVE SMOOTH",
"945 726 OFFCURVE",
"842 920 OFFCURVE",
"598 920 CURVE SMOOTH",
"339 920 OFFCURVE",
"251 740 OFFCURVE",
"252 507 CURVE"
);
}
);
width = 1234;
}
);
unicode = 0440;
},
{
glyphname = uni0442;
layers = (
{
layerId = "9209D6FA-1952-4593-83C2-3566FC124D27";
name = Regular;
paths = (
{
closed = 1;
nodes = (
"818 988 LINE",
"818 892 LINE",
"534 892 LINE",
"534 0 LINE",
"407 0 LINE",
"407 892 LINE",
"127 892 LINE",
"127 988 LINE"
);
}
);
width = 958;
}
);
unicode = 0442;
},
{
glyphname = uni0443;
layers = (
{
anchors = (
{
name = top;
position = "{523, 986}";
}
);
layerId = "9209D6FA-1952-4593-83C2-3566FC124D27";
name = Regular;
paths = (
{
closed = 1;
nodes = (
"616 -12 OFFCURVE",
"717 -274 OFFCURVE",
"114 -244 CURVE",
"124 -140 LINE",
"702 -185 OFFCURVE",
"580 194 OFFCURVE",
"576 154 CURVE",
"100 986 LINE",
"234 986 LINE",
"612 229 LINE",
"870 986 LINE",
"993 986 LINE",
"649 88 LINE"
);
}
);
width = 1045;
}
);
unicode = 0443;
},
{
glyphname = uni0444;
layers = (
{
layerId = "9209D6FA-1952-4593-83C2-3566FC124D27";
name = Regular;
paths = (
{
closed = 1;
nodes = (
"699 -356 LINE",
"603 -356 LINE",
"603 75 LINE",
"546 49 OFFCURVE",
"466 40 OFFCURVE",
"400 40 CURVE SMOOTH",
"211 40 OFFCURVE",
"59 233 OFFCURVE",
"59 506 CURVE SMOOTH",
"59 779 OFFCURVE",
"194 952 OFFCURVE",
"391 952 CURVE SMOOTH",
"453 952 OFFCURVE",
"546 933 OFFCURVE",
"603 907 CURVE",
"603 1219 LINE",
"699 1219 LINE",
"699 907 LINE",
"759 934 OFFCURVE",
"843 952 OFFCURVE",
"909 952 CURVE SMOOTH",
"1105 952 OFFCURVE",
"1243 780 OFFCURVE",
"1243 507 CURVE SMOOTH",
"1243 236 OFFCURVE",
"1091 40 OFFCURVE",
"900 40 CURVE SMOOTH",
"834 40 OFFCURVE",
"754 49 OFFCURVE",
"699 75 CURVE"
);
},
{
closed = 1;
nodes = (
"169 311 OFFCURVE",
"257 125 OFFCURVE",
"406 125 CURVE SMOOTH",
"467 125 OFFCURVE",
"543 133 OFFCURVE",
"603 164 CURVE",
"603 827 LINE",
"535 863 OFFCURVE",
"453 868 OFFCURVE",
"390 868 CURVE SMOOTH",
"241 868 OFFCURVE",
"169 705 OFFCURVE",
"169 507 CURVE SMOOTH"
);
},
{
closed = 1;
nodes = (
"762 131 OFFCURVE",
"833 125 OFFCURVE",
"896 125 CURVE SMOOTH",
"1042 125 OFFCURVE",
"1134 310 OFFCURVE",
"1134 506 CURVE SMOOTH",
"1134 705 OFFCURVE",
"1058 867 OFFCURVE",
"911 867 CURVE SMOOTH",
"845 867 OFFCURVE",
"765 857 OFFCURVE",
"699 821 CURVE",
"699 167 LINE"
);
}
);
width = 1377;
}
);
unicode = 0444;
},
{
glyphname = uni0447;
layers = (
{
layerId = "9209D6FA-1952-4593-83C2-3566FC124D27";
name = Regular;
paths = (
{
closed = 1;
nodes = (
"792 0 LINE",
"672 0 LINE",
"672 328 LINE",
"711 361 OFFCURVE",
"594 370 OFFCURVE",
"484 370 CURVE",
"287 368 OFFCURVE",
"159 493 OFFCURVE",
"159 745 CURVE SMOOTH",
"159 988 LINE",
"280 988 LINE",
"280 742 LINE SMOOTH",
"280 470 OFFCURVE",
"368 456 OFFCURVE",
"502 456 CURVE SMOOTH",
"572 456 OFFCURVE",
"676 414 OFFCURVE",
"672 379 CURVE",
"672 988 LINE",
"792 988 LINE"
);
}
);
width = 1002;
}
);
unicode = 0447;
},
{
glyphname = uni0446;
layers = (
{
layerId = "9209D6FA-1952-4593-83C2-3566FC124D27";
name = Regular;
paths = (
{
closed = 1;
nodes = (
"1041 -257 LINE",
"1041 126 LINE",
"952 126 LINE",
"952 988 LINE",
"832 988 LINE",
"832 72 LINE",
"313 72 LINE",
"313 988 LINE",
"194 988 LINE",
"194 0 LINE",
"905 0 LINE",
"891 -257 LINE"
);
}
);
width = 1120;
}
);
unicode = 0446;
},
{
glyphname = uni0448;
layers = (
{
layerId = "9209D6FA-1952-4593-83C2-3566FC124D27";
name = Regular;
paths = (
{
closed = 1;
nodes = (
"677 71 LINE",
"677 988 LINE",
"795 988 LINE",
"795 71 LINE",
"1086 71 LINE",
"1086 988 LINE",
"1203 988 LINE",
"1203 0 LINE",
"270 0 LINE",
"270 988 LINE",
"385 988 LINE",
"385 71 LINE"
);
}
);
width = 1394;
}
);
unicode = 0448;
},
{
glyphname = uni0449;
layers = (
{
layerId = "9209D6FA-1952-4593-83C2-3566FC124D27";
name = Regular;
paths = (
{
closed = 1;
nodes = (
"1124 -262 LINE",
"1272 -262 LINE",
"1272 125 LINE",
"1182 125 LINE",
"1182 988 LINE",
"1050 988 LINE",
"1050 72 LINE",
"782 72 LINE",
"782 988 LINE",
"650 988 LINE",
"650 72 LINE",
"326 72 LINE",
"326 988 LINE",
"196 988 LINE",
"196 0 LINE",
"1135 0 LINE"
);
}
);
width = 1352;
}
);
unicode = 0449;
},
{
glyphname = uni045F;
layers = (
{
layerId = "9209D6FA-1952-4593-83C2-3566FC124D27";
name = Regular;
paths = (
{
closed = 1;
nodes = (
"243 988 LINE",
"243 72 LINE",
"778 72 LINE",
"778 988 LINE",
"861 988 LINE",
"861 0 LINE",
"575 0 LINE",
"574 -219 LINE",
"512 -219 LINE",
"511 0 LINE",
"161 0 LINE",
"161 988 LINE"
);
}
);
width = 1031;
}
);
unicode = 045F;
},
{
glyphname = uni044C;
layers = (
{
layerId = "9209D6FA-1952-4593-83C2-3566FC124D27";
name = Regular;
paths = (
{
closed = 1;
nodes = (
"314 987 LINE",
"314 624 LINE",
"512 624 LINE SMOOTH",
"795 624 OFFCURVE",
"848 455 OFFCURVE",
"848 322 CURVE SMOOTH",
"848 179 OFFCURVE",
"785 0 OFFCURVE",
"514 0 CURVE SMOOTH",
"194 0 LINE",
"194 987 LINE"
);
},
{
closed = 1;
nodes = (
"313 538 LINE",
"313 79 LINE",
"527 79 LINE SMOOTH",
"673 79 OFFCURVE",
"713 225 OFFCURVE",
"713 324 CURVE SMOOTH",
"713 428 OFFCURVE",
"661 538 OFFCURVE",
"520 538 CURVE SMOOTH"
);
}
);
width = 953;
}
);
unicode = 044C;
},
{
glyphname = uni044A;
layers = (
{
layerId = "9209D6FA-1952-4593-83C2-3566FC124D27";
name = Regular;
paths = (
{
closed = 1;
nodes = (
"213 0 LINE",
"522 0 LINE SMOOTH",
"792 0 OFFCURVE",
"856 181 OFFCURVE",
"856 324 CURVE SMOOTH",
"856 458 OFFCURVE",
"803 627 OFFCURVE",
"521 627 CURVE SMOOTH",
"334 627 LINE",
"334 988 LINE",
"77 988 LINE",
"77 914 LINE",
"213 914 LINE"
);
},
{
closed = 1;
nodes = (
"333 79 LINE",
"333 540 LINE",
"530 540 LINE SMOOTH",
"669 540 OFFCURVE",
"721 432 OFFCURVE",
"721 326 CURVE SMOOTH",
"721 226 OFFCURVE",
"681 79 OFFCURVE",
"536 79 CURVE SMOOTH"
);
}
);
width = 961;
}
);
unicode = 044A;
},
{
glyphname = uni044B;
layers = (
{
layerId = "9209D6FA-1952-4593-83C2-3566FC124D27";
name = Regular;
paths = (
{
closed = 1;
nodes = (
"1074 0 LINE",
"1074 998 LINE",
"1248 998 LINE",
"1248 0 LINE"
);
},
{
closed = 1;
nodes = (
"323 999 LINE",
"323 635 LINE",
"525 635 LINE SMOOTH",
"769 635 OFFCURVE",
"870 490 OFFCURVE",
"870 326 CURVE SMOOTH",
"870 162 OFFCURVE",
"775 0 OFFCURVE",
"531 0 CURVE SMOOTH",
"149 0 LINE",
"149 999 LINE"
);
},
{
closed = 1;
nodes = (
"323 511 LINE",
"323 122 LINE",
"533 122 LINE SMOOTH",
"653 122 OFFCURVE",
"696 239 OFFCURVE",
"696 329 CURVE SMOOTH",
"696 419 OFFCURVE",
"647 511 OFFCURVE",
"527 511 CURVE SMOOTH"
);
}
);
width = 1397;
}
);
unicode = 044B;
},
{
glyphname = uni0459;
layers = (
{
layerId = "9209D6FA-1952-4593-83C2-3566FC124D27";
name = Regular;
paths = (
{
closed = 1;
nodes = (
"107 -23 LINE",
"98 116 LINE",
"141 116 LINE SMOOTH",
"267 116 OFFCURVE",
"269 168 OFFCURVE",
"269 372 CURVE SMOOTH",
"269 999 LINE",
"1004 999 LINE",
"1004 635 LINE",
"1196 635 LINE SMOOTH",
"1440 635 OFFCURVE",
"1541 490 OFFCURVE",
"1541 326 CURVE SMOOTH",
"1541 162 OFFCURVE",
"1446 0 OFFCURVE",
"1202 0 CURVE SMOOTH",
"851 0 LINE",
"851 870 LINE",
"422 870 LINE",
"422 381 LINE SMOOTH",
"422 83 OFFCURVE",
"419 -23 OFFCURVE",
"141 -23 CURVE SMOOTH"
);
},
{
closed = 1;
nodes = (
"1004 511 LINE",
"1004 120 LINE",
"1224 120 LINE SMOOTH",
"1344 120 OFFCURVE",
"1393 239 OFFCURVE",
"1393 329 CURVE SMOOTH",
"1393 419 OFFCURVE",
"1338 511 OFFCURVE",
"1218 511 CURVE SMOOTH"
);
}
);
width = 1648;
}
);
unicode = 0459;
},
{
glyphname = uni045A;
layers = (
{
layerId = "9209D6FA-1952-4593-83C2-3566FC124D27";
name = Regular;
paths = (
{
closed = 1;
nodes = (
"742 562 LINE",
"742 988 LINE",
"826 988 LINE",
"826 630 LINE",
"1027 630 LINE SMOOTH",
"1299 630 OFFCURVE",
"1371 454 OFFCURVE",
"1371 325 CURVE SMOOTH",
"1371 178 OFFCURVE",
"1311 0 OFFCURVE",
"1038 0 CURVE SMOOTH",
"742 0 LINE",
"742 493 LINE",
"243 493 LINE",
"243 0 LINE",
"161 0 LINE",
"161 988 LINE",
"243 988 LINE",
"243 562 LINE"
);
},
{
closed = 1;
nodes = (
"826 543 LINE",
"826 73 LINE",
"1084 73 LINE SMOOTH",
"1223 73 OFFCURVE",
"1271 228 OFFCURVE",
"1271 326 CURVE SMOOTH",
"1271 428 OFFCURVE",
"1214 543 OFFCURVE",
"1074 543 CURVE SMOOTH"
);
}
);
width = 1537;
}
);
unicode = 045A;
},
{
glyphname = uni044D;
layers = (
{
layerId = "9209D6FA-1952-4593-83C2-3566FC124D27";
name = Regular;
paths = (
{
closed = 1;
nodes = (
"948 259 OFFCURVE",
"815 -26 OFFCURVE",
"466 -26 CURVE SMOOTH",
"337 -26 OFFCURVE",
"216 9 OFFCURVE",
"167 62 CURVE",
"196 135 LINE",
"298 77 OFFCURVE",
"384 60 OFFCURVE",
"460 60 CURVE SMOOTH",
"688 60 OFFCURVE",
"836 227 OFFCURVE",
"851 443 CURVE",
"439 443 LINE",
"439 537 LINE",
"851 537 LINE",
"835 759 OFFCURVE",
"716 932 OFFCURVE",
"455 932 CURVE SMOOTH",
"347 932 OFFCURVE",
"268 897 OFFCURVE",
"193 852 CURVE",
"159 923 LINE",
"227 985 OFFCURVE",
"359 1016 OFFCURVE",
"453 1016 CURVE SMOOTH",
"843 1016 OFFCURVE",
"948 721 OFFCURVE",
"948 478 CURVE SMOOTH"
);
}
);
width = 1117;
}
);
unicode = 044D;
},
{
glyphname = uni044E;
layers = (
{
layerId = "9209D6FA-1952-4593-83C2-3566FC124D27";
name = Regular;
paths = (
{
closed = 1;
nodes = (
"1250 220 OFFCURVE",
"1159 -26 OFFCURVE",
"850 -26 CURVE SMOOTH",
"560 -26 OFFCURVE",
"445 178 OFFCURVE",
"440 451 CURVE",
"243 451 LINE",
"243 0 LINE",
"161 0 LINE",
"161 988 LINE",
"243 988 LINE",
"243 530 LINE",
"440 530 LINE",
"446 799 OFFCURVE",
"563 1016 OFFCURVE",
"855 1016 CURVE SMOOTH",
"1171 1016 OFFCURVE",
"1250 779 OFFCURVE",
"1250 493 CURVE SMOOTH"
);
},
{
closed = 1;
nodes = (
"539 274 OFFCURVE",
"612 60 OFFCURVE",
"855 60 CURVE SMOOTH",
"1092 60 OFFCURVE",
"1154 273 OFFCURVE",
"1154 491 CURVE SMOOTH",
"1154 715 OFFCURVE",
"1101 930 OFFCURVE",
"850 930 CURVE SMOOTH",
"609 930 OFFCURVE",
"539 703 OFFCURVE",
"539 486 CURVE SMOOTH"
);
}
);
width = 1421;
}
);
unicode = 044E;
},
{
glyphname = uni044F;
layers = (
{
layerId = "9209D6FA-1952-4593-83C2-3566FC124D27";
name = Regular;
paths = (
{
closed = 1;
nodes = (
"140 0 LINE",
"275 0 LINE",
"456 404 LINE",
"773 404 LINE",
"773 0 LINE",
"891 0 LINE",
"891 988 LINE",
"466 988 LINE SMOOTH",
"192 988 OFFCURVE",
"123 817 OFFCURVE",
"123 685 CURVE SMOOTH",
"123 582 OFFCURVE",
"177 453 OFFCURVE",
"338 410 CURVE"
);
},
{
closed = 1;
nodes = (
"432 487 LINE",
"290 487 OFFCURVE",
"245 559 OFFCURVE",
"245 685 CURVE SMOOTH",
"245 784 OFFCURVE",
"289 908 OFFCURVE",
"432 908 CURVE SMOOTH",
"773 908 LINE",
"773 487 LINE"
);
}
);
width = 1102;
}
);
unicode = 044F;
},
{
glyphname = uni0452;
layers = (
{
layerId = "9209D6FA-1952-4593-83C2-3566FC124D27";
name = Regular;
paths = (
{
closed = 1;
nodes = (
"742 -262 LINE",
"732 -142 LINE",
"765 -142 LINE SMOOTH",
"930 -142 OFFCURVE",
"951 -109 OFFCURVE",
"951 89 CURVE SMOOTH",
"951 332 LINE SMOOTH",
"951 560 OFFCURVE",
"920 677 OFFCURVE",
"739 677 CURVE SMOOTH",
"574 677 OFFCURVE",
"441 547 OFFCURVE",
"415 448 CURVE",
"415 0 LINE",
"275 0 LINE",
"275 1002 LINE",
"188 1002 LINE",
"188 1096 LINE",
"275 1096 LINE",
"275 1369 LINE",
"415 1369 LINE",
"415 1096 LINE",
"805 1096 LINE",
"805 1002 LINE",
"415 1002 LINE",
"415 627 LINE",
"500 737 OFFCURVE",
"609 804 OFFCURVE",
"753 804 CURVE SMOOTH",
"987 804 OFFCURVE",
"1093 661 OFFCURVE",
"1093 399 CURVE SMOOTH",
"1093 137 LINE SMOOTH",
"1093 -143 OFFCURVE",
"1074 -262 OFFCURVE",
"804 -262 CURVE SMOOTH"
);
}
);
width = 1247;
}
);
unicode = 0452;
},
{
glyphname = uni045B;
layers = (
{
layerId = "9209D6FA-1952-4593-83C2-3566FC124D27";
name = Regular;
paths = (
{
closed = 1;
nodes = (
"441 0 LINE",
"441 534 LINE",
"474 479 OFFCURVE",
"517 424 OFFCURVE",
"596 424 CURVE SMOOTH",
"743 424 OFFCURVE",
"769 377 OFFCURVE",
"769 163 CURVE SMOOTH",
"769 0 LINE",
"948 0 LINE",
"948 175 LINE SMOOTH",
"948 418 OFFCURVE",
"854 535 OFFCURVE",
"624 535 CURVE SMOOTH",
"499 535 OFFCURVE",
"442 543 OFFCURVE",
"441 596 CURVE",
"441 927 LINE",
"761 927 LINE",
"761 1020 LINE",
"404 1020 LINE",
"404 1324 LINE",
"264 1324 LINE",
"264 1020 LINE",
"102 1020 LINE",
"102 926 LINE",
"264 926 LINE",
"264 0 LINE"
);
}
);
width = 1244;
}
);
unicode = 045B;
},
{
glyphname = uni0434.copy_1;
layers = (
{
layerId = "9209D6FA-1952-4593-83C2-3566FC124D27";
name = Regular;
paths = (
{
closed = 1;
nodes = (
"39 -275 LINE",
"39 120 LINE",
"127 120 LINE",
"196 175 OFFCURVE",
"232 306 OFFCURVE",
"253 451 CURVE SMOOTH",
"331 999 LINE",
"970 999 LINE",
"970 120 LINE",
"1049 120 LINE",
"1049 -275 LINE",
"901 -275 LINE",
"901 0 LINE",
"183 0 LINE",
"183 -275 LINE"
);
},
{
closed = 1;
nodes = (
"795 878 LINE",
"483 878 LINE",
"428 478 LINE SMOOTH",
"402 292 OFFCURVE",
"351 153 OFFCURVE",
"316 120 CURVE",
"795 120 LINE"
);
}
);
width = 1108;
}
);
},
{
glyphname = uni043B.copy_1;
layers = (
{
layerId = "9209D6FA-1952-4593-83C2-3566FC124D27";
name = Regular;
paths = (
{
closed = 1;
nodes = (
"804 0 LINE",
"804 870 LINE",
"493 870 LINE",
"434 454 LINE SMOOTH",
"393 167 OFFCURVE",
"333 -14 OFFCURVE",
"62 -14 CURVE",
"48 118 LINE",
"192 118 OFFCURVE",
"227 187 OFFCURVE",
"268 480 CURVE SMOOTH",
"341 999 LINE",
"979 999 LINE",
"979 0 LINE"
);
}
);
width = 1128;
}
);
},
{
glyphname = uni043C.copy_1;
layers = (
{
layerId = "9209D6FA-1952-4593-83C2-3566FC124D27";
name = Regular;
paths = (
{
closed = 1;
nodes = (
"870 999 LINE",
"1022 999 LINE",
"1022 0 LINE",
"869 0 LINE",
"869 711 LINE",
"640 205 LINE",
"543 205 LINE",
"302 711 LINE",
"302 0 LINE",
"149 0 LINE",
"149 999 LINE",
"302 999 LINE",
"585 385 LINE"
);
}
);
width = 1171;
}
);
},
{
glyphname = uni043D.copy_1;
layers = (
{
layerId = "9209D6FA-1952-4593-83C2-3566FC124D27";
name = Regular;
paths = (
{
closed = 1;
nodes = (
"800 594 LINE",
"800 999 LINE",
"975 999 LINE",
"975 0 LINE",
"800 0 LINE",
"800 471 LINE",
"305 471 LINE",
"305 0 LINE",
"130 0 LINE",
"130 999 LINE",
"305 999 LINE",
"305 594 LINE"
);
}
);
width = 1104;
}
);
},
{
glyphname = uni044C.copy_1;
layers = (
{
layerId = "9209D6FA-1952-4593-83C2-3566FC124D27";
name = Regular;
paths = (
{
closed = 1;
nodes = (
"302 999 LINE",
"302 635 LINE",
"504 635 LINE SMOOTH",
"748 635 OFFCURVE",
"849 490 OFFCURVE",
"849 326 CURVE SMOOTH",
"849 162 OFFCURVE",
"754 0 OFFCURVE",
"510 0 CURVE SMOOTH",
"128 0 LINE",
"128 999 LINE"
);
},
{
closed = 1;
nodes = (
"302 511 LINE",
"302 122 LINE",
"512 122 LINE SMOOTH",
"632 122 OFFCURVE",
"675 239 OFFCURVE",
"675 329 CURVE SMOOTH",
"675 419 OFFCURVE",
"626 511 OFFCURVE",
"506 511 CURVE SMOOTH"
);
}
);
width = 940;
}
);
},
{
glyphname = uni045B.copy_1;
layers = (
{
layerId = "9209D6FA-1952-4593-83C2-3566FC124D27";
name = Regular;
paths = (
{
closed = 1;
nodes = (
"366 0 LINE",
"366 502 LINE",
"395 504 OFFCURVE",
"470 519 OFFCURVE",
"576 519 CURVE SMOOTH",
"727 519 OFFCURVE",
"754 451 OFFCURVE",
"754 233 CURVE SMOOTH",
"754 0 LINE",
"928 0 LINE",
"928 269 LINE SMOOTH",
"928 520 OFFCURVE",
"830 650 OFFCURVE",
"598 650 CURVE SMOOTH",
"473 650 OFFCURVE",
"398 633 OFFCURVE",
"366 630 CURVE",
"366 954 LINE",
"704 954 LINE",
"704 1060 LINE",
"345 1060 LINE",
"345 1347 LINE",
"192 1347 LINE",
"192 1060 LINE",
"64 1060 LINE",
"64 954 LINE",
"192 954 LINE",
"192 0 LINE"
);
}
);
width = 1128;
}
);
},
{
glyphname = Alpha;
layers = (
{
anchors = (
{
name = top;
position = "{728, 1349}";
}
);
layerId = "9209D6FA-1952-4593-83C2-3566FC124D27";
name = Regular;
paths = (
{
closed = 1;
nodes = (
"706 1237 OFFCURVE",
"456 504 OFFCURVE",
"472 550 CURVE",
"984 550 LINE",
"999 508 OFFCURVE",
"725 1227 OFFCURVE",
"714 1273 CURVE"
);
},
{
closed = 1;
nodes = (
"1202 0 LINE",
"1026 471 LINE",
"426 471 LINE",
"241 0 LINE",
"163 0 LINE",
"668 1349 LINE",
"765 1349 LINE",
"1274 0 LINE"
);
}
);
width = 1457;
}
);
unicode = 0391;
},
{
glyphname = Beta;
layers = (
{
layerId = "9209D6FA-1952-4593-83C2-3566FC124D27";
name = Regular;
paths = (
{
closed = 1;
nodes = (
"150 0 LINE",
"150 1349 LINE",
"475 1349 LINE SMOOTH",
"824 1349 OFFCURVE",
"978 1246 OFFCURVE",
"978 1025 CURVE SMOOTH",
"978 969 OFFCURVE",
"980 776 OFFCURVE",
"722 712 CURVE",
"943 687 OFFCURVE",
"1029 539 OFFCURVE",
"1029 376 CURVE SMOOTH",
"1029 153 OFFCURVE",
"906 0 OFFCURVE",
"570 0 CURVE SMOOTH"
);
},
{
closed = 1;
nodes = (
"210 665 LINE",
"210 69 LINE",
"555 69 LINE SMOOTH",
"818 69 OFFCURVE",
"957 169 OFFCURVE",
"957 374 CURVE SMOOTH",
"957 599 OFFCURVE",
"792 665 OFFCURVE",
"493 665 CURVE SMOOTH"
);
},
{
closed = 1;
nodes = (
"210 1273 LINE",
"210 750 LINE",
"569 750 LINE SMOOTH",
"761 750 OFFCURVE",
"899 801 OFFCURVE",
"899 1014 CURVE SMOOTH",
"899 1217 OFFCURVE",
"744 1273 OFFCURVE",
"486 1273 CURVE SMOOTH"
);
}
);
width = 1225;
}
);
unicode = 0392;
},
{
glyphname = Gamma;
layers = (
{
layerId = "9209D6FA-1952-4593-83C2-3566FC124D27";
name = Regular;
paths = (
{
closed = 1;
nodes = (
"298 1220 LINE",
"298 0 LINE",
"136 0 LINE",
"136 1361 LINE",
"930 1361 LINE",
"916 1220 LINE"
);
}
);
width = 1005;
}
);
unicode = 0393;
},
{
glyphname = Delta;
layers = (
{
layerId = "9209D6FA-1952-4593-83C2-3566FC124D27";
name = Regular;
paths = (
{
closed = 1;
nodes = (
"170 0 LINE",
"692 1352 LINE",
"821 1352 LINE",
"1344 0 LINE"
);
},
{
closed = 1;
nodes = (
"1174 111 LINE",
"755 1226 LINE",
"342 111 LINE"
);
}
);
width = 1525;
}
);
unicode = 0394;
},
{
glyphname = Epsilon;
layers = (
{
anchors = (
{
name = top;
position = "{561, 1349}";
}
);
layerId = "9209D6FA-1952-4593-83C2-3566FC124D27";
name = Regular;
paths = (
{
closed = 1;
nodes = (
"232 1263 LINE",
"232 740 LINE",
"874 740 LINE",
"874 651 LINE",
"232 651 LINE",
"232 86 LINE",
"940 86 LINE",
"933 0 LINE",
"142 0 LINE",
"142 1349 LINE",
"947 1349 LINE",
"943 1263 LINE"
);
}
);
width = 1123;
}
);
unicode = 0395;
},
{
glyphname = Zeta;
layers = (
{
layerId = "9209D6FA-1952-4593-83C2-3566FC124D27";
name = Regular;
paths = (
{
closed = 1;
nodes = (
"170 1349 LINE",
"1036 1349 LINE",
"1036 1279 LINE",
"242 87 LINE",
"1042 87 LINE",
"1035 0 LINE",
"142 0 LINE",
"142 92 LINE",
"919 1261 LINE",
"171 1261 LINE"
);
}
);
width = 1234;
}
);
unicode = 0396;
},
{
glyphname = Eta;
layers = (
{
layerId = "9209D6FA-1952-4593-83C2-3566FC124D27";
name = Regular;
paths = (
{
closed = 1;
nodes = (
"1046 744 LINE",
"1046 1349 LINE",
"1136 1349 LINE",
"1136 0 LINE",
"1046 0 LINE",
"1046 664 LINE",
"230 664 LINE",
"230 0 LINE",
"141 0 LINE",
"141 1349 LINE",
"230 1349 LINE",
"230 744 LINE"
);
}
);
width = 1307;
}
);
unicode = 0397;
},
{
glyphname = Theta;
layers = (
{
layerId = "9209D6FA-1952-4593-83C2-3566FC124D27";
name = Regular;
paths = (
{
closed = 1;
nodes = (
"346 542 OFFCURVE",
"307 485 OFFCURVE",
"229 485 CURVE SMOOTH",
"152 485 OFFCURVE",
"113 542 OFFCURVE",
"113 600 CURVE SMOOTH",
"113 658 OFFCURVE",
"152 715 OFFCURVE",
"229 715 CURVE SMOOTH",
"307 715 OFFCURVE",
"346 658 OFFCURVE",
"346 600 CURVE SMOOTH"
);
}
);
width = 484;
}
);
unicode = 0398;
},
{
glyphname = Iota;
layers = (
{
layerId = "9209D6FA-1952-4593-83C2-3566FC124D27";
name = Regular;
paths = (
{
closed = 1;
nodes = (
"141 0 LINE",
"141 1349 LINE",
"230 1349 LINE",
"230 0 LINE"
);
}
);
width = 385;
}
);
unicode = 0399;
},
{
glyphname = Lambda;
layers = (
{
layerId = "9209D6FA-1952-4593-83C2-3566FC124D27";
name = Regular;
paths = (
{
closed = 1;
nodes = (
"1192 0 LINE",
"756 1210 LINE",
"328 0 LINE",
"171 0 LINE",
"676 1355 LINE",
"838 1355 LINE",
"1344 0 LINE"
);
}
);
width = 1525;
}
);
unicode = 039B;
},
{
glyphname = Mu;
layers = (
{
layerId = "9209D6FA-1952-4593-83C2-3566FC124D27";
name = Regular;
paths = (
{
closed = 1;
nodes = (
"1319 1349 LINE",
"1441 1349 LINE",
"1441 0 LINE",
"1357 0 LINE",
"1357 910 LINE",
"1365 1240 LINE",
"1315 1113 LINE",
"844 79 LINE",
"739 79 LINE",
"249 1116 LINE",
"200 1243 LINE",
"214 905 LINE",
"214 0 LINE",
"124 0 LINE",
"124 1349 LINE",
"255 1349 LINE",
"784 186 LINE"
);
}
);
width = 1603;
}
);
unicode = 039C;
},
{
glyphname = Nu;
layers = (
{
layerId = "9209D6FA-1952-4593-83C2-3566FC124D27";
name = Regular;
paths = (
{
closed = 1;
nodes = (
"682 725 OFFCURVE",
"705 739 OFFCURVE",
"1157 110 CURVE",
"1158 60 OFFCURVE",
"1161 322 OFFCURVE",
"1161 393 CURVE SMOOTH",
"1161 1349 LINE",
"1214 1349 LINE",
"1214 0 LINE",
"1133 0 LINE",
"679 625 OFFCURVE",
"655 617 OFFCURVE",
"206 1247 CURVE",
"206 1247 OFFCURVE",
"194 1200 OFFCURVE",
"194 1034 CURVE SMOOTH",
"194 0 LINE",
"141 0 LINE",
"141 1349 LINE",
"226 1349 LINE"
);
}
);
width = 1386;
}
);
unicode = 039D;
},
{
glyphname = Xi;
layers = (
{
layerId = "9209D6FA-1952-4593-83C2-3566FC124D27";
name = Regular;
paths = (
{
closed = 1;
nodes = (
"346 542 OFFCURVE",
"307 485 OFFCURVE",
"229 485 CURVE SMOOTH",
"152 485 OFFCURVE",
"113 542 OFFCURVE",
"113 600 CURVE SMOOTH",
"113 658 OFFCURVE",
"152 715 OFFCURVE",
"229 715 CURVE SMOOTH",
"307 715 OFFCURVE",
"346 658 OFFCURVE",
"346 600 CURVE SMOOTH"
);
}
);
width = 484;
}
);
unicode = 039E;
},
{
glyphname = Omicron;
layers = (
{
layerId = "9209D6FA-1952-4593-83C2-3566FC124D27";
name = Regular;
paths = (
{
closed = 1;
nodes = (
"1400 268 OFFCURVE",
"1190 -23 OFFCURVE",
"767 -23 CURVE SMOOTH",
"335 -23 OFFCURVE",
"132 259 OFFCURVE",
"132 666 CURVE SMOOTH",
"132 1087 OFFCURVE",
"347 1371 OFFCURVE",
"768 1371 CURVE SMOOTH",
"1176 1371 OFFCURVE",
"1400 1083 OFFCURVE",
"1400 664 CURVE SMOOTH"
);
},
{
closed = 1;
nodes = (
"220 319 OFFCURVE",
"395 56 OFFCURVE",
"766 56 CURVE SMOOTH",
"1137 56 OFFCURVE",
"1310 319 OFFCURVE",
"1310 666 CURVE SMOOTH",
"1310 1029 OFFCURVE",
"1127 1293 OFFCURVE",
"767 1293 CURVE SMOOTH",
"408 1293 OFFCURVE",
"220 1031 OFFCURVE",
"220 666 CURVE SMOOTH"
);
}
);
width = 1571;
}
);
unicode = 039F;
},
{
glyphname = Pi;
layers = (
{
layerId = "9209D6FA-1952-4593-83C2-3566FC124D27";
name = Regular;
paths = (
{
closed = 1;
nodes = (
"1071 0 LINE",
"1071 1228 LINE",
"295 1228 LINE",
"295 0 LINE",
"144 0 LINE",
"144 1355 LINE",
"1220 1355 LINE",
"1220 0 LINE"
);
}
);
width = 1374;
}
);
unicode = 03A0;
},
{
glyphname = Rho;
layers = (
{
layerId = "9209D6FA-1952-4593-83C2-3566FC124D27";
name = Regular;
paths = (
{
closed = 1;
nodes = (
"142 0 LINE",
"142 1349 LINE",
"506 1349 LINE SMOOTH",
"733 1349 OFFCURVE",
"927 1237 OFFCURVE",
"927 1019 CURVE SMOOTH",
"927 758 OFFCURVE",
"767 626 OFFCURVE",
"469 626 CURVE SMOOTH",
"410 626 OFFCURVE",
"302 636 OFFCURVE",
"232 642 CURVE",
"232 0 LINE"
);
},
{
closed = 1;
nodes = (
"211 732 OFFCURVE",
"429 715 OFFCURVE",
"503 715 CURVE SMOOTH",
"704 715 OFFCURVE",
"837 795 OFFCURVE",
"837 1019 CURVE SMOOTH",
"837 1194 OFFCURVE",
"672 1253 OFFCURVE",
"498 1253 CURVE SMOOTH",
"232 1253 LINE",
"232 731 LINE"
);
}
);
width = 1154;
}
);
unicode = 03A1;
},
{
glyphname = Sigma;
layers = (
{
layerId = "9209D6FA-1952-4593-83C2-3566FC124D27";
name = Regular;
paths = (
{
closed = 1;
nodes = (
"232 1263 LINE",
"232 740 LINE",
"874 740 LINE",
"874 651 LINE",
"232 651 LINE",
"232 86 LINE",
"940 86 LINE",
"933 0 LINE",
"142 0 LINE",
"142 1349 LINE",
"947 1349 LINE",
"943 1263 LINE"
);
}
);
width = 1123;
}
);
unicode = 03A3;
},
{
glyphname = Tau;
layers = (
{
layerId = "9209D6FA-1952-4593-83C2-3566FC124D27";
name = Regular;
paths = (
{
closed = 1;
nodes = (
"1062 1349 LINE",
"1062 1263 LINE",
"627 1263 LINE",
"627 0 LINE",
"537 0 LINE",
"537 1263 LINE",
"98 1263 LINE",
"98 1349 LINE"
);
}
);
width = 1260;
}
);
unicode = 03A4;
},
{
glyphname = Upsilon;
layers = (
{
layerId = "9209D6FA-1952-4593-83C2-3566FC124D27";
name = Regular;
paths = (
{
closed = 1;
nodes = (
"652 615 LINE",
"1089 1349 LINE",
"1183 1349 LINE",
"709 538 LINE",
"709 0 LINE",
"598 0 LINE",
"598 534 LINE",
"123 1349 LINE",
"216 1349 LINE"
);
}
);
width = 1359;
}
);
unicode = 03A5;
},
{
glyphname = Phi;
layers = (
{
layerId = "9209D6FA-1952-4593-83C2-3566FC124D27";
name = Regular;
paths = (
{
closed = 1;
nodes = (
"871 0 LINE",
"721 0 LINE",
"721 156 LINE",
"328 181 OFFCURVE",
"126 409 OFFCURVE",
"126 701 CURVE SMOOTH",
"126 999 OFFCURVE",
"343 1207 OFFCURVE",
"721 1231 CURVE",
"721 1355 LINE",
"871 1355 LINE",
"871 1231 LINE",
"1256 1208 OFFCURVE",
"1468 999 OFFCURVE",
"1468 701 CURVE SMOOTH",
"1468 407 OFFCURVE",
"1265 178 OFFCURVE",
"871 156 CURVE"
);
},
{
closed = 1;
nodes = (
"287 483 OFFCURVE",
"422 304 OFFCURVE",
"721 279 CURVE",
"721 1108 LINE",
"433 1084 OFFCURVE",
"287 926 OFFCURVE",
"287 701 CURVE SMOOTH"
);
},
{
closed = 1;
nodes = (
"1308 927 OFFCURVE",
"1163 1085 OFFCURVE",
"871 1108 CURVE",
"871 279 LINE",
"1176 303 OFFCURVE",
"1308 483 OFFCURVE",
"1308 701 CURVE SMOOTH"
);
}
);
width = 1611;
}
);
unicode = 03A6;
},
{
glyphname = Chi;
layers = (
{
layerId = "9209D6FA-1952-4593-83C2-3566FC124D27";
name = Regular;
paths = (
{
closed = 1;
nodes = (
"683 677 LINE",
"1140 1349 LINE",
"1032 1349 LINE",
"637 790 LINE",
"239 1349 LINE",
"142 1349 LINE",
"604 674 LINE",
"166 0 LINE",
"269 0 LINE",
"647 564 LINE",
"1031 0 LINE",
"1123 0 LINE"
);
}
);
width = 1358;
}
);
unicode = 03A7;
},
{
glyphname = Psi;
layers = (
{
layerId = "9209D6FA-1952-4593-83C2-3566FC124D27";
name = Regular;
paths = (
{
closed = 1;
nodes = (
"346 542 OFFCURVE",
"307 485 OFFCURVE",
"229 485 CURVE SMOOTH",
"152 485 OFFCURVE",
"113 542 OFFCURVE",
"113 600 CURVE SMOOTH",
"113 658 OFFCURVE",
"152 715 OFFCURVE",
"229 715 CURVE SMOOTH",
"307 715 OFFCURVE",
"346 658 OFFCURVE",
"346 600 CURVE SMOOTH"
);
}
);
width = 484;
}
);
unicode = 03A8;
},
{
glyphname = Omega;
layers = (
{
anchors = (
{
name = topleft;
position = "{20, 1346}";
}
);
layerId = "9209D6FA-1952-4593-83C2-3566FC124D27";
name = Regular;
paths = (
{
closed = 1;
nodes = (
"1395 257 OFFCURVE",
"1164 -20 OFFCURVE",
"754 -20 CURVE SMOOTH",
"339 -20 OFFCURVE",
"114 251 OFFCURVE",
"114 668 CURVE SMOOTH",
"114 1095 OFFCURVE",
"347 1366 OFFCURVE",
"755 1366 CURVE SMOOTH",
"1156 1366 OFFCURVE",
"1395 1092 OFFCURVE",
"1395 667 CURVE SMOOTH"
);
},
{
closed = 1;
nodes = (
"288 349 OFFCURVE",
"436 118 OFFCURVE",
"754 118 CURVE SMOOTH",
"1072 118 OFFCURVE",
"1220 349 OFFCURVE",
"1220 667 CURVE SMOOTH",
"1220 997 OFFCURVE",
"1066 1228 OFFCURVE",
"755 1228 CURVE SMOOTH",
"444 1228 OFFCURVE",
"288 998 OFFCURVE",
"288 667 CURVE SMOOTH"
);
}
);
width = 1511;
}
);
unicode = 03A9;
},
{
glyphname = Alphatonos;
layers = (
{
layerId = "9209D6FA-1952-4593-83C2-3566FC124D27";
name = Regular;
paths = (
{
closed = 1;
nodes = (
"346 542 OFFCURVE",
"307 485 OFFCURVE",
"229 485 CURVE SMOOTH",
"152 485 OFFCURVE",
"113 542 OFFCURVE",
"113 600 CURVE SMOOTH",
"113 658 OFFCURVE",
"152 715 OFFCURVE",
"229 715 CURVE SMOOTH",
"307 715 OFFCURVE",
"346 658 OFFCURVE",
"346 600 CURVE SMOOTH"
);
}
);
width = 484;
}
);
unicode = 0386;
},
{
glyphname = Epsilontonos;
layers = (
{
layerId = "9209D6FA-1952-4593-83C2-3566FC124D27";
name = Regular;
paths = (
{
closed = 1;
nodes = (
"346 542 OFFCURVE",
"307 485 OFFCURVE",
"229 485 CURVE SMOOTH",
"152 485 OFFCURVE",
"113 542 OFFCURVE",
"113 600 CURVE SMOOTH",
"113 658 OFFCURVE",
"152 715 OFFCURVE",
"229 715 CURVE SMOOTH",
"307 715 OFFCURVE",
"346 658 OFFCURVE",
"346 600 CURVE SMOOTH"
);
}
);
width = 484;
}
);
unicode = 0388;
},
{
glyphname = Etatonos;
layers = (
{
layerId = "9209D6FA-1952-4593-83C2-3566FC124D27";
name = Regular;
paths = (
{
closed = 1;
nodes = (
"346 542 OFFCURVE",
"307 485 OFFCURVE",
"229 485 CURVE SMOOTH",
"152 485 OFFCURVE",
"113 542 OFFCURVE",
"113 600 CURVE SMOOTH",
"113 658 OFFCURVE",
"152 715 OFFCURVE",
"229 715 CURVE SMOOTH",
"307 715 OFFCURVE",
"346 658 OFFCURVE",
"346 600 CURVE SMOOTH"
);
}
);
width = 484;
}
);
unicode = 0389;
},
{
glyphname = Iotatonos;
layers = (
{
layerId = "9209D6FA-1952-4593-83C2-3566FC124D27";
name = Regular;
paths = (
{
closed = 1;
nodes = (
"346 542 OFFCURVE",
"307 485 OFFCURVE",
"229 485 CURVE SMOOTH",
"152 485 OFFCURVE",
"113 542 OFFCURVE",
"113 600 CURVE SMOOTH",
"113 658 OFFCURVE",
"152 715 OFFCURVE",
"229 715 CURVE SMOOTH",
"307 715 OFFCURVE",
"346 658 OFFCURVE",
"346 600 CURVE SMOOTH"
);
}
);
width = 484;
}
);
unicode = 038A;
},
{
glyphname = Omicrontonos;
layers = (
{
layerId = "9209D6FA-1952-4593-83C2-3566FC124D27";
name = Regular;
paths = (
{
closed = 1;
nodes = (
"346 542 OFFCURVE",
"307 485 OFFCURVE",
"229 485 CURVE SMOOTH",
"152 485 OFFCURVE",
"113 542 OFFCURVE",
"113 600 CURVE SMOOTH",
"113 658 OFFCURVE",
"152 715 OFFCURVE",
"229 715 CURVE SMOOTH",
"307 715 OFFCURVE",
"346 658 OFFCURVE",
"346 600 CURVE SMOOTH"
);
}
);
width = 484;
}
);
unicode = 038C;
},
{
glyphname = Upsilontonos;
layers = (
{
layerId = "9209D6FA-1952-4593-83C2-3566FC124D27";
name = Regular;
paths = (
{
closed = 1;
nodes = (
"346 542 OFFCURVE",
"307 485 OFFCURVE",
"229 485 CURVE SMOOTH",
"152 485 OFFCURVE",
"113 542 OFFCURVE",
"113 600 CURVE SMOOTH",
"113 658 OFFCURVE",
"152 715 OFFCURVE",
"229 715 CURVE SMOOTH",
"307 715 OFFCURVE",
"346 658 OFFCURVE",
"346 600 CURVE SMOOTH"
);
}
);
width = 484;
}
);
unicode = 038E;
},
{
glyphname = Omegatonos;
layers = (
{
layerId = "9209D6FA-1952-4593-83C2-3566FC124D27";
name = Regular;
paths = (
{
closed = 1;
nodes = (
"346 542 OFFCURVE",
"307 485 OFFCURVE",
"229 485 CURVE SMOOTH",
"152 485 OFFCURVE",
"113 542 OFFCURVE",
"113 600 CURVE SMOOTH",
"113 658 OFFCURVE",
"152 715 OFFCURVE",
"229 715 CURVE SMOOTH",
"307 715 OFFCURVE",
"346 658 OFFCURVE",
"346 600 CURVE SMOOTH"
);
}
);
width = 484;
}
);
unicode = 038F;
},
{
glyphname = alpha;
layers = (
{
anchors = (
{
name = top;
position = "{243, 986}";
}
);
layerId = "9209D6FA-1952-4593-83C2-3566FC124D27";
name = Regular;
paths = (
{
closed = 1;
nodes = (
"346 542 OFFCURVE",
"307 485 OFFCURVE",
"229 485 CURVE SMOOTH",
"152 485 OFFCURVE",
"113 542 OFFCURVE",
"113 600 CURVE SMOOTH",
"113 658 OFFCURVE",
"152 715 OFFCURVE",
"229 715 CURVE SMOOTH",
"307 715 OFFCURVE",
"346 658 OFFCURVE",
"346 600 CURVE SMOOTH"
);
}
);
width = 484;
}
);
unicode = 03B1;
},
{
glyphname = beta;
layers = (
{
layerId = "9209D6FA-1952-4593-83C2-3566FC124D27";
name = Regular;
paths = (
{
closed = 1;
nodes = (
"346 542 OFFCURVE",
"307 485 OFFCURVE",
"229 485 CURVE SMOOTH",
"152 485 OFFCURVE",
"113 542 OFFCURVE",
"113 600 CURVE SMOOTH",
"113 658 OFFCURVE",
"152 715 OFFCURVE",
"229 715 CURVE SMOOTH",
"307 715 OFFCURVE",
"346 658 OFFCURVE",
"346 600 CURVE SMOOTH"
);
}
);
width = 484;
}
);
unicode = 03B2;
},
{
glyphname = gamma;
layers = (
{
layerId = "9209D6FA-1952-4593-83C2-3566FC124D27";
name = Regular;
paths = (
{
closed = 1;
nodes = (
"346 542 OFFCURVE",
"307 485 OFFCURVE",
"229 485 CURVE SMOOTH",
"152 485 OFFCURVE",
"113 542 OFFCURVE",
"113 600 CURVE SMOOTH",
"113 658 OFFCURVE",
"152 715 OFFCURVE",
"229 715 CURVE SMOOTH",
"307 715 OFFCURVE",
"346 658 OFFCURVE",
"346 600 CURVE SMOOTH"
);
}
);
width = 484;
}
);
unicode = 03B3;
},
{
glyphname = delta;
layers = (
{
layerId = "9209D6FA-1952-4593-83C2-3566FC124D27";
name = Regular;
paths = (
{
closed = 1;
nodes = (
"346 542 OFFCURVE",
"307 485 OFFCURVE",
"229 485 CURVE SMOOTH",
"152 485 OFFCURVE",
"113 542 OFFCURVE",
"113 600 CURVE SMOOTH",
"113 658 OFFCURVE",
"152 715 OFFCURVE",
"229 715 CURVE SMOOTH",
"307 715 OFFCURVE",
"346 658 OFFCURVE",
"346 600 CURVE SMOOTH"
);
}
);
width = 484;
}
);
unicode = 03B4;
},
{
glyphname = epsilon;
layers = (
{
anchors = (
{
name = top;
position = "{243, 986}";
}
);
layerId = "9209D6FA-1952-4593-83C2-3566FC124D27";
name = Regular;
paths = (
{
closed = 1;
nodes = (
"346 542 OFFCURVE",
"307 485 OFFCURVE",
"229 485 CURVE SMOOTH",
"152 485 OFFCURVE",
"113 542 OFFCURVE",
"113 600 CURVE SMOOTH",
"113 658 OFFCURVE",
"152 715 OFFCURVE",
"229 715 CURVE SMOOTH",
"307 715 OFFCURVE",
"346 658 OFFCURVE",
"346 600 CURVE SMOOTH"
);
}
);
width = 484;
}
);
unicode = 03B5;
},
{
glyphname = zeta;
layers = (
{
layerId = "9209D6FA-1952-4593-83C2-3566FC124D27";
name = Regular;
paths = (
{
closed = 1;
nodes = (
"346 542 OFFCURVE",
"307 485 OFFCURVE",
"229 485 CURVE SMOOTH",
"152 485 OFFCURVE",
"113 542 OFFCURVE",
"113 600 CURVE SMOOTH",
"113 658 OFFCURVE",
"152 715 OFFCURVE",
"229 715 CURVE SMOOTH",
"307 715 OFFCURVE",
"346 658 OFFCURVE",
"346 600 CURVE SMOOTH"
);
}
);
width = 484;
}
);
unicode = 03B6;
},
{
glyphname = eta;
layers = (
{
anchors = (
{
name = top;
position = "{243, 986}";
}
);
layerId = "9209D6FA-1952-4593-83C2-3566FC124D27";
name = Regular;
paths = (
{
closed = 1;
nodes = (
"346 542 OFFCURVE",
"307 485 OFFCURVE",
"229 485 CURVE SMOOTH",
"152 485 OFFCURVE",
"113 542 OFFCURVE",
"113 600 CURVE SMOOTH",
"113 658 OFFCURVE",
"152 715 OFFCURVE",
"229 715 CURVE SMOOTH",
"307 715 OFFCURVE",
"346 658 OFFCURVE",
"346 600 CURVE SMOOTH"
);
}
);
width = 484;
}
);
unicode = 03B7;
},
{
glyphname = theta;
layers = (
{
layerId = "9209D6FA-1952-4593-83C2-3566FC124D27";
name = Regular;
paths = (
{
closed = 1;
nodes = (
"346 542 OFFCURVE",
"307 485 OFFCURVE",
"229 485 CURVE SMOOTH",
"152 485 OFFCURVE",
"113 542 OFFCURVE",
"113 600 CURVE SMOOTH",
"113 658 OFFCURVE",
"152 715 OFFCURVE",
"229 715 CURVE SMOOTH",
"307 715 OFFCURVE",
"346 658 OFFCURVE",
"346 600 CURVE SMOOTH"
);
}
);
width = 484;
}
);
unicode = 03B8;
},
{
glyphname = iota;
layers = (
{
anchors = (
{
name = top;
position = "{243, 986}";
}
);
layerId = "9209D6FA-1952-4593-83C2-3566FC124D27";
name = Regular;
paths = (
{
closed = 1;
nodes = (
"346 542 OFFCURVE",
"307 485 OFFCURVE",
"229 485 CURVE SMOOTH",
"152 485 OFFCURVE",
"113 542 OFFCURVE",
"113 600 CURVE SMOOTH",
"113 658 OFFCURVE",
"152 715 OFFCURVE",
"229 715 CURVE SMOOTH",
"307 715 OFFCURVE",
"346 658 OFFCURVE",
"346 600 CURVE SMOOTH"
);
}
);
width = 484;
}
);
unicode = 03B9;
},
{
glyphname = lambda;
layers = (
{
layerId = "9209D6FA-1952-4593-83C2-3566FC124D27";
name = Regular;
paths = (
{
closed = 1;
nodes = (
"346 542 OFFCURVE",
"307 485 OFFCURVE",
"229 485 CURVE SMOOTH",
"152 485 OFFCURVE",
"113 542 OFFCURVE",
"113 600 CURVE SMOOTH",
"113 658 OFFCURVE",
"152 715 OFFCURVE",
"229 715 CURVE SMOOTH",
"307 715 OFFCURVE",
"346 658 OFFCURVE",
"346 600 CURVE SMOOTH"
);
}
);
width = 484;
}
);
unicode = 03BB;
},
{
glyphname = mu;
layers = (
{
layerId = "9209D6FA-1952-4593-83C2-3566FC124D27";
name = Regular;
paths = (
{
closed = 1;
nodes = (
"344 544 OFFCURVE",
"304 484 OFFCURVE",
"223 484 CURVE SMOOTH",
"143 484 OFFCURVE",
"102 544 OFFCURVE",
"102 604 CURVE SMOOTH",
"102 664 OFFCURVE",
"143 724 OFFCURVE",
"223 724 CURVE SMOOTH",
"304 724 OFFCURVE",
"344 664 OFFCURVE",
"344 604 CURVE SMOOTH"
);
}
);
width = 451;
}
);
unicode = 03BC;
},
{
glyphname = nu;
layers = (
{
layerId = "9209D6FA-1952-4593-83C2-3566FC124D27";
name = Regular;
paths = (
{
closed = 1;
nodes = (
"346 542 OFFCURVE",
"307 485 OFFCURVE",
"229 485 CURVE SMOOTH",
"152 485 OFFCURVE",
"113 542 OFFCURVE",
"113 600 CURVE SMOOTH",
"113 658 OFFCURVE",
"152 715 OFFCURVE",
"229 715 CURVE SMOOTH",
"307 715 OFFCURVE",
"346 658 OFFCURVE",
"346 600 CURVE SMOOTH"
);
}
);
width = 484;
}
);
unicode = 03BD;
},
{
glyphname = xi;
layers = (
{
layerId = "9209D6FA-1952-4593-83C2-3566FC124D27";
name = Regular;
paths = (
{
closed = 1;
nodes = (
"346 542 OFFCURVE",
"307 485 OFFCURVE",
"229 485 CURVE SMOOTH",
"152 485 OFFCURVE",
"113 542 OFFCURVE",
"113 600 CURVE SMOOTH",
"113 658 OFFCURVE",
"152 715 OFFCURVE",
"229 715 CURVE SMOOTH",
"307 715 OFFCURVE",
"346 658 OFFCURVE",
"346 600 CURVE SMOOTH"
);
}
);
width = 484;
}
);
unicode = 03BE;
},
{
glyphname = omicron;
layers = (
{
anchors = (
{
name = top;
position = "{606, 986}";
}
);
layerId = "9209D6FA-1952-4593-83C2-3566FC124D27";
name = Regular;
paths = (
{
closed = 1;
nodes = (
"137 200 OFFCURVE",
"320 -23 OFFCURVE",
"598 -23 CURVE SMOOTH",
"865 -23 OFFCURVE",
"1052 203 OFFCURVE",
"1052 490 CURVE SMOOTH",
"1052 790 OFFCURVE",
"884 1005 OFFCURVE",
"591 1005 CURVE SMOOTH",
"306 1005 OFFCURVE",
"137 785 OFFCURVE",
"137 490 CURVE SMOOTH"
);
},
{
closed = 1;
nodes = (
"254 712 OFFCURVE",
"346 914 OFFCURVE",
"595 914 CURVE SMOOTH",
"842 914 OFFCURVE",
"935 712 OFFCURVE",
"935 487 CURVE SMOOTH",
"935 268 OFFCURVE",
"844 69 OFFCURVE",
"594 69 CURVE SMOOTH",
"345 69 OFFCURVE",
"254 268 OFFCURVE",
"254 488 CURVE SMOOTH"
);
}
);
width = 1213;
}
);
unicode = 03BF;
},
{
glyphname = rho;
layers = (
{
layerId = "9209D6FA-1952-4593-83C2-3566FC124D27";
name = Regular;
paths = (
{
closed = 1;
nodes = (
"130 985 LINE",
"242 985 LINE",
"255 788 LINE",
"307 938 OFFCURVE",
"439 1005 OFFCURVE",
"583 1005 CURVE SMOOTH",
"885 1005 OFFCURVE",
"1056 796 OFFCURVE",
"1056 481 CURVE SMOOTH",
"1056 189 OFFCURVE",
"861 -23 OFFCURVE",
"601 -23 CURVE SMOOTH",
"456 -23 OFFCURVE",
"306 53 OFFCURVE",
"241 160 CURVE",
"245 81 OFFCURVE",
"246 3 OFFCURVE",
"246 -81 CURVE SMOOTH",
"246 -441 LINE",
"130 -449 LINE"
);
},
{
closed = 1;
nodes = (
"247 244 OFFCURVE",
"319 60 OFFCURVE",
"588 60 CURVE SMOOTH",
"828 60 OFFCURVE",
"940 241 OFFCURVE",
"940 490 CURVE SMOOTH",
"940 726 OFFCURVE",
"837 920 OFFCURVE",
"592 920 CURVE SMOOTH",
"334 920 OFFCURVE",
"246 740 OFFCURVE",
"247 507 CURVE"
);
}
);
width = 1229;
}
);
unicode = 03C1;
},
{
glyphname = sigma;
layers = (
{
layerId = "9209D6FA-1952-4593-83C2-3566FC124D27";
name = Regular;
paths = (
{
closed = 1;
nodes = (
"346 542 OFFCURVE",
"307 485 OFFCURVE",
"229 485 CURVE SMOOTH",
"152 485 OFFCURVE",
"113 542 OFFCURVE",
"113 600 CURVE SMOOTH",
"113 658 OFFCURVE",
"152 715 OFFCURVE",
"229 715 CURVE SMOOTH",
"307 715 OFFCURVE",
"346 658 OFFCURVE",
"346 600 CURVE SMOOTH"
);
}
);
width = 484;
}
);
unicode = 03C3;
},
{
glyphname = tau;
layers = (
{
layerId = "9209D6FA-1952-4593-83C2-3566FC124D27";
name = Regular;
paths = (
{
closed = 1;
nodes = (
"346 542 OFFCURVE",
"307 485 OFFCURVE",
"229 485 CURVE SMOOTH",
"152 485 OFFCURVE",
"113 542 OFFCURVE",
"113 600 CURVE SMOOTH",
"113 658 OFFCURVE",
"152 715 OFFCURVE",
"229 715 CURVE SMOOTH",
"307 715 OFFCURVE",
"346 658 OFFCURVE",
"346 600 CURVE SMOOTH"
);
}
);
width = 484;
}
);
unicode = 03C4;
},
{
glyphname = upsilon;
layers = (
{
anchors = (
{
name = top;
position = "{243, 986}";
}
);
layerId = "9209D6FA-1952-4593-83C2-3566FC124D27";
name = Regular;
paths = (
{
closed = 1;
nodes = (
"346 542 OFFCURVE",
"307 485 OFFCURVE",
"229 485 CURVE SMOOTH",
"152 485 OFFCURVE",
"113 542 OFFCURVE",
"113 600 CURVE SMOOTH",
"113 658 OFFCURVE",
"152 715 OFFCURVE",
"229 715 CURVE SMOOTH",
"307 715 OFFCURVE",
"346 658 OFFCURVE",
"346 600 CURVE SMOOTH"
);
}
);
width = 484;
}
);
unicode = 03C5;
},
{
glyphname = phi;
layers = (
{
layerId = "9209D6FA-1952-4593-83C2-3566FC124D27";
name = Regular;
paths = (
{
closed = 1;
nodes = (
"346 542 OFFCURVE",
"307 485 OFFCURVE",
"229 485 CURVE SMOOTH",
"152 485 OFFCURVE",
"113 542 OFFCURVE",
"113 600 CURVE SMOOTH",
"113 658 OFFCURVE",
"152 715 OFFCURVE",
"229 715 CURVE SMOOTH",
"307 715 OFFCURVE",
"346 658 OFFCURVE",
"346 600 CURVE SMOOTH"
);
}
);
width = 484;
}
);
unicode = 03C6;
},
{
glyphname = chi;
layers = (
{
layerId = "9209D6FA-1952-4593-83C2-3566FC124D27";
name = Regular;
paths = (
{
closed = 1;
nodes = (
"596 580 LINE",
"903 985 LINE",
"1026 985 LINE",
"648 496 LINE",
"1033 0 LINE",
"925 0 LINE",
"598 423 LINE",
"275 0 LINE",
"168 0 LINE",
"544 500 LINE",
"180 985 LINE",
"286 985 LINE"
);
}
);
width = 1246;
}
);
unicode = 03C7;
},
{
glyphname = psi;
layers = (
{
layerId = "9209D6FA-1952-4593-83C2-3566FC124D27";
name = Regular;
paths = (
{
closed = 1;
nodes = (
"346 542 OFFCURVE",
"307 485 OFFCURVE",
"229 485 CURVE SMOOTH",
"152 485 OFFCURVE",
"113 542 OFFCURVE",
"113 600 CURVE SMOOTH",
"113 658 OFFCURVE",
"152 715 OFFCURVE",
"229 715 CURVE SMOOTH",
"307 715 OFFCURVE",
"346 658 OFFCURVE",
"346 600 CURVE SMOOTH"
);
}
);
width = 484;
}
);
unicode = 03C8;
},
{
glyphname = omega;
layers = (
{
anchors = (
{
name = top;
position = "{243, 986}";
}
);
layerId = "9209D6FA-1952-4593-83C2-3566FC124D27";
name = Regular;
paths = (
{
closed = 1;
nodes = (
"346 542 OFFCURVE",
"307 485 OFFCURVE",
"229 485 CURVE SMOOTH",
"152 485 OFFCURVE",
"113 542 OFFCURVE",
"113 600 CURVE SMOOTH",
"113 658 OFFCURVE",
"152 715 OFFCURVE",
"229 715 CURVE SMOOTH",
"307 715 OFFCURVE",
"346 658 OFFCURVE",
"346 600 CURVE SMOOTH"
);
}
);
width = 484;
}
);
unicode = 03C9;
},
{
glyphname = iotatonos;
layers = (
{
layerId = "9209D6FA-1952-4593-83C2-3566FC124D27";
name = Regular;
paths = (
{
closed = 1;
nodes = (
"346 542 OFFCURVE",
"307 485 OFFCURVE",
"229 485 CURVE SMOOTH",
"152 485 OFFCURVE",
"113 542 OFFCURVE",
"113 600 CURVE SMOOTH",
"113 658 OFFCURVE",
"152 715 OFFCURVE",
"229 715 CURVE SMOOTH",
"307 715 OFFCURVE",
"346 658 OFFCURVE",
"346 600 CURVE SMOOTH"
);
}
);
width = 484;
}
);
unicode = 03AF;
},
{
glyphname = iotadieresis;
layers = (
{
layerId = "9209D6FA-1952-4593-83C2-3566FC124D27";
name = Regular;
paths = (
{
closed = 1;
nodes = (
"645 542 OFFCURVE",
"607 485 OFFCURVE",
"529 485 CURVE SMOOTH",
"452 485 OFFCURVE",
"413 542 OFFCURVE",
"413 600 CURVE SMOOTH",
"413 658 OFFCURVE",
"452 715 OFFCURVE",
"529 715 CURVE SMOOTH",
"607 715 OFFCURVE",
"645 658 OFFCURVE",
"645 600 CURVE SMOOTH"
);
},
{
closed = 1;
nodes = (
"325 1314 LINE",
"325 1155 LINE",
"225 1155 LINE",
"225 1314 LINE"
);
},
{
closed = 1;
nodes = (
"665 1314 LINE",
"665 1155 LINE",
"564 1155 LINE",
"564 1314 LINE"
);
}
);
width = 915;
}
);
unicode = 03CA;
},
{
glyphname = iotadieresistonos;
layers = (
{
layerId = "9209D6FA-1952-4593-83C2-3566FC124D27";
name = Regular;
paths = (
{
closed = 1;
nodes = (
"356 883 OFFCURVE",
"318 826 OFFCURVE",
"240 826 CURVE SMOOTH",
"163 826 OFFCURVE",
"124 883 OFFCURVE",
"124 941 CURVE SMOOTH",
"124 999 OFFCURVE",
"163 1057 OFFCURVE",
"240 1057 CURVE SMOOTH",
"318 1057 OFFCURVE",
"356 999 OFFCURVE",
"356 941 CURVE SMOOTH"
);
},
{
closed = 1;
nodes = (
"444 542 OFFCURVE",
"405 485 OFFCURVE",
"327 485 CURVE SMOOTH",
"250 485 OFFCURVE",
"211 542 OFFCURVE",
"211 600 CURVE SMOOTH",
"211 658 OFFCURVE",
"250 715 OFFCURVE",
"327 715 CURVE SMOOTH",
"405 715 OFFCURVE",
"444 658 OFFCURVE",
"444 600 CURVE SMOOTH"
);
}
);
width = 600;
}
);
unicode = 0390;
},
{
glyphname = upsilontonos;
layers = (
{
layerId = "9209D6FA-1952-4593-83C2-3566FC124D27";
name = Regular;
paths = (
{
closed = 1;
nodes = (
"346 542 OFFCURVE",
"307 485 OFFCURVE",
"229 485 CURVE SMOOTH",
"152 485 OFFCURVE",
"113 542 OFFCURVE",
"113 600 CURVE SMOOTH",
"113 658 OFFCURVE",
"152 715 OFFCURVE",
"229 715 CURVE SMOOTH",
"307 715 OFFCURVE",
"346 658 OFFCURVE",
"346 600 CURVE SMOOTH"
);
}
);
width = 484;
}
);
unicode = 03CD;
},
{
glyphname = upsilondieresis;
layers = (
{
layerId = "9209D6FA-1952-4593-83C2-3566FC124D27";
name = Regular;
paths = (
{
closed = 1;
nodes = (
"346 542 OFFCURVE",
"307 485 OFFCURVE",
"229 485 CURVE SMOOTH",
"152 485 OFFCURVE",
"113 542 OFFCURVE",
"113 600 CURVE SMOOTH",
"113 658 OFFCURVE",
"152 715 OFFCURVE",
"229 715 CURVE SMOOTH",
"307 715 OFFCURVE",
"346 658 OFFCURVE",
"346 600 CURVE SMOOTH"
);
}
);
width = 484;
}
);
unicode = 03CB;
},
{
glyphname = upsilondieresistonos;
layers = (
{
layerId = "9209D6FA-1952-4593-83C2-3566FC124D27";
name = Regular;
paths = (
{
closed = 1;
nodes = (
"346 542 OFFCURVE",
"307 485 OFFCURVE",
"229 485 CURVE SMOOTH",
"152 485 OFFCURVE",
"113 542 OFFCURVE",
"113 600 CURVE SMOOTH",
"113 658 OFFCURVE",
"152 715 OFFCURVE",
"229 715 CURVE SMOOTH",
"307 715 OFFCURVE",
"346 658 OFFCURVE",
"346 600 CURVE SMOOTH"
);
}
);
width = 484;
}
);
unicode = 03B0;
},
{
glyphname = omicrontonos;
layers = (
{
layerId = "9209D6FA-1952-4593-83C2-3566FC124D27";
name = Regular;
paths = (
{
closed = 1;
nodes = (
"346 542 OFFCURVE",
"307 485 OFFCURVE",
"229 485 CURVE SMOOTH",
"152 485 OFFCURVE",
"113 542 OFFCURVE",
"113 600 CURVE SMOOTH",
"113 658 OFFCURVE",
"152 715 OFFCURVE",
"229 715 CURVE SMOOTH",
"307 715 OFFCURVE",
"346 658 OFFCURVE",
"346 600 CURVE SMOOTH"
);
}
);
width = 484;
}
);
unicode = 03CC;
},
{
glyphname = omegatonos;
layers = (
{
layerId = "9209D6FA-1952-4593-83C2-3566FC124D27";
name = Regular;
paths = (
{
closed = 1;
nodes = (
"346 542 OFFCURVE",
"307 485 OFFCURVE",
"229 485 CURVE SMOOTH",
"152 485 OFFCURVE",
"113 542 OFFCURVE",
"113 600 CURVE SMOOTH",
"113 658 OFFCURVE",
"152 715 OFFCURVE",
"229 715 CURVE SMOOTH",
"307 715 OFFCURVE",
"346 658 OFFCURVE",
"346 600 CURVE SMOOTH"
);
}
);
width = 484;
}
);
unicode = 03CE;
},
{
glyphname = alphatonos;
layers = (
{
layerId = "9209D6FA-1952-4593-83C2-3566FC124D27";
name = Regular;
paths = (
{
closed = 1;
nodes = (
"346 542 OFFCURVE",
"307 485 OFFCURVE",
"229 485 CURVE SMOOTH",
"152 485 OFFCURVE",
"113 542 OFFCURVE",
"113 600 CURVE SMOOTH",
"113 658 OFFCURVE",
"152 715 OFFCURVE",
"229 715 CURVE SMOOTH",
"307 715 OFFCURVE",
"346 658 OFFCURVE",
"346 600 CURVE SMOOTH"
);
}
);
width = 484;
}
);
unicode = 03AC;
},
{
glyphname = epsilontonos;
layers = (
{
layerId = "9209D6FA-1952-4593-83C2-3566FC124D27";
name = Regular;
paths = (
{
closed = 1;
nodes = (
"346 542 OFFCURVE",
"307 485 OFFCURVE",
"229 485 CURVE SMOOTH",
"152 485 OFFCURVE",
"113 542 OFFCURVE",
"113 600 CURVE SMOOTH",
"113 658 OFFCURVE",
"152 715 OFFCURVE",
"229 715 CURVE SMOOTH",
"307 715 OFFCURVE",
"346 658 OFFCURVE",
"346 600 CURVE SMOOTH"
);
}
);
width = 484;
}
);
unicode = 03AD;
},
{
glyphname = etatonos;
layers = (
{
layerId = "9209D6FA-1952-4593-83C2-3566FC124D27";
name = Regular;
paths = (
{
closed = 1;
nodes = (
"346 542 OFFCURVE",
"307 485 OFFCURVE",
"229 485 CURVE SMOOTH",
"152 485 OFFCURVE",
"113 542 OFFCURVE",
"113 600 CURVE SMOOTH",
"113 658 OFFCURVE",
"152 715 OFFCURVE",
"229 715 CURVE SMOOTH",
"307 715 OFFCURVE",
"346 658 OFFCURVE",
"346 600 CURVE SMOOTH"
);
}
);
width = 484;
}
);
unicode = 03AE;
},
{
glyphname = sigma1;
layers = (
{
layerId = "9209D6FA-1952-4593-83C2-3566FC124D27";
name = Regular;
paths = (
{
closed = 1;
nodes = (
"346 542 OFFCURVE",
"307 485 OFFCURVE",
"229 485 CURVE SMOOTH",
"152 485 OFFCURVE",
"113 542 OFFCURVE",
"113 600 CURVE SMOOTH",
"113 658 OFFCURVE",
"152 715 OFFCURVE",
"229 715 CURVE SMOOTH",
"307 715 OFFCURVE",
"346 658 OFFCURVE",
"346 600 CURVE SMOOTH"
);
}
);
width = 484;
}
);
unicode = 03C2;
},
{
glyphname = ordfeminine;
layers = (
{
layerId = "9209D6FA-1952-4593-83C2-3566FC124D27";
name = Regular;
paths = (
{
closed = 1;
nodes = (
"176 882 OFFCURVE",
"253 795 OFFCURVE",
"372 795 CURVE SMOOTH",
"461 795 OFFCURVE",
"505 835 OFFCURVE",
"536 896 CURVE",
"532 819 LINE",
"615 819 LINE",
"606 957 OFFCURVE",
"607 929 OFFCURVE",
"607 947 CURVE SMOOTH",
"611 1246 LINE SMOOTH",
"611 1416 OFFCURVE",
"519 1488 OFFCURVE",
"414 1488 CURVE SMOOTH",
"308 1488 OFFCURVE",
"231 1460 OFFCURVE",
"175 1342 CURVE",
"237 1300 LINE SMOOTH",
"287 1400 OFFCURVE",
"344 1399 OFFCURVE",
"417 1399 CURVE SMOOTH",
"520 1399 OFFCURVE",
"544 1343 OFFCURVE",
"548 1225 CURVE",
"548 1212 LINE",
"292 1200 OFFCURVE",
"176 1165 OFFCURVE",
"176 1003 CURVE SMOOTH"
);
},
{
closed = 1;
nodes = (
"159 639 LINE",
"638 639 LINE",
"638 715 LINE",
"159 715 LINE"
);
},
{
closed = 1;
nodes = (
"573 1023 OFFCURVE",
"537 879 OFFCURVE",
"389 879 CURVE SMOOTH",
"302 879 OFFCURVE",
"245 912 OFFCURVE",
"245 1001 CURVE SMOOTH",
"245 1160 OFFCURVE",
"456 1140 OFFCURVE",
"548 1147 CURVE",
"548 1164 LINE"
);
}
);
width = 817;
}
);
unicode = 00AA;
},
{
glyphname = ordmasculine;
layers = (
{
layerId = "9209D6FA-1952-4593-83C2-3566FC124D27";
name = Regular;
paths = (
{
closed = 1;
nodes = (
"217 962 OFFCURVE",
"277 856 OFFCURVE",
"396 856 CURVE SMOOTH",
"510 856 OFFCURVE",
"571 967 OFFCURVE",
"571 1095 CURVE SMOOTH",
"571 1230 OFFCURVE",
"508 1340 OFFCURVE",
"392 1340 CURVE SMOOTH",
"280 1340 OFFCURVE",
"217 1229 OFFCURVE",
"217 1098 CURVE SMOOTH"
);
},
{
closed = 1;
nodes = (
"683 905 OFFCURVE",
"580 752 OFFCURVE",
"396 752 CURVE SMOOTH",
"203 752 OFFCURVE",
"103 904 OFFCURVE",
"103 1101 CURVE SMOOTH",
"103 1294 OFFCURVE",
"209 1447 OFFCURVE",
"394 1447 CURVE SMOOTH",
"580 1447 OFFCURVE",
"683 1292 OFFCURVE",
"683 1097 CURVE SMOOTH"
);
}
);
width = 788;
}
);
unicode = 00BA;
},
{
glyphname = zero;
layers = (
{
layerId = "9209D6FA-1952-4593-83C2-3566FC124D27";
name = Regular;
paths = (
{
closed = 1;
nodes = (
"243 223 OFFCURVE",
"389 63 OFFCURVE",
"581 63 CURVE SMOOTH",
"773 63 OFFCURVE",
"908 224 OFFCURVE",
"908 675 CURVE SMOOTH",
"908 1137 OFFCURVE",
"773 1273 OFFCURVE",
"581 1273 CURVE SMOOTH",
"388 1273 OFFCURVE",
"241 1098 OFFCURVE",
"243 673 CURVE"
);
},
{
closed = 1;
nodes = (
"1018 241 OFFCURVE",
"884 -31 OFFCURVE",
"581 -31 CURVE SMOOTH",
"278 -31 OFFCURVE",
"132 241 OFFCURVE",
"132 670 CURVE SMOOTH",
"132 1126 OFFCURVE",
"298 1368 OFFCURVE",
"581 1368 CURVE SMOOTH",
"863 1368 OFFCURVE",
"1018 1128 OFFCURVE",
"1018 670 CURVE SMOOTH"
);
}
);
width = 1150;
}
);
unicode = 0030;
},
{
glyphname = one;
lastChange = "2012-12-29 12:26:24 +0000";
layers = (
{
layerId = "9209D6FA-1952-4593-83C2-3566FC124D27";
name = Regular;
paths = (
{
closed = 1;
nodes = (
"947 0 LINE",
"193 0 LINE",
"193 88 LINE",
"538 88 LINE",
"538 1253 LINE",
"463 1204 OFFCURVE",
"303 1161 OFFCURVE",
"231 1153 CURVE",
"231 1246 LINE",
"293 1255 OFFCURVE",
"472 1306 OFFCURVE",
"540 1354 CURVE",
"652 1354 LINE",
"652 88 LINE",
"947 88 LINE"
);
}
);
width = 1120;
}
);
unicode = 0031;
},
{
glyphname = two;
lastChange = "2012-12-29 12:11:22 +0000";
layers = (
{
layerId = "9209D6FA-1952-4593-83C2-3566FC124D27";
name = Regular;
paths = (
{
closed = 1;
nodes = (
"945 0 LINE",
"140 0 LINE",
"109 111 LINE",
"623 618 LINE SMOOTH",
"756 749 OFFCURVE",
"830 812 OFFCURVE",
"830 995 CURVE SMOOTH",
"830 1237 OFFCURVE",
"632 1282 OFFCURVE",
"512 1282 CURVE SMOOTH",
"394 1282 OFFCURVE",
"272 1247 OFFCURVE",
"171 1188 CURVE",
"136 1269 LINE",
"216 1320 OFFCURVE",
"364 1372 OFFCURVE",
"512 1372 CURVE SMOOTH",
"651 1372 OFFCURVE",
"938 1299 OFFCURVE",
"938 1012 CURVE SMOOTH",
"938 806 OFFCURVE",
"883 734 OFFCURVE",
"701 556 CURVE SMOOTH",
"223 88 LINE",
"950 88 LINE"
);
}
);
width = 1120;
}
);
unicode = 0032;
},
{
glyphname = three;
lastChange = "2012-12-29 12:15:23 +0000";
layers = (
{
associatedMasterId = "9209D6FA-1952-4593-83C2-3566FC124D27";
layerId = "BA5444AC-FAA3-4371-B8CE-A35491D084D3";
name = "Regular Dec 29 12, 12:15";
paths = (
{
closed = 1;
nodes = (
"385 1282 OFFCURVE",
"301 1237 OFFCURVE",
"230 1181 CURVE",
"198 1281 LINE",
"226 1314 OFFCURVE",
"340 1372 OFFCURVE",
"535 1372 CURVE SMOOTH",
"805 1372 OFFCURVE",
"984 1225 OFFCURVE",
"984 988 CURVE SMOOTH",
"984 773 OFFCURVE",
"859 656 OFFCURVE",
"677 625 CURVE",
"849 591 OFFCURVE",
"959 506 OFFCURVE",
"959 306 CURVE SMOOTH",
"959 90 OFFCURVE",
"759 -18 OFFCURVE",
"534 -18 CURVE SMOOTH",
"405 -18 OFFCURVE",
"269 19 OFFCURVE",
"157 88 CURVE",
"196 168 LINE",
"292 107 OFFCURVE",
"415 72 OFFCURVE",
"529 72 CURVE SMOOTH",
"699 72 OFFCURVE",
"855 143 OFFCURVE",
"855 318 CURVE SMOOTH",
"855 551 OFFCURVE",
"630 572 OFFCURVE",
"436 580 CURVE",
"402 580 LINE",
"402 674 LINE",
"428 674 OFFCURVE",
"407 674 OFFCURVE",
"434 674 CURVE",
"678 679 OFFCURVE",
"900 727 OFFCURVE",
"900 992 CURVE SMOOTH",
"900 1194 OFFCURVE",
"751 1282 OFFCURVE",
"536 1282 CURVE SMOOTH"
);
}
);
width = 1120;
},
{
layerId = "9209D6FA-1952-4593-83C2-3566FC124D27";
name = Regular;
paths = (
{
closed = 1;
nodes = (
"729 72 OFFCURVE",
"868 160 OFFCURVE",
"868 362 CURVE SMOOTH",
"868 627 OFFCURVE",
"656 675 OFFCURVE",
"412 680 CURVE",
"385 680 OFFCURVE",
"406 680 OFFCURVE",
"380 680 CURVE",
"380 774 LINE",
"414 774 LINE",
"608 782 OFFCURVE",
"833 803 OFFCURVE",
"833 1036 CURVE SMOOTH",
"833 1211 OFFCURVE",
"677 1282 OFFCURVE",
"507 1282 CURVE SMOOTH",
"393 1282 OFFCURVE",
"270 1247 OFFCURVE",
"174 1186 CURVE",
"135 1266 LINE",
"247 1335 OFFCURVE",
"383 1372 OFFCURVE",
"512 1372 CURVE SMOOTH",
"737 1372 OFFCURVE",
"937 1264 OFFCURVE",
"937 1048 CURVE SMOOTH",
"937 848 OFFCURVE",
"827 763 OFFCURVE",
"655 729 CURVE",
"837 698 OFFCURVE",
"972 581 OFFCURVE",
"972 366 CURVE SMOOTH",
"972 129 OFFCURVE",
"804 -18 OFFCURVE",
"513 -18 CURVE SMOOTH",
"338 -18 OFFCURVE",
"174 75 OFFCURVE",
"156 88 CURVE",
"197 168 LINE",
"244 137 OFFCURVE",
"381 72 OFFCURVE",
"514 72 CURVE SMOOTH"
);
}
);
width = 1120;
}
);
unicode = 0033;
},
{
glyphname = four;
lastChange = "2012-12-29 12:18:03 +0000";
layers = (
{
layerId = "9209D6FA-1952-4593-83C2-3566FC124D27";
name = Regular;
paths = (
{
closed = 1;
nodes = (
"767 1354 LINE",
"861 1354 LINE",
"861 452 LINE",
"1032 452 LINE",
"1022 366 LINE",
"861 366 LINE",
"861 0 LINE",
"757 0 LINE",
"757 366 LINE",
"116 366 LINE",
"116 480 LINE"
);
},
{
closed = 1;
nodes = (
"756 454 LINE",
"755 1197 LINE",
"227 454 LINE"
);
}
);
width = 1120;
}
);
unicode = 0034;
},
{
glyphname = five;
lastChange = "2012-12-29 12:25:58 +0000";
layers = (
{
associatedMasterId = "9209D6FA-1952-4593-83C2-3566FC124D27";
layerId = "66D36F07-A997-4E80-8CF0-0CFBA3B9779F";
name = "Regular Dec 29 12, 12:24";
paths = (
{
closed = 1;
nodes = (
"718 72 OFFCURVE",
"857 160 OFFCURVE",
"857 362 CURVE SMOOTH",
"857 627 OFFCURVE",
"645 675 OFFCURVE",
"401 680 CURVE",
"374 680 OFFCURVE",
"395 680 OFFCURVE",
"369 680 CURVE",
"369 774 LINE",
"403 774 LINE",
"597 782 OFFCURVE",
"822 803 OFFCURVE",
"822 1036 CURVE SMOOTH",
"822 1211 OFFCURVE",
"666 1282 OFFCURVE",
"496 1282 CURVE SMOOTH",
"382 1282 OFFCURVE",
"259 1247 OFFCURVE",
"163 1186 CURVE",
"124 1266 LINE",
"236 1335 OFFCURVE",
"372 1372 OFFCURVE",
"501 1372 CURVE SMOOTH",
"726 1372 OFFCURVE",
"926 1264 OFFCURVE",
"926 1048 CURVE SMOOTH",
"926 848 OFFCURVE",
"816 763 OFFCURVE",
"644 729 CURVE",
"826 698 OFFCURVE",
"961 581 OFFCURVE",
"961 366 CURVE SMOOTH",
"961 129 OFFCURVE",
"793 -18 OFFCURVE",
"502 -18 CURVE SMOOTH",
"327 -18 OFFCURVE",
"163 75 OFFCURVE",
"145 88 CURVE",
"186 168 LINE",
"233 137 OFFCURVE",
"370 72 OFFCURVE",
"503 72 CURVE SMOOTH"
);
}
);
width = 1120;
},
{
layerId = "9209D6FA-1952-4593-83C2-3566FC124D27";
name = Regular;
paths = (
{
closed = 1;
nodes = (
"995 130 OFFCURVE",
"770 -19 OFFCURVE",
"516 -19 CURVE SMOOTH",
"393 -19 OFFCURVE",
"262 16 OFFCURVE",
"147 86 CURVE",
"185 168 LINE",
"288 104 OFFCURVE",
"401 72 OFFCURVE",
"505 72 CURVE SMOOTH",
"709 72 OFFCURVE",
"881 192 OFFCURVE",
"881 428 CURVE SMOOTH",
"881 597 OFFCURVE",
"804 750 OFFCURVE",
"573 750 CURVE SMOOTH",
"470 750 OFFCURVE",
"366 709 OFFCURVE",
"309 647 CURVE",
"207 656 LINE",
"254 1354 LINE",
"934 1354 LINE",
"924 1265 LINE",
"343 1265 LINE",
"306 759 LINE",
"398 820 OFFCURVE",
"479 840 OFFCURVE",
"575 840 CURVE SMOOTH",
"857 840 OFFCURVE",
"995 651 OFFCURVE",
"995 433 CURVE SMOOTH"
);
}
);
width = 1120;
}
);
unicode = 0035;
},
{
glyphname = six;
layers = (
{
layerId = "9209D6FA-1952-4593-83C2-3566FC124D27";
name = Regular;
paths = (
{
closed = 1;
nodes = (
"1019 173 OFFCURVE",
"868 -18 OFFCURVE",
"590 -18 CURVE SMOOTH",
"298 -18 OFFCURVE",
"170 201 OFFCURVE",
"170 434 CURVE SMOOTH",
"170 658 OFFCURVE",
"227 787 OFFCURVE",
"473 1081 CURVE SMOOTH",
"594 1228 OFFCURVE",
"725 1354 OFFCURVE",
"725 1354 CURVE",
"852 1354 LINE",
"300 737 LINE",
"385 785 OFFCURVE",
"535 837 OFFCURVE",
"640 837 CURVE SMOOTH",
"849 837 OFFCURVE",
"1019 654 OFFCURVE",
"1019 403 CURVE SMOOTH"
);
},
{
closed = 1;
nodes = (
"250 243 OFFCURVE",
"373 72 OFFCURVE",
"589 72 CURVE SMOOTH",
"802 72 OFFCURVE",
"916 232 OFFCURVE",
"916 400 CURVE SMOOTH",
"916 583 OFFCURVE",
"813 735 OFFCURVE",
"611 735 CURVE SMOOTH",
"381 735 OFFCURVE",
"250 579 OFFCURVE",
"250 412 CURVE SMOOTH"
);
}
);
width = 1196;
}
);
unicode = 0036;
},
{
glyphname = seven;
lastChange = "2012-12-29 12:01:00 +0000";
layers = (
{
layerId = "9209D6FA-1952-4593-83C2-3566FC124D27";
name = Regular;
paths = (
{
closed = 1;
nodes = (
"963 1354 LINE",
"963 1270 LINE",
"456 1 LINE",
"353 1 LINE",
"856 1266 LINE",
"214 1266 LINE",
"188 1354 LINE"
);
}
);
width = 1120;
}
);
unicode = 0037;
},
{
glyphname = eight;
lastChange = "2012-12-29 11:49:04 +0000";
layers = (
{
layerId = "9209D6FA-1952-4593-83C2-3566FC124D27";
name = Regular;
paths = (
{
closed = 1;
nodes = (
"988 95 OFFCURVE",
"800 -18 OFFCURVE",
"560 -18 CURVE SMOOTH",
"323 -18 OFFCURVE",
"132 94 OFFCURVE",
"132 329 CURVE SMOOTH",
"132 527 OFFCURVE",
"241 642 OFFCURVE",
"443 704 CURVE",
"283 747 OFFCURVE",
"162 868 OFFCURVE",
"162 1040 CURVE SMOOTH",
"162 1246 OFFCURVE",
"319 1372 OFFCURVE",
"561 1372 CURVE SMOOTH",
"801 1372 OFFCURVE",
"956 1246 OFFCURVE",
"956 1040 CURVE SMOOTH",
"956 866 OFFCURVE",
"845 758 OFFCURVE",
"676 707 CURVE",
"869 656 OFFCURVE",
"988 508 OFFCURVE",
"988 329 CURVE SMOOTH"
);
},
{
closed = 1;
nodes = (
"230 165 OFFCURVE",
"343 72 OFFCURVE",
"560 72 CURVE SMOOTH",
"784 72 OFFCURVE",
"886 156 OFFCURVE",
"886 341 CURVE SMOOTH",
"886 510 OFFCURVE",
"748 617 OFFCURVE",
"560 654 CURVE",
"374 617 OFFCURVE",
"230 519 OFFCURVE",
"230 341 CURVE SMOOTH"
);
},
{
closed = 1;
nodes = (
"273 891 OFFCURVE",
"369 787 OFFCURVE",
"560 746 CURVE",
"753 787 OFFCURVE",
"844 891 OFFCURVE",
"844 1046 CURVE SMOOTH",
"844 1193 OFFCURVE",
"734 1282 OFFCURVE",
"560 1282 CURVE SMOOTH",
"388 1282 OFFCURVE",
"273 1193 OFFCURVE",
"273 1046 CURVE SMOOTH"
);
}
);
width = 1120;
}
);
unicode = 0038;
},
{
glyphname = nine;
lastChange = "2012-12-29 11:59:56 +0000";
layers = (
{
layerId = "9209D6FA-1952-4593-83C2-3566FC124D27";
name = Regular;
paths = (
{
closed = 1;
nodes = (
"315 1372 OFFCURVE",
"161 1178 OFFCURVE",
"161 957 CURVE SMOOTH",
"161 716 OFFCURVE",
"355 560 OFFCURVE",
"557 560 CURVE SMOOTH",
"727 560 OFFCURVE",
"810.034 625.933 OFFCURVE",
"859.109 687.79 CURVE",
"830.527 635.935 OFFCURVE",
"769.169 553.682 OFFCURVE",
"709 475 CURVE",
"313 -7 LINE",
"437 -7 LINE",
"790 420 LINE",
"963 648 OFFCURVE",
"993 762 OFFCURVE",
"993 942 CURVE SMOOTH",
"993 1167 OFFCURVE",
"863 1372 OFFCURVE",
"581 1372 CURVE SMOOTH"
);
},
{
closed = 1;
nodes = (
"792 1282 OFFCURVE",
"896 1129 OFFCURVE",
"896 964 CURVE SMOOTH",
"896 771 OFFCURVE",
"766 650 OFFCURVE",
"575 650 CURVE SMOOTH",
"381 650 OFFCURVE",
"258 782 OFFCURVE",
"258 957 CURVE SMOOTH",
"258 1121 OFFCURVE",
"376 1282 OFFCURVE",
"583 1282 CURVE SMOOTH"
);
}
);
width = 1120;
}
);
unicode = 0039;
},
{
glyphname = fraction;
layers = (
{
layerId = "9209D6FA-1952-4593-83C2-3566FC124D27";
name = Regular;
paths = (
{
closed = 1;
nodes = (
"135 0 LINE",
"926 1448 LINE",
"985 1448 LINE",
"193 0 LINE"
);
}
);
width = 1107;
}
);
unicode = 2044;
},
{
glyphname = threequarters;
layers = (
{
layerId = "9209D6FA-1952-4593-83C2-3566FC124D27";
name = Regular;
paths = (
{
closed = 1;
nodes = (
"190 620 OFFCURVE",
"248 582 OFFCURVE",
"321 582 CURVE SMOOTH",
"442 582 OFFCURVE",
"564 682 OFFCURVE",
"564 825 CURVE SMOOTH",
"564 929 OFFCURVE",
"524 990 OFFCURVE",
"436 1029 CURVE",
"488 1062 OFFCURVE",
"546 1111 OFFCURVE",
"546 1225 CURVE SMOOTH",
"546 1363 OFFCURVE",
"422 1457 OFFCURVE",
"319 1457 CURVE SMOOTH",
"254 1457 OFFCURVE",
"193 1407 OFFCURVE",
"155 1346 CURVE",
"185 1262 LINE",
"239 1321 OFFCURVE",
"273 1359 OFFCURVE",
"327 1359 CURVE SMOOTH",
"393 1359 OFFCURVE",
"456 1323 OFFCURVE",
"456 1226 CURVE SMOOTH",
"456 1112 OFFCURVE",
"364 1084 OFFCURVE",
"277 1084 CURVE SMOOTH",
"267 1084 LINE",
"267 985 LINE",
"284 984 LINE",
"396 984 OFFCURVE",
"476 947 OFFCURVE",
"476 830 CURVE SMOOTH",
"476 737 OFFCURVE",
"395 671 OFFCURVE",
"317 671 CURVE SMOOTH",
"270 671 OFFCURVE",
"243 703 OFFCURVE",
"191 766 CURVE SMOOTH",
"149 691 LINE"
);
},
{
closed = 1;
nodes = (
"1263 54 LINE",
"1313 54 LINE",
"1313 252 LINE",
"1402 252 LINE",
"1389 336 LINE",
"1314 336 LINE",
"1314 823 LINE",
"1250 823 LINE",
"905 309 LINE",
"905 252 LINE",
"1263 252 LINE"
);
},
{
closed = 1;
nodes = (
"373 -13 LINE",
"434 -13 LINE",
"1230 1448 LINE",
"1149 1448 LINE"
);
},
{
closed = 1;
nodes = (
"986 336 LINE",
"1265 709 LINE",
"1262 571 OFFCURVE",
"1260 559 OFFCURVE",
"1259 336 CURVE"
);
}
);
width = 1566;
}
);
unicode = 00BE;
},
{
glyphname = uni00B2;
layers = (
{
layerId = "9209D6FA-1952-4593-83C2-3566FC124D27";
name = Regular;
paths = (
{
closed = 1;
nodes = (
"558 592 LINE",
"120 592 LINE",
"120 700 LINE",
"315 919 OFFCURVE",
"457 1077 OFFCURVE",
"457 1186 CURVE SMOOTH",
"457 1252 OFFCURVE",
"416 1296 OFFCURVE",
"344 1296 CURVE SMOOTH",
"275 1296 OFFCURVE",
"228 1248 OFFCURVE",
"196 1167 CURVE",
"128 1244 LINE",
"164 1350 OFFCURVE",
"248 1411 OFFCURVE",
"350 1411 CURVE SMOOTH",
"469 1411 OFFCURVE",
"560 1324 OFFCURVE",
"560 1188 CURVE SMOOTH",
"560 1021 OFFCURVE",
"431 878 OFFCURVE",
"268 708 CURVE",
"558 708 LINE"
);
}
);
width = 683;
}
);
unicode = 00B2;
},
{
glyphname = uni2074;
layers = (
{
layerId = "9209D6FA-1952-4593-83C2-3566FC124D27";
name = Regular;
paths = (
{
closed = 1;
nodes = (
"405 1425 LINE",
"476 1425 LINE",
"476 904 LINE",
"559 904 LINE",
"564 837 LINE",
"473 837 LINE",
"474 632 LINE",
"424 632 LINE",
"424 837 LINE",
"132 837 LINE",
"132 907 LINE"
);
},
{
closed = 1;
nodes = (
"426 1334 LINE",
"171 904 LINE",
"424 904 LINE"
);
}
);
width = 675;
}
);
unicode = 2074;
},
{
glyphname = asterisk;
layers = (
{
layerId = "9209D6FA-1952-4593-83C2-3566FC124D27";
name = Regular;
paths = (
{
closed = 1;
nodes = (
"175 1141 LINE",
"520 995 LINE",
"485 1390 LINE",
"615 1390 LINE",
"579 995 LINE",
"925 1141 LINE",
"958 1024 LINE",
"603 943 LINE",
"640 891 OFFCURVE",
"715 784 OFFCURVE",
"846 617 CURVE",
"766 567 OFFCURVE",
"827 599 OFFCURVE",
"747 549 CURVE",
"544 907 LINE",
"354 548 LINE",
"257 617 LINE",
"492 943 LINE",
"144 1024 LINE"
);
}
);
width = 1123;
}
);
unicode = 002A;
},
{
glyphname = backslash;
layers = (
{
layerId = "9209D6FA-1952-4593-83C2-3566FC124D27";
name = Regular;
paths = (
{
closed = 1;
nodes = (
"667 -56 LINE",
"127 1354 LINE",
"205 1354 LINE",
"746 -56 LINE"
);
}
);
width = 897;
}
);
unicode = 005C;
},
{
glyphname = bullet;
lastChange = "2012-12-29 11:46:47 +0000";
layers = (
{
layerId = "9209D6FA-1952-4593-83C2-3566FC124D27";
name = Regular;
paths = (
{
closed = 1;
nodes = (
"665 515 OFFCURVE",
"520 415 OFFCURVE",
"377 415 CURVE SMOOTH",
"236 415 OFFCURVE",
"96 512 OFFCURVE",
"96 710 CURVE SMOOTH",
"96 911 OFFCURVE",
"239 1012 OFFCURVE",
"382 1012 CURVE SMOOTH",
"524 1012 OFFCURVE",
"665 913 OFFCURVE",
"665 714 CURVE SMOOTH"
);
}
);
width = 761;
}
);
unicode = 2022;
},
{
glyphname = colon;
layers = (
{
layerId = "9209D6FA-1952-4593-83C2-3566FC124D27";
name = Regular;
paths = (
{
closed = 1;
nodes = (
"157 -34 LINE",
"157 142 LINE",
"292 142 LINE",
"292 -34 LINE"
);
},
{
closed = 1;
nodes = (
"157 843 LINE",
"157 1023 LINE",
"292 1023 LINE",
"292 843 LINE"
);
}
);
width = 461;
}
);
unicode = 003A;
},
{
glyphname = comma;
layers = (
{
layerId = "9209D6FA-1952-4593-83C2-3566FC124D27";
name = Regular;
paths = (
{
closed = 1;
nodes = (
"239 -50 OFFCURVE",
"256 -42 OFFCURVE",
"173 -266 CURVE",
"138 -266 LINE",
"165 -41 OFFCURVE",
"142 -22 OFFCURVE",
"155 192 CURVE",
"292 192 LINE",
"295 162 LINE"
);
}
);
width = 431;
}
);
unicode = 002C;
},
{
glyphname = ellipsis;
layers = (
{
layerId = "9209D6FA-1952-4593-83C2-3566FC124D27";
name = Regular;
paths = (
{
closed = 1;
nodes = (
"1249 49 OFFCURVE",
"1208 -11 OFFCURVE",
"1127 -11 CURVE SMOOTH",
"1047 -11 OFFCURVE",
"1006 49 OFFCURVE",
"1006 109 CURVE SMOOTH",
"1006 169 OFFCURVE",
"1046 229 OFFCURVE",
"1127 229 CURVE SMOOTH",
"1208 229 OFFCURVE",
"1249 169 OFFCURVE",
"1249 109 CURVE SMOOTH"
);
},
{
closed = 1;
nodes = (
"799 49 OFFCURVE",
"759 -11 OFFCURVE",
"678 -11 CURVE SMOOTH",
"598 -11 OFFCURVE",
"557 49 OFFCURVE",
"557 109 CURVE SMOOTH",
"557 169 OFFCURVE",
"597 229 OFFCURVE",
"678 229 CURVE SMOOTH",
"759 229 OFFCURVE",
"799 169 OFFCURVE",
"799 109 CURVE SMOOTH"
);
},
{
closed = 1;
nodes = (
"349 49 OFFCURVE",
"309 -11 OFFCURVE",
"228 -11 CURVE SMOOTH",
"148 -11 OFFCURVE",
"107 49 OFFCURVE",
"107 109 CURVE SMOOTH",
"107 169 OFFCURVE",
"147 229 OFFCURVE",
"228 229 CURVE SMOOTH",
"309 229 OFFCURVE",
"349 169 OFFCURVE",
"349 109 CURVE SMOOTH"
);
}
);
width = 1354;
}
);
unicode = 2026;
},
{
glyphname = exclam;
layers = (
{
layerId = "9209D6FA-1952-4593-83C2-3566FC124D27";
name = Regular;
paths = (
{
closed = 1;
nodes = (
"258 1301 LINE",
"212 382 LINE",
"171 382 LINE",
"121 1301 LINE",
"121 1378 LINE",
"258 1378 LINE"
);
},
{
closed = 1;
nodes = (
"295 41 OFFCURVE",
"273 -14 OFFCURVE",
"193 -14 CURVE SMOOTH",
"116 -14 OFFCURVE",
"92 41 OFFCURVE",
"92 89 CURVE SMOOTH",
"92 137 OFFCURVE",
"116 191 OFFCURVE",
"193 191 CURVE SMOOTH",
"273 191 OFFCURVE",
"295 137 OFFCURVE",
"295 89 CURVE SMOOTH"
);
}
);
width = 384;
}
);
unicode = 0021;
},
{
glyphname = exclamdown;
layers = (
{
layerId = "9209D6FA-1952-4593-83C2-3566FC124D27";
name = Regular;
paths = (
{
closed = 1;
nodes = (
"336 84 LINE",
"336 6 LINE",
"199 6 LINE",
"199 84 LINE",
"241 1003 LINE",
"282 1003 LINE"
);
},
{
closed = 1;
nodes = (
"373 1247 OFFCURVE",
"348 1192 OFFCURVE",
"270 1192 CURVE SMOOTH",
"192 1192 OFFCURVE",
"169 1247 OFFCURVE",
"169 1294 CURVE SMOOTH",
"169 1341 OFFCURVE",
"191 1398 OFFCURVE",
"270 1398 CURVE SMOOTH",
"348 1398 OFFCURVE",
"373 1342 OFFCURVE",
"373 1294 CURVE SMOOTH"
);
}
);
width = 553;
}
);
unicode = 00A1;
},
{
glyphname = numbersign;
layers = (
{
layerId = "9209D6FA-1952-4593-83C2-3566FC124D27";
name = Regular;
paths = (
{
closed = 1;
nodes = (
"312 449 LINE",
"374 871 LINE",
"232 871 LINE",
"241 940 LINE",
"390 940 LINE",
"471 1326 LINE",
"571 1326 LINE",
"494 940 LINE",
"756 940 LINE",
"819 1326 LINE",
"883 1326 LINE",
"827 940 LINE",
"925 940 LINE",
"913 872 LINE",
"816 872 LINE",
"746 449 LINE",
"851 449 LINE",
"842 376 LINE",
"740 376 LINE",
"655 -26 LINE",
"559 -26 LINE",
"640 376 LINE",
"375 376 LINE",
"301 -26 LINE",
"235 -26 LINE",
"302 376 LINE",
"163 376 LINE",
"172 449 LINE"
);
},
{
closed = 1;
nodes = (
"389 449 LINE",
"653 449 LINE",
"743 872 LINE",
"479 872 LINE"
);
}
);
width = 1105;
}
);
unicode = 0023;
},
{
glyphname = period;
layers = (
{
layerId = "9209D6FA-1952-4593-83C2-3566FC124D27";
name = Regular;
paths = (
{
closed = 1;
nodes = (
"318 35 OFFCURVE",
"295 -20 OFFCURVE",
"216 -20 CURVE SMOOTH",
"138 -20 OFFCURVE",
"115 36 OFFCURVE",
"115 83 CURVE SMOOTH",
"115 131 OFFCURVE",
"137 186 OFFCURVE",
"216 186 CURVE SMOOTH",
"295 186 OFFCURVE",
"318 131 OFFCURVE",
"318 83 CURVE SMOOTH"
);
}
);
width = 433;
}
);
unicode = 002E;
},
{
glyphname = periodcentered;
layers = (
{
layerId = "9209D6FA-1952-4593-83C2-3566FC124D27";
name = Regular;
paths = (
{
closed = 1;
nodes = (
"107 511 LINE",
"107 691 LINE",
"260 691 LINE",
"260 511 LINE"
);
}
);
width = 372;
}
);
unicode = 00B7;
},
{
glyphname = question;
layers = (
{
layerId = "9209D6FA-1952-4593-83C2-3566FC124D27";
name = Regular;
paths = (
{
closed = 1;
nodes = (
"700 853 OFFCURVE",
"517 708 OFFCURVE",
"379 378 CURVE",
"325 374 LINE",
"300 555 OFFCURVE",
"595 926 OFFCURVE",
"595 1119 CURVE",
"593 1254 OFFCURVE",
"496 1296 OFFCURVE",
"364 1296 CURVE SMOOTH",
"260 1296 OFFCURVE",
"171 1248 OFFCURVE",
"133 1224 CURVE",
"115 1320 LINE",
"191 1388 OFFCURVE",
"323 1403 OFFCURVE",
"390 1403 CURVE SMOOTH",
"603 1403 OFFCURVE",
"700 1292 OFFCURVE",
"700 1120 CURVE SMOOTH"
);
},
{
closed = 1;
nodes = (
"482 41 OFFCURVE",
"457 -14 OFFCURVE",
"375 -14 CURVE SMOOTH",
"296 -14 OFFCURVE",
"273 42 OFFCURVE",
"273 89 CURVE SMOOTH",
"273 137 OFFCURVE",
"296 191 OFFCURVE",
"375 191 CURVE SMOOTH",
"457 191 OFFCURVE",
"482 137 OFFCURVE",
"482 89 CURVE SMOOTH"
);
}
);
width = 854;
}
);
unicode = 003F;
},
{
glyphname = quotedbl;
layers = (
{
layerId = "9209D6FA-1952-4593-83C2-3566FC124D27";
name = Regular;
paths = (
{
closed = 1;
nodes = (
"129 976 LINE",
"167 976 LINE",
"194 1392 LINE",
"118 1392 LINE"
);
},
{
closed = 1;
nodes = (
"354 972 LINE",
"394 972 LINE",
"418 1392 LINE",
"343 1392 LINE"
);
}
);
width = 551;
}
);
unicode = 0022;
},
{
glyphname = quotesingle;
layers = (
{
layerId = "9209D6FA-1952-4593-83C2-3566FC124D27";
name = Regular;
paths = (
{
closed = 1;
nodes = (
"88 923 LINE",
"78 1359 LINE",
"169 1359 LINE",
"156 923 LINE"
);
}
);
width = 251;
}
);
unicode = 0027;
},
{
glyphname = semicolon;
layers = (
{
layerId = "9209D6FA-1952-4593-83C2-3566FC124D27";
name = Regular;
paths = (
{
closed = 1;
nodes = (
"122 -279 LINE",
"174 134 LINE",
"296 134 LINE",
"183 -279 LINE"
);
},
{
closed = 1;
nodes = (
"168 843 LINE",
"168 1024 LINE",
"303 1024 LINE",
"303 843 LINE"
);
}
);
width = 449;
}
);
unicode = 003B;
},
{
glyphname = slash;
layers = (
{
layerId = "9209D6FA-1952-4593-83C2-3566FC124D27";
name = Regular;
paths = (
{
closed = 1;
nodes = (
"100 -218 LINE",
"761 1314 LINE",
"833 1314 LINE",
"170 -218 LINE"
);
}
);
width = 933;
}
);
unicode = 002F;
},
{
glyphname = underscore;
layers = (
{
layerId = "9209D6FA-1952-4593-83C2-3566FC124D27";
name = Regular;
paths = (
{
closed = 1;
nodes = (
"92 -280 LINE",
"92 -193 LINE",
"903 -193 LINE",
"903 -280 LINE"
);
}
);
width = 1007;
}
);
unicode = 005F;
},
{
glyphname = braceleft;
layers = (
{
layerId = "9209D6FA-1952-4593-83C2-3566FC124D27";
name = Regular;
paths = (
{
closed = 1;
nodes = (
"316 1292 OFFCURVE",
"406 1410 OFFCURVE",
"584 1411 CURVE SMOOTH",
"584 1333 LINE",
"448 1331 OFFCURVE",
"395 1266 OFFCURVE",
"395 1086 CURVE SMOOTH",
"395 844 LINE SMOOTH",
"395 732 OFFCURVE",
"365 681 OFFCURVE",
"227 566 CURVE",
"357 530 OFFCURVE",
"396 402 OFFCURVE",
"395 302 CURVE",
"395 61 LINE SMOOTH",
"395 -112 OFFCURVE",
"445 -186 OFFCURVE",
"584 -188 CURVE",
"584 -263 LINE SMOOTH",
"379 -263 OFFCURVE",
"316 -130 OFFCURVE",
"316 72 CURVE SMOOTH",
"316 217 LINE SMOOTH",
"316 388 OFFCURVE",
"304 529 OFFCURVE",
"117 532 CURVE",
"117 610 LINE SMOOTH",
"298 610 OFFCURVE",
"316 757 OFFCURVE",
"316 924 CURVE SMOOTH",
"316 1121 LINE SMOOTH"
);
}
);
width = 752;
}
);
unicode = 007B;
},
{
glyphname = braceright;
layers = (
{
layerId = "9209D6FA-1952-4593-83C2-3566FC124D27";
name = Regular;
paths = (
{
closed = 1;
nodes = (
"385 -144 OFFCURVE",
"295 -262 OFFCURVE",
"117 -263 CURVE SMOOTH",
"117 -185 LINE",
"253 -183 OFFCURVE",
"306 -118 OFFCURVE",
"306 62 CURVE SMOOTH",
"306 304 LINE SMOOTH",
"306 416 OFFCURVE",
"336 467 OFFCURVE",
"474 582 CURVE",
"344 618 OFFCURVE",
"305 746 OFFCURVE",
"306 846 CURVE",
"306 1087 LINE SMOOTH",
"306 1260 OFFCURVE",
"256 1334 OFFCURVE",
"117 1336 CURVE",
"117 1411 LINE SMOOTH",
"322 1411 OFFCURVE",
"385 1278 OFFCURVE",
"385 1076 CURVE SMOOTH",
"385 931 LINE SMOOTH",
"385 760 OFFCURVE",
"397 619 OFFCURVE",
"584 616 CURVE",
"584 538 LINE SMOOTH",
"403 538 OFFCURVE",
"385 391 OFFCURVE",
"385 224 CURVE SMOOTH",
"385 27 LINE SMOOTH"
);
}
);
width = 752;
}
);
unicode = 007D;
},
{
glyphname = bracketleft;
layers = (
{
layerId = "9209D6FA-1952-4593-83C2-3566FC124D27";
name = Regular;
paths = (
{
closed = 1;
nodes = (
"200 1272 LINE",
"200 -207 LINE",
"506 -207 LINE",
"506 -287 LINE",
"107 -287 LINE",
"107 1354 LINE",
"506 1354 LINE",
"506 1272 LINE"
);
}
);
width = 599;
}
);
unicode = 005B;
},
{
glyphname = bracketright;
layers = (
{
layerId = "9209D6FA-1952-4593-83C2-3566FC124D27";
name = Regular;
paths = (
{
closed = 1;
nodes = (
"96 1272 LINE",
"96 1354 LINE",
"494 1354 LINE",
"494 -287 LINE",
"96 -287 LINE",
"96 -207 LINE",
"402 -207 LINE",
"402 1272 LINE"
);
}
);
width = 601;
}
);
unicode = 005D;
},
{
glyphname = parenleft;
lastChange = "2012-12-29 10:57:29 +0000";
layers = (
{
layerId = "9209D6FA-1952-4593-83C2-3566FC124D27";
name = Regular;
paths = (
{
closed = 1;
nodes = (
"129 945 OFFCURVE",
"206 1225 OFFCURVE",
"366 1464 CURVE",
"477 1464 LINE",
"284 1163 OFFCURVE",
"244 925 OFFCURVE",
"244 655 CURVE SMOOTH",
"244 356 OFFCURVE",
"289 40 OFFCURVE",
"476 -247 CURVE",
"368 -247 LINE",
"214 -33 OFFCURVE",
"129 313 OFFCURVE",
"129 650 CURVE"
);
}
);
width = 600;
}
);
unicode = 0028;
},
{
glyphname = parenright;
lastChange = "2012-12-29 10:56:02 +0000";
layers = (
{
layerId = "9209D6FA-1952-4593-83C2-3566FC124D27";
name = Regular;
paths = (
{
closed = 1;
nodes = (
"477 313 OFFCURVE",
"392 -33 OFFCURVE",
"238 -247 CURVE",
"130 -247 LINE",
"317 40 OFFCURVE",
"362 356 OFFCURVE",
"362 655 CURVE SMOOTH",
"362 925 OFFCURVE",
"322 1163 OFFCURVE",
"129 1464 CURVE",
"240 1464 LINE",
"400 1225 OFFCURVE",
"477 945 OFFCURVE",
"477 650 CURVE"
);
}
);
width = 619;
}
);
unicode = 0029;
},
{
glyphname = emdash;
layers = (
{
layerId = "9209D6FA-1952-4593-83C2-3566FC124D27";
name = Regular;
paths = (
{
closed = 1;
nodes = (
"168 520 LINE",
"168 621 LINE",
"2203 621 LINE",
"2203 520 LINE"
);
}
);
width = 2388;
}
);
unicode = 2014;
},
{
glyphname = endash;
layers = (
{
layerId = "9209D6FA-1952-4593-83C2-3566FC124D27";
name = Regular;
paths = (
{
closed = 1;
nodes = (
"128 520 LINE",
"128 621 LINE",
"1052 621 LINE",
"1052 520 LINE"
);
}
);
width = 1206;
}
);
unicode = 2013;
},
{
glyphname = hyphen;
layers = (
{
layerId = "9209D6FA-1952-4593-83C2-3566FC124D27";
name = Regular;
paths = (
{
closed = 1;
nodes = (
"138 482 LINE",
"138 573 LINE",
"562 573 LINE",
"562 482 LINE"
);
}
);
width = 722;
}
);
unicode = 002D;
},
{
glyphname = uni00AD;
layers = (
{
layerId = "9209D6FA-1952-4593-83C2-3566FC124D27";
name = Regular;
paths = (
{
closed = 1;
nodes = (
"126 127 LINE",
"126 219 LINE",
"887 219 LINE",
"887 127 LINE"
);
}
);
width = 1017;
}
);
unicode = 00AD;
},
{
glyphname = guillemotleft;
layers = (
{
layerId = "9209D6FA-1952-4593-83C2-3566FC124D27";
name = Regular;
paths = (
{
closed = 1;
nodes = (
"456 841 LINE",
"206 506 LINE",
"449 165 LINE",
"376 147 LINE",
"159 453 LINE",
"119 496 LINE",
"379 860 LINE"
);
},
{
closed = 1;
nodes = (
"534 506 LINE",
"756 165 LINE",
"704 147 LINE",
"442 516 LINE",
"706 860 LINE",
"758 841 LINE"
);
}
);
width = 936;
}
);
unicode = 00AB;
},
{
glyphname = guillemotright;
layers = (
{
layerId = "9209D6FA-1952-4593-83C2-3566FC124D27";
name = Regular;
paths = (
{
closed = 1;
nodes = (
"189 860 LINE",
"453 492 LINE",
"188 147 LINE",
"135 165 LINE",
"359 506 LINE",
"135 841 LINE"
);
},
{
closed = 1;
nodes = (
"530 860 LINE",
"771 492 LINE",
"527 147 LINE",
"454 165 LINE",
"700 506 LINE",
"459 841 LINE"
);
}
);
width = 911;
}
);
unicode = 00BB;
},
{
glyphname = guilsinglleft;
layers = (
{
layerId = "9209D6FA-1952-4593-83C2-3566FC124D27";
name = Regular;
paths = (
{
closed = 1;
nodes = (
"222 536 LINE",
"406 173 LINE",
"338 173 LINE",
"144 536 LINE",
"340 891 LINE",
"412 891 LINE"
);
}
);
width = 597;
}
);
unicode = 2039;
},
{
glyphname = guilsinglright;
layers = (
{
layerId = "9209D6FA-1952-4593-83C2-3566FC124D27";
name = Regular;
paths = (
{
closed = 1;
nodes = (
"437 537 LINE",
"244 173 LINE",
"173 173 LINE",
"362 537 LINE",
"177 891 LINE",
"248 891 LINE"
);
}
);
width = 607;
}
);
unicode = 203A;
},
{
glyphname = quotedblbase;
layers = (
{
layerId = "9209D6FA-1952-4593-83C2-3566FC124D27";
name = Regular;
paths = (
{
closed = 1;
nodes = (
"60 -235 LINE",
"127 177 LINE",
"214 177 LINE",
"118 -235 LINE"
);
},
{
closed = 1;
nodes = (
"330 -235 LINE",
"393 177 LINE",
"486 177 LINE",
"384 -235 LINE"
);
}
);
width = 594;
}
);
unicode = 201E;
},
{
glyphname = quotedblleft;
layers = (
{
layerId = "9209D6FA-1952-4593-83C2-3566FC124D27";
name = Regular;
paths = (
{
closed = 1;
nodes = (
"151 826 LINE",
"208 1466 LINE",
"323 1711 LINE",
"288 1073 LINE"
);
},
{
closed = 1;
nodes = (
"438 826 LINE",
"503 1466 LINE",
"609 1711 LINE",
"586 1073 LINE"
);
}
);
width = 758;
}
);
unicode = 201C;
},
{
glyphname = quotedblright;
layers = (
{
layerId = "9209D6FA-1952-4593-83C2-3566FC124D27";
name = Regular;
paths = (
{
closed = 1;
nodes = (
"75 1066 LINE",
"148 1468 LINE",
"246 1468 LINE",
"134 1066 LINE"
);
},
{
closed = 1;
nodes = (
"332 1071 LINE",
"407 1468 LINE",
"505 1468 LINE",
"397 1071 LINE"
);
}
);
width = 575;
}
);
unicode = 201D;
},
{
glyphname = quoteleft;
layers = (
{
layerId = "9209D6FA-1952-4593-83C2-3566FC124D27";
name = Regular;
paths = (
{
closed = 1;
nodes = (
"151 826 LINE",
"211 1466 LINE",
"317 1711 LINE",
"292 1072 LINE"
);
}
);
width = 466;
}
);
unicode = 2018;
},
{
glyphname = quoteright;
layers = (
{
layerId = "9209D6FA-1952-4593-83C2-3566FC124D27";
name = Regular;
paths = (
{
closed = 1;
nodes = (
"153 1058 LINE",
"227 1468 LINE",
"315 1468 LINE",
"212 1058 LINE"
);
}
);
width = 457;
}
);
unicode = 2019;
},
{
glyphname = quotesinglbase;
layers = (
{
layerId = "9209D6FA-1952-4593-83C2-3566FC124D27";
name = Regular;
paths = (
{
closed = 1;
nodes = (
"89 -235 LINE",
"161 177 LINE",
"253 177 LINE",
"150 -235 LINE"
);
}
);
width = 388;
}
);
unicode = 201A;
},
{
glyphname = .notdef;
layers = (
{
layerId = "9209D6FA-1952-4593-83C2-3566FC124D27";
name = Regular;
paths = (
{
closed = 1;
nodes = (
"86 329 LINE",
"776 329 LINE",
"776 660 LINE",
"86 660 LINE"
);
},
{
closed = 1;
nodes = (
"172 416 LINE",
"172 573 LINE",
"690 573 LINE",
"690 416 LINE"
);
}
);
width = 861;
}
);
},
{
glyphname = cent;
layers = (
{
layerId = "9209D6FA-1952-4593-83C2-3566FC124D27";
name = Regular;
paths = (
{
closed = 1;
nodes = (
"575 122 LINE",
"649 122 LINE",
"649 226 LINE",
"730 231 OFFCURVE",
"828 261 OFFCURVE",
"877 318 CURVE",
"854 385 LINE",
"802 348 OFFCURVE",
"731 314 OFFCURVE",
"649 308 CURVE",
"649 1195 LINE",
"708 1193 OFFCURVE",
"775 1179 OFFCURVE",
"855 1127 CURVE",
"882 1194 LINE",
"840 1242 OFFCURVE",
"751 1276 OFFCURVE",
"649 1280 CURVE",
"649 1424 LINE",
"575 1424 LINE",
"575 1279 LINE",
"281 1252 OFFCURVE",
"143 973 OFFCURVE",
"141 742 CURVE",
"141 512 OFFCURVE",
"277 250 OFFCURVE",
"575 226 CURVE"
);
},
{
closed = 1;
nodes = (
"575 303 LINE",
"368 328 OFFCURVE",
"233 517 OFFCURVE",
"233 734 CURVE SMOOTH",
"233 960 OFFCURVE",
"376 1163 OFFCURVE",
"575 1189 CURVE"
);
}
);
width = 1001;
}
);
unicode = 00A2;
},
{
glyphname = currency;
layers = (
{
layerId = "9209D6FA-1952-4593-83C2-3566FC124D27";
name = Regular;
paths = (
{
closed = 1;
nodes = (
"1109 258 LINE",
"1069 212 LINE",
"897 374 LINE",
"828 315 OFFCURVE",
"742 284 OFFCURVE",
"645 284 CURVE SMOOTH",
"548 284 OFFCURVE",
"461 315 OFFCURVE",
"392 375 CURVE",
"220 213 LINE",
"176 260 LINE",
"349 423 LINE",
"294 492 OFFCURVE",
"263 572 OFFCURVE",
"263 660 CURVE SMOOTH",
"263 747 OFFCURVE",
"295 830 OFFCURVE",
"349 897 CURVE",
"175 1063 LINE",
"220 1107 LINE",
"391 946 LINE",
"461 1007 OFFCURVE",
"549 1037 OFFCURVE",
"645 1037 CURVE SMOOTH",
"741 1037 OFFCURVE",
"829 1004 OFFCURVE",
"897 945 CURVE",
"1069 1107 LINE",
"1110 1060 LINE",
"940 897 LINE",
"995 824 OFFCURVE",
"1025 743 OFFCURVE",
"1025 660 CURVE SMOOTH",
"1025 569 OFFCURVE",
"994 488 OFFCURVE",
"941 423 CURVE"
);
},
{
closed = 1;
nodes = (
"329 490 OFFCURVE",
"470 353 OFFCURVE",
"645 353 CURVE SMOOTH",
"821 353 OFFCURVE",
"960 491 OFFCURVE",
"960 660 CURVE SMOOTH",
"960 829 OFFCURVE",
"820 968 OFFCURVE",
"645 968 CURVE SMOOTH",
"470 968 OFFCURVE",
"329 830 OFFCURVE",
"329 660 CURVE SMOOTH"
);
}
);
width = 1303;
}
);
unicode = 00A4;
},
{
glyphname = sterling;
lastChange = "2012-12-29 10:27:09 +0000";
layers = (
{
layerId = "9209D6FA-1952-4593-83C2-3566FC124D27";
name = Regular;
paths = (
{
closed = 1;
nodes = (
"396 87 LINE",
"396 629 LINE",
"791 629 LINE",
"791 714 LINE",
"396 714 LINE",
"396 884 LINE SMOOTH",
"396 1123 OFFCURVE",
"456 1288 OFFCURVE",
"672 1288 CURVE SMOOTH",
"771 1288 OFFCURVE",
"857 1253 OFFCURVE",
"939 1187 CURVE",
"985 1259 LINE",
"910 1323 OFFCURVE",
"810 1373 OFFCURVE",
"677 1373 CURVE SMOOTH",
"329 1373 OFFCURVE",
"302 1091 OFFCURVE",
"302 816 CURVE SMOOTH",
"302 714 LINE",
"128 714 LINE",
"128 630 LINE",
"302 630 LINE",
"302 85 LINE",
"125 72 LINE",
"136 -13 LINE",
"981 -13 LINE",
"996 87 LINE"
);
}
);
width = 1122;
}
);
unicode = 00A3;
},
{
glyphname = yen;
layers = (
{
layerId = "9209D6FA-1952-4593-83C2-3566FC124D27";
name = Regular;
paths = (
{
closed = 1;
nodes = (
"601 361 LINE",
"601 567 LINE",
"268 567 LINE",
"268 650 LINE",
"581 650 LINE",
"212 1353 LINE",
"287 1353 LINE",
"633 699 LINE",
"989 1353 LINE",
"1059 1353 LINE",
"671 650 LINE",
"980 650 LINE",
"980 567 LINE",
"661 567 LINE",
"661 361 LINE",
"982 361 LINE",
"982 282 LINE",
"661 282 LINE",
"661 0 LINE",
"601 0 LINE",
"601 282 LINE",
"266 282 LINE",
"266 361 LINE"
);
}
);
width = 1286;
}
);
unicode = 00A5;
},
{
glyphname = approxequal;
layers = (
{
layerId = "9209D6FA-1952-4593-83C2-3566FC124D27";
name = Regular;
paths = (
{
closed = 1;
nodes = (
"203 354 LINE",
"229 470 OFFCURVE",
"281 539 OFFCURVE",
"381 539 CURVE SMOOTH",
"430 539 OFFCURVE",
"490 505 OFFCURVE",
"555 460 CURVE",
"667 386 OFFCURVE",
"749 354 OFFCURVE",
"815 354 CURVE SMOOTH",
"985 354 OFFCURVE",
"1025 458 OFFCURVE",
"1043 642 CURVE",
"953 612 LINE",
"946 499 OFFCURVE",
"899 423 OFFCURVE",
"810 423 CURVE SMOOTH",
"749 423 OFFCURVE",
"681 477 OFFCURVE",
"611 520 CURVE",
"539 566 OFFCURVE",
"464 612 OFFCURVE",
"376 612 CURVE SMOOTH",
"229 612 OFFCURVE",
"137 511 OFFCURVE",
"118 322 CURVE"
);
},
{
closed = 1;
nodes = (
"203 721 LINE",
"225 836 OFFCURVE",
"276 902 OFFCURVE",
"377 902 CURVE SMOOTH",
"426 902 OFFCURVE",
"487 870 OFFCURVE",
"552 825 CURVE",
"661 749 OFFCURVE",
"741 717 OFFCURVE",
"813 717 CURVE SMOOTH",
"977 717 OFFCURVE",
"1021 820 OFFCURVE",
"1040 1005 CURVE",
"949 971 LINE",
"942 856 OFFCURVE",
"896 783 OFFCURVE",
"807 783 CURVE SMOOTH",
"754 783 OFFCURVE",
"703 813 OFFCURVE",
"613 872 CURVE",
"520 935 OFFCURVE",
"457 971 OFFCURVE",
"377 971 CURVE SMOOTH",
"231 971 OFFCURVE",
"132 869 OFFCURVE",
"114 684 CURVE"
);
}
);
width = 1197;
}
);
unicode = 2248;
},
{
glyphname = asciitilde;
layers = (
{
layerId = "9209D6FA-1952-4593-83C2-3566FC124D27";
name = Regular;
paths = (
{
closed = 1;
nodes = (
"240 631 OFFCURVE",
"157 561 OFFCURVE",
"110 474 CURVE SMOOTH",
"91 541 LINE",
"131 645 OFFCURVE",
"214 722 OFFCURVE",
"326 722 CURVE SMOOTH",
"399 722 OFFCURVE",
"441 704 OFFCURVE",
"542 659 CURVE SMOOTH",
"635 620 OFFCURVE",
"717 577 OFFCURVE",
"776 577 CURVE SMOOTH",
"857 577 OFFCURVE",
"937 658 OFFCURVE",
"957 735 CURVE SMOOTH",
"988 676 LINE",
"943 552 OFFCURVE",
"887 488 OFFCURVE",
"779 488 CURVE SMOOTH",
"724 488 OFFCURVE",
"655 513 OFFCURVE",
"582 546 CURVE",
"470 595 OFFCURVE",
"391 631 OFFCURVE",
"325 631 CURVE SMOOTH"
);
}
);
width = 1127;
}
);
unicode = 007E;
},
{
glyphname = divide;
layers = (
{
layerId = "9209D6FA-1952-4593-83C2-3566FC124D27";
name = Regular;
paths = (
{
closed = 1;
nodes = (
"416 21 LINE",
"416 193 LINE",
"523 193 LINE",
"523 21 LINE"
);
},
{
closed = 1;
nodes = (
"61 497 LINE",
"61 600 LINE",
"914 600 LINE",
"914 497 LINE"
);
},
{
closed = 1;
nodes = (
"416 892 LINE",
"416 1070 LINE",
"571 1070 LINE",
"571 892 LINE"
);
}
);
width = 996;
}
);
unicode = 00F7;
},
{
glyphname = equal;
layers = (
{
layerId = "9209D6FA-1952-4593-83C2-3566FC124D27";
name = Regular;
paths = (
{
closed = 1;
nodes = (
"148 354 LINE",
"997 354 LINE",
"997 442 LINE",
"148 442 LINE"
);
},
{
closed = 1;
nodes = (
"146 758 LINE",
"997 758 LINE",
"997 843 LINE",
"146 843 LINE"
);
}
);
width = 1161;
}
);
unicode = 003D;
},
{
glyphname = greater;
layers = (
{
layerId = "9209D6FA-1952-4593-83C2-3566FC124D27";
name = Regular;
paths = (
{
closed = 1;
nodes = (
"140 1049 LINE",
"1012 591 LINE",
"1012 525 LINE",
"137 116 LINE",
"137 215 LINE",
"916 563 LINE",
"140 948 LINE"
);
}
);
width = 1142;
}
);
unicode = 003E;
},
{
glyphname = greaterequal;
layers = (
{
layerId = "9209D6FA-1952-4593-83C2-3566FC124D27";
name = Regular;
paths = (
{
closed = 1;
nodes = (
"162 1209 LINE",
"982 730 LINE",
"982 674 LINE",
"157 225 LINE",
"157 321 LINE",
"920 702 LINE",
"162 1111 LINE"
);
},
{
closed = 1;
nodes = (
"119 10 LINE",
"119 107 LINE",
"1007 108 LINE",
"1007 10 LINE"
);
}
);
width = 1141;
}
);
unicode = 2265;
},
{
glyphname = infinity;
layers = (
{
layerId = "9209D6FA-1952-4593-83C2-3566FC124D27";
name = Regular;
paths = (
{
closed = 1;
nodes = (
"702 334 OFFCURVE",
"584 231 OFFCURVE",
"432 231 CURVE SMOOTH",
"225 231 OFFCURVE",
"106 401 OFFCURVE",
"106 600 CURVE SMOOTH",
"106 781 OFFCURVE",
"249 925 OFFCURVE",
"428 925 CURVE SMOOTH",
"584 925 OFFCURVE",
"699 827 OFFCURVE",
"811 678 CURVE",
"916 822 OFFCURVE",
"1031 925 OFFCURVE",
"1190 925 CURVE SMOOTH",
"1397 925 OFFCURVE",
"1511 782 OFFCURVE",
"1511 584 CURVE SMOOTH",
"1511 376 OFFCURVE",
"1369 231 OFFCURVE",
"1188 231 CURVE SMOOTH",
"1050 231 OFFCURVE",
"935 313 OFFCURVE",
"811 478 CURVE"
);
},
{
closed = 1;
nodes = (
"209 463 OFFCURVE",
"299 347 OFFCURVE",
"434 347 CURVE SMOOTH",
"555 347 OFFCURVE",
"660 453 OFFCURVE",
"746 579 CURVE",
"661 713 OFFCURVE",
"558 813 OFFCURVE",
"427 813 CURVE SMOOTH",
"292 813 OFFCURVE",
"209 706 OFFCURVE",
"209 581 CURVE SMOOTH"
);
},
{
closed = 1;
nodes = (
"989 428 OFFCURVE",
"1074 347 OFFCURVE",
"1190 347 CURVE SMOOTH",
"1332 347 OFFCURVE",
"1399 461 OFFCURVE",
"1399 605 CURVE SMOOTH",
"1399 718 OFFCURVE",
"1310 813 OFFCURVE",
"1186 813 CURVE SMOOTH",
"1060 813 OFFCURVE",
"958 701 OFFCURVE",
"877 581 CURVE"
);
}
);
width = 1622;
}
);
unicode = 221E;
},
{
glyphname = integral;
layers = (
{
layerId = "9209D6FA-1952-4593-83C2-3566FC124D27";
name = Regular;
paths = (
{
closed = 1;
nodes = (
"384 -234 OFFCURVE",
"329 -390 OFFCURVE",
"148 -390 CURVE SMOOTH",
"102 -390 OFFCURVE",
"75 -383 OFFCURVE",
"38 -372 CURVE",
"37 -246 LINE",
"58 -256 OFFCURVE",
"90 -258 OFFCURVE",
"122 -258 CURVE SMOOTH",
"231 -258 OFFCURVE",
"253 -184 OFFCURVE",
"253 -46 CURVE SMOOTH",
"253 1229 LINE SMOOTH",
"253 1440 OFFCURVE",
"311 1598 OFFCURVE",
"492 1598 CURVE SMOOTH",
"538 1598 OFFCURVE",
"565 1588 OFFCURVE",
"602 1577 CURVE",
"603 1451 LINE",
"582 1461 OFFCURVE",
"548 1465 OFFCURVE",
"516 1465 CURVE SMOOTH",
"407 1465 OFFCURVE",
"384 1393 OFFCURVE",
"384 1255 CURVE SMOOTH",
"384 -23 LINE SMOOTH"
);
}
);
width = 672;
}
);
unicode = 222B;
},
{
glyphname = less;
layers = (
{
layerId = "9209D6FA-1952-4593-83C2-3566FC124D27";
name = Regular;
paths = (
{
closed = 1;
nodes = (
"981 939 LINE",
"199 563 LINE",
"979 207 LINE SMOOTH",
"979 207 OFFCURVE",
"978 109 OFFCURVE",
"978 109 CURVE",
"107 527 LINE",
"107 592 LINE",
"981 1041 LINE"
);
}
);
width = 1129;
}
);
unicode = 003C;
},
{
glyphname = lessequal;
layers = (
{
layerId = "9209D6FA-1952-4593-83C2-3566FC124D27";
name = Regular;
paths = (
{
closed = 1;
nodes = (
"974 1106 LINE",
"220 708 LINE",
"974 319 LINE",
"974 222 LINE",
"160 671 LINE",
"160 730 LINE",
"974 1206 LINE"
);
},
{
closed = 1;
nodes = (
"115 10 LINE",
"115 108 LINE",
"1010 107 LINE",
"1010 10 LINE"
);
}
);
width = 1144;
}
);
unicode = 2264;
},
{
glyphname = logicalnot;
layers = (
{
layerId = "9209D6FA-1952-4593-83C2-3566FC124D27";
name = Regular;
paths = (
{
closed = 1;
nodes = (
"991 738 LINE",
"991 242 LINE",
"918 242 LINE",
"918 646 LINE",
"101 646 LINE",
"101 738 LINE"
);
}
);
width = 1127;
}
);
unicode = 00AC;
},
{
glyphname = minus;
layers = (
{
layerId = "9209D6FA-1952-4593-83C2-3566FC124D27";
name = Regular;
paths = (
{
closed = 1;
nodes = (
"68 526 LINE",
"68 629 LINE",
"946 629 LINE",
"946 526 LINE"
);
}
);
width = 1037;
}
);
unicode = 2212;
},
{
glyphname = multiply;
layers = (
{
layerId = "9209D6FA-1952-4593-83C2-3566FC124D27";
name = Regular;
paths = (
{
closed = 1;
nodes = (
"278 558 LINE",
"18 873 LINE",
"87 927 LINE",
"325 630 LINE",
"564 927 LINE",
"630 874 LINE",
"372 558 LINE",
"323 601 OFFCURVE",
"630 240 OFFCURVE",
"630 240 CURVE",
"559 188 LINE",
"325 485 LINE",
"91 188 LINE",
"18 241 LINE"
);
}
);
width = 687;
}
);
unicode = 00D7;
},
{
glyphname = notequal;
layers = (
{
layerId = "9209D6FA-1952-4593-83C2-3566FC124D27";
name = Regular;
paths = (
{
closed = 1;
nodes = (
"111 423 LINE",
"399 423 LINE",
"568 753 LINE",
"116 753 LINE",
"111 834 LINE",
"604 834 LINE",
"738 1120 LINE",
"797 1111 LINE",
"689 834 LINE",
"949 834 LINE",
"954 754 LINE",
"654 754 LINE",
"479 423 LINE",
"952 423 LINE",
"954 341 LINE",
"445 341 LINE",
"306 48 LINE",
"249 61 LINE",
"357 341 LINE",
"116 341 LINE"
);
}
);
width = 1087;
}
);
unicode = 2260;
},
{
glyphname = partialdiff;
layers = (
{
layerId = "9209D6FA-1952-4593-83C2-3566FC124D27";
name = Regular;
paths = (
{
closed = 1;
nodes = (
"985 412 OFFCURVE",
"835 -25 OFFCURVE",
"476 -25 CURVE SMOOTH",
"225 -25 OFFCURVE",
"115 165 OFFCURVE",
"115 411 CURVE SMOOTH",
"115 733 OFFCURVE",
"300 980 OFFCURVE",
"563 980 CURVE SMOOTH",
"688 980 OFFCURVE",
"784 923 OFFCURVE",
"846 820 CURVE",
"846 837 OFFCURVE",
"847 867 OFFCURVE",
"847 892 CURVE SMOOTH",
"847 1188 OFFCURVE",
"741 1371 OFFCURVE",
"544 1371 CURVE SMOOTH",
"451 1371 OFFCURVE",
"359 1330 OFFCURVE",
"286 1279 CURVE",
"274 1413 LINE",
"350 1465 OFFCURVE",
"454 1503 OFFCURVE",
"566 1503 CURVE SMOOTH",
"837 1503 OFFCURVE",
"985 1293 OFFCURVE",
"985 834 CURVE SMOOTH"
);
},
{
closed = 1;
nodes = (
"249 228 OFFCURVE",
"338 108 OFFCURVE",
"477 108 CURVE SMOOTH",
"674 108 OFFCURVE",
"805 349 OFFCURVE",
"834 642 CURVE",
"802 752 OFFCURVE",
"717 851 OFFCURVE",
"586 851 CURVE SMOOTH",
"397 851 OFFCURVE",
"249 648 OFFCURVE",
"249 410 CURVE SMOOTH"
);
}
);
width = 1105;
}
);
unicode = 2202;
},
{
glyphname = percent;
layers = (
{
layerId = "9209D6FA-1952-4593-83C2-3566FC124D27";
name = Regular;
paths = (
{
closed = 1;
nodes = (
"179 871 OFFCURVE",
"238 768 OFFCURVE",
"352 768 CURVE SMOOTH",
"468 768 OFFCURVE",
"526 878 OFFCURVE",
"526 1005 CURVE SMOOTH",
"526 1138 OFFCURVE",
"465 1254 OFFCURVE",
"352 1254 CURVE SMOOTH",
"236 1254 OFFCURVE",
"179 1133 OFFCURVE",
"179 1005 CURVE SMOOTH"
);
},
{
closed = 1;
nodes = (
"643 808 OFFCURVE",
"529 662 OFFCURVE",
"352 662 CURVE SMOOTH",
"174 662 OFFCURVE",
"64 808 OFFCURVE",
"64 1005 CURVE SMOOTH",
"64 1203 OFFCURVE",
"175 1355 OFFCURVE",
"352 1355 CURVE SMOOTH",
"530 1355 OFFCURVE",
"643 1206 OFFCURVE",
"643 1005 CURVE SMOOTH"
);
},
{
closed = 1;
nodes = (
"335 -4 LINE",
"1058 1330 LINE",
"1206 1330 LINE",
"458 -4 LINE"
);
},
{
closed = 1;
nodes = (
"1067 203 OFFCURVE",
"1137 89 OFFCURVE",
"1272 89 CURVE SMOOTH",
"1408 89 OFFCURVE",
"1478 208 OFFCURVE",
"1478 336 CURVE SMOOTH",
"1478 469 OFFCURVE",
"1407 582 OFFCURVE",
"1272 582 CURVE SMOOTH",
"1136 582 OFFCURVE",
"1067 464 OFFCURVE",
"1067 336 CURVE SMOOTH"
);
},
{
closed = 1;
nodes = (
"1593 139 OFFCURVE",
"1480 -14 OFFCURVE",
"1272 -14 CURVE SMOOTH",
"1062 -14 OFFCURVE",
"952 139 OFFCURVE",
"952 336 CURVE SMOOTH",
"952 534 OFFCURVE",
"1065 686 OFFCURVE",
"1272 686 CURVE SMOOTH",
"1483 686 OFFCURVE",
"1593 537 OFFCURVE",
"1593 336 CURVE SMOOTH"
);
}
);
width = 1657;
}
);
unicode = 0025;
},
{
glyphname = perthousand;
layers = (
{
layerId = "9209D6FA-1952-4593-83C2-3566FC124D27";
name = Regular;
paths = (
{
closed = 1;
nodes = (
"226 940 OFFCURVE",
"275 836 OFFCURVE",
"381 836 CURVE SMOOTH",
"482 836 OFFCURVE",
"532 946 OFFCURVE",
"532 1072 CURVE SMOOTH",
"532 1206 OFFCURVE",
"483 1309 OFFCURVE",
"378 1309 CURVE SMOOTH",
"275 1309 OFFCURVE",
"226 1200 OFFCURVE",
"226 1074 CURVE SMOOTH"
);
},
{
closed = 1;
nodes = (
"649 873 OFFCURVE",
"550 724 OFFCURVE",
"378 724 CURVE SMOOTH",
"205 724 OFFCURVE",
"108 865 OFFCURVE",
"108 1074 CURVE SMOOTH",
"108 1273 OFFCURVE",
"204 1419 OFFCURVE",
"379 1419 CURVE SMOOTH",
"556 1419 OFFCURVE",
"649 1283 OFFCURVE",
"649 1070 CURVE SMOOTH"
);
},
{
closed = 1;
nodes = (
"246 -20 LINE",
"1025 1408 LINE",
"1168 1408 LINE",
"369 -20 LINE"
);
},
{
closed = 1;
nodes = (
"836 188 OFFCURVE",
"896 85 OFFCURVE",
"1017 85 CURVE SMOOTH",
"1138 85 OFFCURVE",
"1198 197 OFFCURVE",
"1198 322 CURVE SMOOTH",
"1198 455 OFFCURVE",
"1141 555 OFFCURVE",
"1016 555 CURVE SMOOTH",
"895 555 OFFCURVE",
"836 448 OFFCURVE",
"836 322 CURVE SMOOTH"
);
},
{
closed = 1;
nodes = (
"1315 123 OFFCURVE",
"1216 -27 OFFCURVE",
"1015 -27 CURVE SMOOTH",
"815 -27 OFFCURVE",
"717 113 OFFCURVE",
"717 322 CURVE SMOOTH",
"717 520 OFFCURVE",
"813 669 OFFCURVE",
"1017 669 CURVE SMOOTH",
"1221 669 OFFCURVE",
"1315 531 OFFCURVE",
"1315 320 CURVE SMOOTH"
);
},
{
closed = 1;
nodes = (
"1536 188 OFFCURVE",
"1597 85 OFFCURVE",
"1722 85 CURVE SMOOTH",
"1843 85 OFFCURVE",
"1904 195 OFFCURVE",
"1904 322 CURVE SMOOTH",
"1904 452 OFFCURVE",
"1840 555 OFFCURVE",
"1720 555 CURVE SMOOTH",
"1596 555 OFFCURVE",
"1536 448 OFFCURVE",
"1536 322 CURVE SMOOTH"
);
},
{
closed = 1;
nodes = (
"2018 123 OFFCURVE",
"1918 -27 OFFCURVE",
"1717 -27 CURVE SMOOTH",
"1519 -27 OFFCURVE",
"1421 113 OFFCURVE",
"1421 322 CURVE SMOOTH",
"1421 520 OFFCURVE",
"1519 669 OFFCURVE",
"1722 669 CURVE SMOOTH",
"1922 669 OFFCURVE",
"2018 535 OFFCURVE",
"2018 320 CURVE SMOOTH"
);
}
);
width = 2129;
}
);
unicode = 2030;
},
{
glyphname = plus;
layers = (
{
layerId = "9209D6FA-1952-4593-83C2-3566FC124D27";
name = Regular;
paths = (
{
closed = 1;
nodes = (
"491 627 LINE",
"491 1022 LINE",
"565 1022 LINE",
"565 627 LINE",
"916 627 LINE",
"916 548 LINE",
"564 548 LINE",
"564 145 LINE",
"490 145 LINE",
"490 548 LINE",
"129 548 LINE",
"129 627 LINE"
);
}
);
width = 1065;
}
);
unicode = 002B;
},
{
glyphname = plusminus;
layers = (
{
layerId = "9209D6FA-1952-4593-83C2-3566FC124D27";
name = Regular;
paths = (
{
closed = 1;
nodes = (
"516 682 LINE",
"516 1094 LINE",
"586 1094 LINE",
"586 682 LINE",
"1001 682 LINE",
"1001 598 LINE",
"589 598 LINE",
"589 193 LINE",
"517 193 LINE",
"517 598 LINE",
"107 598 LINE",
"107 682 LINE"
);
},
{
closed = 1;
nodes = (
"107 0 LINE",
"107 99 LINE",
"1004 99 LINE",
"1004 0 LINE"
);
}
);
width = 1122;
}
);
unicode = 00B1;
},
{
glyphname = product;
layers = (
{
layerId = "9209D6FA-1952-4593-83C2-3566FC124D27";
name = Regular;
paths = (
{
closed = 1;
nodes = (
"1039 0 LINE",
"1039 1221 LINE",
"298 1221 LINE",
"298 0 LINE",
"136 0 LINE",
"136 1361 LINE",
"1200 1361 LINE",
"1200 0 LINE"
);
}
);
width = 1335;
}
);
unicode = 220F;
},
{
glyphname = radical;
layers = (
{
layerId = "9209D6FA-1952-4593-83C2-3566FC124D27";
name = Regular;
paths = (
{
closed = 1;
nodes = (
"339 809 LINE",
"558 209 LINE",
"612 40 LINE",
"735 548 OFFCURVE",
"858 1055 OFFCURVE",
"982 1563 CURVE",
"1085 1563 LINE",
"684 -151 LINE",
"558 -151 LINE",
"255 676 LINE",
"116 648 LINE",
"102 758 LINE"
);
}
);
width = 1160;
}
);
unicode = 221A;
},
{
glyphname = summation;
layers = (
{
layerId = "9209D6FA-1952-4593-83C2-3566FC124D27";
name = Regular;
paths = (
{
closed = 1;
nodes = (
"132 1433 LINE",
"1075 1433 LINE",
"1075 1326 LINE",
"248 1326 LINE",
"847 563 LINE",
"226 -224 LINE",
"1109 -224 LINE",
"1109 -341 LINE",
"110 -341 LINE",
"110 -273 LINE",
"694 555 LINE",
"132 1363 LINE"
);
}
);
width = 1236;
}
);
unicode = 2211;
},
{
glyphname = uni2206;
layers = (
{
layerId = "9209D6FA-1952-4593-83C2-3566FC124D27";
name = Regular;
paths = (
{
closed = 1;
nodes = (
"1173 78 LINE",
"1173 0 LINE",
"99 0 LINE",
"99 78 LINE",
"550 1402 LINE",
"723 1402 LINE"
);
},
{
closed = 1;
nodes = (
"602 1087 LINE",
"282 158 LINE",
"990 158 LINE",
"664 1087 LINE",
"632 1194 LINE"
);
}
);
width = 1270;
}
);
unicode = 2206;
},
{
glyphname = ampersand;
layers = (
{
layerId = "9209D6FA-1952-4593-83C2-3566FC124D27";
name = Regular;
paths = (
{
closed = 1;
nodes = (
"68 134 OFFCURVE",
"172 -34 OFFCURVE",
"536 -34 CURVE SMOOTH",
"745 -34 OFFCURVE",
"890 32 OFFCURVE",
"1001 127 CURVE",
"1123 -19 LINE",
"1204 4 OFFCURVE",
"1137 -4 OFFCURVE",
"1217 24 CURVE",
"1072 220 LINE",
"1130 289 OFFCURVE",
"1174 363 OFFCURVE",
"1207 443 CURVE",
"1142 511 LINE",
"1109 430 OFFCURVE",
"1069 356 OFFCURVE",
"1012 300 CURVE",
"592 737 LINE",
"790 823 OFFCURVE",
"924 928 OFFCURVE",
"924 1081 CURVE SMOOTH",
"924 1257 OFFCURVE",
"773 1352 OFFCURVE",
"574 1352 CURVE SMOOTH",
"333 1352 OFFCURVE",
"214 1228 OFFCURVE",
"214 1065 CURVE SMOOTH",
"214 944 OFFCURVE",
"271 876 OFFCURVE",
"385 757 CURVE",
"181 660 OFFCURVE",
"68 537 OFFCURVE",
"68 339 CURVE SMOOTH"
);
},
{
closed = 1;
nodes = (
"817 137 OFFCURVE",
"703 82 OFFCURVE",
"547 82 CURVE SMOOTH",
"305 82 OFFCURVE",
"181 191 OFFCURVE",
"181 349 CURVE SMOOTH",
"181 495 OFFCURVE",
"298 602 OFFCURVE",
"464 681 CURVE",
"667 475 OFFCURVE",
"716 421 OFFCURVE",
"917 216 CURVE"
);
},
{
closed = 1;
nodes = (
"789 938 OFFCURVE",
"668 875 OFFCURVE",
"516 805 CURVE",
"419 892 OFFCURVE",
"352 961 OFFCURVE",
"352 1059 CURVE SMOOTH",
"352 1175 OFFCURVE",
"442 1247 OFFCURVE",
"574 1247 CURVE SMOOTH",
"684 1247 OFFCURVE",
"789 1186 OFFCURVE",
"789 1065 CURVE SMOOTH"
);
}
);
width = 1256;
}
);
unicode = 0026;
},
{
glyphname = asciicircum;
layers = (
{
layerId = "9209D6FA-1952-4593-83C2-3566FC124D27";
name = Regular;
paths = (
{
closed = 1;
nodes = (
"175 566 LINE",
"569 1402 LINE",
"638 1402 LINE",
"1053 566 LINE",
"983 566 LINE",
"603 1307 LINE",
"249 566 LINE"
);
}
);
width = 1242;
}
);
unicode = 005E;
},
{
glyphname = bar;
layers = (
{
layerId = "9209D6FA-1952-4593-83C2-3566FC124D27";
name = Regular;
paths = (
{
closed = 1;
nodes = (
"59 -381 LINE",
"59 1457 LINE",
"139 1457 LINE",
"139 -381 LINE"
);
}
);
width = 209;
}
);
unicode = 007C;
},
{
glyphname = brokenbar;
layers = (
{
layerId = "9209D6FA-1952-4593-83C2-3566FC124D27";
name = Regular;
paths = (
{
closed = 1;
nodes = (
"35 -380 LINE",
"35 250 LINE",
"116 250 LINE",
"116 -380 LINE"
);
},
{
closed = 1;
nodes = (
"35 830 LINE",
"35 1457 LINE",
"116 1457 LINE",
"116 830 LINE"
);
}
);
width = 159;
}
);
unicode = 00A6;
},
{
glyphname = copyright;
layers = (
{
layerId = "9209D6FA-1952-4593-83C2-3566FC124D27";
name = Regular;
paths = (
{
closed = 1;
nodes = (
"447 460 OFFCURVE",
"631 253 OFFCURVE",
"890 253 CURVE SMOOTH",
"1006 253 OFFCURVE",
"1138 290 OFFCURVE",
"1196 327 CURVE",
"1170 417 LINE",
"1128 384 OFFCURVE",
"1012 346 OFFCURVE",
"914 346 CURVE SMOOTH",
"649 346 OFFCURVE",
"552 530 OFFCURVE",
"552 744 CURVE SMOOTH",
"552 929 OFFCURVE",
"639 1124 OFFCURVE",
"885 1124 CURVE SMOOTH",
"984 1124 OFFCURVE",
"1085 1100 OFFCURVE",
"1135 1059 CURVE",
"1192 1134 LINE",
"1116 1187 OFFCURVE",
"1018 1220 OFFCURVE",
"909 1220 CURVE SMOOTH",
"627 1220 OFFCURVE",
"447 1019 OFFCURVE",
"447 737 CURVE SMOOTH"
);
},
{
closed = 1;
nodes = (
"1529 342 OFFCURVE",
"1337 30 OFFCURVE",
"871 30 CURVE SMOOTH",
"430 30 OFFCURVE",
"234 345 OFFCURVE",
"234 729 CURVE SMOOTH",
"234 1102 OFFCURVE",
"430 1419 OFFCURVE",
"865 1419 CURVE SMOOTH",
"1334 1419 OFFCURVE",
"1529 1100 OFFCURVE",
"1529 722 CURVE SMOOTH"
);
},
{
closed = 1;
nodes = (
"146 179 OFFCURVE",
"527 -40 OFFCURVE",
"871 -40 CURVE SMOOTH",
"1248 -40 OFFCURVE",
"1618 179 OFFCURVE",
"1618 726 CURVE SMOOTH",
"1618 1269 OFFCURVE",
"1243 1486 OFFCURVE",
"865 1486 CURVE SMOOTH",
"521 1486 OFFCURVE",
"146 1272 OFFCURVE",
"146 726 CURVE SMOOTH"
);
}
);
width = 1775;
}
);
unicode = 00A9;
},
{
glyphname = dagger;
layers = (
{
layerId = "9209D6FA-1952-4593-83C2-3566FC124D27";
name = Regular;
paths = (
{
closed = 1;
nodes = (
"393 1042 LINE",
"393 1461 LINE",
"456 1461 LINE",
"456 1042 LINE",
"722 1042 LINE",
"722 1006 LINE",
"462 1006 LINE",
"462 115 LINE",
"393 115 LINE",
"393 1006 LINE",
"128 1006 LINE",
"128 1042 LINE"
);
}
);
width = 874;
}
);
unicode = 2020;
},
{
glyphname = daggerdbl;
layers = (
{
layerId = "9209D6FA-1952-4593-83C2-3566FC124D27";
name = Regular;
paths = (
{
closed = 1;
nodes = (
"438 584 LINE",
"438 1031 LINE",
"141 1031 LINE",
"141 1127 LINE",
"438 1127 LINE",
"438 1465 LINE",
"503 1465 LINE",
"503 1127 LINE",
"807 1127 LINE",
"807 1031 LINE",
"503 1031 LINE",
"502 584 LINE",
"799 584 LINE",
"799 484 LINE",
"502 484 LINE",
"502 198 LINE",
"438 198 LINE",
"438 484 LINE",
"135 484 LINE",
"135 584 LINE"
);
}
);
width = 959;
}
);
unicode = 2021;
},
{
glyphname = degree;
layers = (
{
layerId = "9209D6FA-1952-4593-83C2-3566FC124D27";
name = Regular;
paths = (
{
closed = 1;
nodes = (
"182 1022 OFFCURVE",
"268 926 OFFCURVE",
"380 926 CURVE SMOOTH",
"493 926 OFFCURVE",
"580 1024 OFFCURVE",
"580 1127 CURVE SMOOTH",
"580 1232 OFFCURVE",
"493 1327 OFFCURVE",
"380 1327 CURVE SMOOTH",
"270 1327 OFFCURVE",
"182 1232 OFFCURVE",
"182 1127 CURVE SMOOTH"
);
},
{
closed = 1;
nodes = (
"659 964 OFFCURVE",
"519 832 OFFCURVE",
"379 832 CURVE SMOOTH",
"248 832 OFFCURVE",
"102 956 OFFCURVE",
"102 1123 CURVE SMOOTH",
"102 1287 OFFCURVE",
"246 1415 OFFCURVE",
"379 1415 CURVE SMOOTH",
"516 1415 OFFCURVE",
"659 1287 OFFCURVE",
"659 1123 CURVE SMOOTH"
);
}
);
width = 780;
}
);
unicode = 00B0;
},
{
glyphname = paragraph;
layers = (
{
layerId = "9209D6FA-1952-4593-83C2-3566FC124D27";
name = Regular;
paths = (
{
closed = 1;
nodes = (
"559 -151 LINE",
"500 -151 LINE",
"500 814 LINE",
"282 809 OFFCURVE",
"122 992 OFFCURVE",
"122 1147 CURVE SMOOTH",
"122 1254 OFFCURVE",
"161 1461 OFFCURVE",
"478 1461 CURVE SMOOTH",
"936 1461 LINE",
"936 1375 LINE",
"872 1375 LINE",
"872 -151 LINE",
"814 -151 LINE",
"814 1375 LINE",
"559 1375 LINE"
);
}
);
width = 1035;
}
);
unicode = 00B6;
},
{
glyphname = registered;
layers = (
{
layerId = "9209D6FA-1952-4593-83C2-3566FC124D27";
name = Regular;
paths = (
{
closed = 1;
nodes = (
"601 289 LINE",
"698 289 LINE",
"698 673 LINE",
"900 673 LINE",
"1021 588 OFFCURVE",
"1054 467 OFFCURVE",
"1159 289 CURVE",
"1268 289 LINE",
"1047 636 OFFCURVE",
"1098 625 OFFCURVE",
"992 687 CURVE",
"1205 702 OFFCURVE",
"1268 830 OFFCURVE",
"1268 942 CURVE SMOOTH",
"1268 1093 OFFCURVE",
"1167 1190 OFFCURVE",
"886 1190 CURVE SMOOTH",
"601 1190 LINE"
);
},
{
closed = 1;
nodes = (
"699 1084 LINE",
"899 1084 LINE SMOOTH",
"1064 1084 OFFCURVE",
"1130 1059 OFFCURVE",
"1130 931 CURVE SMOOTH",
"1130 809 OFFCURVE",
"1052 777 OFFCURVE",
"909 777 CURVE SMOOTH",
"699 777 LINE"
);
},
{
closed = 1;
nodes = (
"1532 342 OFFCURVE",
"1339 30 OFFCURVE",
"872 30 CURVE SMOOTH",
"430 30 OFFCURVE",
"234 345 OFFCURVE",
"234 729 CURVE SMOOTH",
"234 1102 OFFCURVE",
"431 1419 OFFCURVE",
"865 1419 CURVE SMOOTH",
"1335 1419 OFFCURVE",
"1532 1100 OFFCURVE",
"1532 722 CURVE SMOOTH"
);
},
{
closed = 1;
nodes = (
"146 179 OFFCURVE",
"528 -40 OFFCURVE",
"872 -40 CURVE SMOOTH",
"1250 -40 OFFCURVE",
"1620 179 OFFCURVE",
"1620 726 CURVE SMOOTH",
"1620 1269 OFFCURVE",
"1244 1486 OFFCURVE",
"865 1486 CURVE SMOOTH",
"522 1486 OFFCURVE",
"146 1272 OFFCURVE",
"146 726 CURVE SMOOTH"
);
}
);
width = 1780;
}
);
unicode = 00AE;
},
{
glyphname = section;
layers = (
{
layerId = "9209D6FA-1952-4593-83C2-3566FC124D27";
name = Regular;
paths = (
{
closed = 1;
nodes = (
"196 1018 OFFCURVE",
"147 1081 OFFCURVE",
"147 1189 CURVE SMOOTH",
"147 1361 OFFCURVE",
"300 1443 OFFCURVE",
"523 1443 CURVE SMOOTH",
"611 1443 OFFCURVE",
"681 1425 OFFCURVE",
"763 1392 CURVE",
"755 1347 OFFCURVE",
"747 1305 OFFCURVE",
"739 1260 CURVE",
"653 1299 OFFCURVE",
"576 1316 OFFCURVE",
"499 1316 CURVE SMOOTH",
"371 1316 OFFCURVE",
"291 1279 OFFCURVE",
"291 1193 CURVE SMOOTH",
"291 1117 OFFCURVE",
"346 1075 OFFCURVE",
"521 1006 CURVE",
"707 930 OFFCURVE",
"802 852 OFFCURVE",
"802 718 CURVE SMOOTH",
"802 610 OFFCURVE",
"741 522 OFFCURVE",
"656 468 CURVE",
"741 420 OFFCURVE",
"792 355 OFFCURVE",
"792 253 CURVE SMOOTH",
"792 74 OFFCURVE",
"637 -26 OFFCURVE",
"408 -26 CURVE SMOOTH",
"299 -26 OFFCURVE",
"207 -10 OFFCURVE",
"134 27 CURVE",
"134 168 LINE",
"219 124 OFFCURVE",
"324 99 OFFCURVE",
"410 99 CURVE SMOOTH",
"562 99 OFFCURVE",
"647 156 OFFCURVE",
"647 242 CURVE SMOOTH",
"647 328 OFFCURVE",
"582 355 OFFCURVE",
"424 420 CURVE",
"223 497 OFFCURVE",
"130 575 OFFCURVE",
"130 725 CURVE SMOOTH",
"130 833 OFFCURVE",
"192 918 OFFCURVE",
"281 964 CURVE"
);
},
{
closed = 1;
nodes = (
"268 653 OFFCURVE",
"331 607 OFFCURVE",
"481 548 CURVE",
"533 526 LINE",
"605 570 OFFCURVE",
"663 626 OFFCURVE",
"663 699 CURVE SMOOTH",
"663 806 OFFCURVE",
"552 849 OFFCURVE",
"399 905 CURVE",
"327 874 OFFCURVE",
"268 817 OFFCURVE",
"268 740 CURVE SMOOTH"
);
}
);
width = 927;
}
);
unicode = 00A7;
},
{
glyphname = trademark;
layers = (
{
layerId = "9209D6FA-1952-4593-83C2-3566FC124D27";
name = Regular;
paths = (
{
closed = 1;
nodes = (
"813 527 LINE",
"866 527 LINE",
"866 1354 LINE",
"1160 625 LINE",
"1218 625 LINE",
"1531 1348 LINE",
"1531 527 LINE",
"1589 527 LINE",
"1589 1371 LINE",
"1499 1371 LINE",
"1196 676 LINE",
"907 1371 LINE",
"813 1371 LINE"
);
},
{
closed = 1;
nodes = (
"334 527 LINE",
"391 527 LINE",
"391 1322 LINE",
"647 1322 LINE",
"647 1371 LINE",
"91 1371 LINE",
"90 1322 LINE",
"334 1322 LINE"
);
}
);
width = 1722;
}
);
unicode = 2122;
},
{
glyphname = uni2116;
layers = (
{
layerId = "9209D6FA-1952-4593-83C2-3566FC124D27";
name = Regular;
paths = (
{
closed = 1;
nodes = (
"-891 200 OFFCURVE",
"-708 -23 OFFCURVE",
"-430 -23 CURVE SMOOTH",
"-162 -23 OFFCURVE",
"24 203 OFFCURVE",
"24 490 CURVE SMOOTH",
"24 790 OFFCURVE",
"-143 1005 OFFCURVE",
"-437 1005 CURVE SMOOTH",
"-722 1005 OFFCURVE",
"-891 785 OFFCURVE",
"-891 490 CURVE SMOOTH"
);
},
{
closed = 1;
nodes = (
"-774 712 OFFCURVE",
"-682 914 OFFCURVE",
"-433 914 CURVE SMOOTH",
"-186 914 OFFCURVE",
"-92 712 OFFCURVE",
"-92 487 CURVE SMOOTH",
"-92 268 OFFCURVE",
"-184 69 OFFCURVE",
"-434 69 CURVE SMOOTH",
"-683 69 OFFCURVE",
"-774 268 OFFCURVE",
"-774 488 CURVE SMOOTH"
);
},
{
closed = 1;
nodes = (
"2626 725 OFFCURVE",
"2647 739 OFFCURVE",
"3099 110 CURVE",
"3100 60 OFFCURVE",
"3105 322 OFFCURVE",
"3105 393 CURVE SMOOTH",
"3105 1349 LINE",
"3156 1349 LINE",
"3156 0 LINE",
"3075 0 LINE",
"2621 625 OFFCURVE",
"2598 617 OFFCURVE",
"2149 1247 CURVE",
"2149 1247 OFFCURVE",
"2138 1200 OFFCURVE",
"2138 1034 CURVE SMOOTH",
"2138 0 LINE",
"2085 0 LINE",
"2085 1349 LINE",
"2170 1349 LINE"
);
}
);
width = 2524;
}
);
unicode = 2116;
},
{
glyphname = lozenge;
layers = (
{
layerId = "9209D6FA-1952-4593-83C2-3566FC124D27";
name = Regular;
paths = (
{
closed = 1;
nodes = (
"954 720 LINE",
"573 -46 LINE",
"492 -46 LINE",
"116 717 LINE",
"497 1483 LINE",
"580 1483 LINE"
);
},
{
closed = 1;
nodes = (
"298 496 OFFCURVE",
"408 265 OFFCURVE",
"530 49 CURVE",
"651 269 OFFCURVE",
"772 494 OFFCURVE",
"894 717 CURVE",
"775 938 OFFCURVE",
"658 1159 OFFCURVE",
"542 1382 CURVE",
"419 1164 OFFCURVE",
"299 941 OFFCURVE",
"177 719 CURVE"
);
}
);
width = 1096;
}
);
unicode = 25CA;
},
{
glyphname = commaaccentcomb;
layers = (
{
anchors = (
{
name = _bottom;
position = "{134, 0}";
}
);
layerId = "9209D6FA-1952-4593-83C2-3566FC124D27";
name = Regular;
paths = (
{
closed = 1;
nodes = (
"48 -621 LINE",
"123 -183 LINE",
"220 -183 LINE",
"109 -621 LINE"
);
}
);
width = 278;
}
);
unicode = 0326;
},
{
glyphname = dblgravecmb;
layers = (
{
anchors = (
{
name = _top;
position = "{331, 986}";
}
);
layerId = "9209D6FA-1952-4593-83C2-3566FC124D27";
name = Regular;
paths = (
{
closed = 1;
nodes = (
"319 1187 LINE",
"143 1481 LINE",
"177 1481 LINE",
"352 1187 LINE"
);
},
{
closed = 1;
nodes = (
"500 1187 LINE",
"321 1481 LINE",
"366 1481 LINE",
"519 1187 LINE"
);
}
);
width = 642;
}
);
unicode = 030F;
},
{
glyphname = uni0307;
layers = (
{
anchors = (
{
name = _top;
position = "{128, 986}";
}
);
layerId = "9209D6FA-1952-4593-83C2-3566FC124D27";
name = Regular;
paths = (
{
closed = 1;
nodes = (
"68 1238 LINE",
"68 1397 LINE",
"187 1397 LINE",
"187 1238 LINE"
);
}
);
width = 272;
}
);
unicode = 0307;
},
{
glyphname = uni0311;
layers = (
{
layerId = "9209D6FA-1952-4593-83C2-3566FC124D27";
name = Regular;
paths = (
{
closed = 1;
nodes = (
"247 1378 OFFCURVE",
"187 1328 OFFCURVE",
"187 1222 CURVE SMOOTH",
"130 1222 LINE SMOOTH",
"130 1383 OFFCURVE",
"226 1465 OFFCURVE",
"322 1465 CURVE SMOOTH",
"420 1465 OFFCURVE",
"524 1382 OFFCURVE",
"524 1222 CURVE SMOOTH",
"465 1222 LINE SMOOTH",
"465 1327 OFFCURVE",
"401 1378 OFFCURVE",
"325 1378 CURVE SMOOTH"
);
}
);
width = 665;
}
);
unicode = 0311;
},
{
glyphname = uni031B;
layers = (
{
layerId = "9209D6FA-1952-4593-83C2-3566FC124D27";
name = Regular;
paths = (
{
closed = 1;
nodes = (
"328 223 OFFCURVE",
"282 142 OFFCURVE",
"190 142 CURVE SMOOTH",
"164 142 OFFCURVE",
"134 144 OFFCURVE",
"106 147 CURVE",
"106 233 LINE",
"120 233 OFFCURVE",
"136 231 OFFCURVE",
"151 231 CURVE SMOOTH",
"204 231 OFFCURVE",
"220 272 OFFCURVE",
"220 322 CURVE SMOOTH",
"220 367 OFFCURVE",
"207 419 OFFCURVE",
"193 456 CURVE",
"299 456 LINE",
"318 411 OFFCURVE",
"328 364 OFFCURVE",
"328 319 CURVE SMOOTH"
);
}
);
width = 437;
}
);
unicode = 031B;
},
{
glyphname = uni02BC;
layers = (
{
layerId = "9209D6FA-1952-4593-83C2-3566FC124D27";
name = Regular;
paths = (
{
closed = 1;
nodes = (
"144 1086 LINE",
"297 1481 LINE",
"396 1481 LINE",
"220 1086 LINE"
);
}
);
width = 551;
}
);
unicode = 02BC;
},
{
glyphname = acute;
layers = (
{
anchors = (
{
name = _top;
position = "{261, 986}";
}
);
layerId = "9209D6FA-1952-4593-83C2-3566FC124D27";
name = Regular;
paths = (
{
closed = 1;
nodes = (
"81 1176 LINE",
"258 1523 LINE",
"441 1523 LINE",
"145 1176 LINE"
);
}
);
width = 611;
}
);
unicode = 00B4;
},
{
glyphname = breve;
layers = (
{
anchors = (
{
name = _top;
position = "{365, 986}";
}
);
layerId = "9209D6FA-1952-4593-83C2-3566FC124D27";
name = Regular;
paths = (
{
closed = 1;
nodes = (
"446 1235 OFFCURVE",
"563 1292 OFFCURVE",
"563 1443 CURVE SMOOTH",
"505 1443 LINE SMOOTH",
"505 1339 OFFCURVE",
"423 1287 OFFCURVE",
"363 1287 CURVE SMOOTH",
"303 1287 OFFCURVE",
"227 1339 OFFCURVE",
"227 1443 CURVE SMOOTH",
"167 1443 LINE SMOOTH",
"167 1291 OFFCURVE",
"281 1235 OFFCURVE",
"363 1235 CURVE SMOOTH"
);
}
);
width = 734;
}
);
unicode = 02D8;
},
{
glyphname = caron;
layers = (
{
anchors = (
{
name = _top;
position = "{364, 986}";
}
);
layerId = "9209D6FA-1952-4593-83C2-3566FC124D27";
name = Regular;
paths = (
{
closed = 1;
nodes = (
"266 1179 LINE",
"154 1542 LINE",
"212 1542 LINE",
"372 1186 LINE",
"516 1542 LINE",
"574 1542 LINE",
"463 1179 LINE"
);
}
);
width = 765;
}
);
unicode = 02C7;
},
{
glyphname = cedilla;
layers = (
{
anchors = (
{
name = _bottom;
position = "{206, 0}";
}
);
layerId = "9209D6FA-1952-4593-83C2-3566FC124D27";
name = Regular;
paths = (
{
closed = 1;
nodes = (
"148 -423 LINE",
"239 -15 LINE",
"265 -15 LINE",
"236 -423 LINE"
);
}
);
width = 563;
}
);
unicode = 00B8;
},
{
glyphname = circumflex;
layers = (
{
anchors = (
{
name = _top;
position = "{365, 986}";
}
);
layerId = "9209D6FA-1952-4593-83C2-3566FC124D27";
name = Regular;
paths = (
{
closed = 1;
nodes = (
"148 1199 LINE",
"270 1542 LINE",
"462 1542 LINE",
"582 1199 LINE",
"510 1199 LINE",
"372 1483 LINE",
"221 1199 LINE"
);
}
);
width = 764;
}
);
unicode = 02C6;
},
{
glyphname = dieresis;
layers = (
{
anchors = (
{
name = _top;
position = "{361, 986}";
}
);
layerId = "9209D6FA-1952-4593-83C2-3566FC124D27";
name = Regular;
paths = (
{
closed = 1;
nodes = (
"140 1155 LINE",
"140 1314 LINE",
"241 1314 LINE",
"241 1155 LINE"
);
},
{
closed = 1;
nodes = (
"479 1155 LINE",
"479 1314 LINE",
"581 1314 LINE",
"581 1155 LINE"
);
}
);
width = 716;
}
);
unicode = 00A8;
},
{
glyphname = dotaccent;
layers = (
{
anchors = (
{
name = _top;
position = "{152, 986}";
}
);
layerId = "9209D6FA-1952-4593-83C2-3566FC124D27";
name = Regular;
paths = (
{
closed = 1;
nodes = (
"93 1215 LINE",
"93 1374 LINE",
"212 1374 LINE",
"212 1215 LINE"
);
}
);
width = 299;
}
);
unicode = 02D9;
},
{
glyphname = grave;
layers = (
{
anchors = (
{
name = _top;
position = "{318, 986}";
}
);
layerId = "9209D6FA-1952-4593-83C2-3566FC124D27";
name = Regular;
paths = (
{
closed = 1;
nodes = (
"431 1176 LINE",
"150 1523 LINE",
"325 1523 LINE",
"486 1176 LINE"
);
}
);
width = 689;
}
);
unicode = 0060;
},
{
glyphname = hungarumlaut;
layers = (
{
anchors = (
{
name = _top;
position = "{299, 986}";
}
);
layerId = "9209D6FA-1952-4593-83C2-3566FC124D27";
name = Regular;
paths = (
{
closed = 1;
nodes = (
"111 1212 LINE",
"253 1494 LINE",
"327 1494 LINE",
"163 1212 LINE"
);
},
{
closed = 1;
nodes = (
"278 1212 LINE",
"420 1494 LINE",
"488 1494 LINE",
"333 1212 LINE"
);
}
);
width = 650;
}
);
unicode = 02DD;
},
{
glyphname = macron;
layers = (
{
anchors = (
{
name = _top;
position = "{539, 986}";
}
);
layerId = "9209D6FA-1952-4593-83C2-3566FC124D27";
name = Regular;
paths = (
{
closed = 1;
nodes = (
"145 1426 LINE",
"145 1532 LINE",
"933 1532 LINE",
"933 1426 LINE"
);
}
);
width = 1090;
}
);
unicode = 00AF;
},
{
glyphname = ogonek;
layers = (
{
anchors = (
{
name = _ogonek;
position = "{393, 10}";
}
);
layerId = "9209D6FA-1952-4593-83C2-3566FC124D27";
name = Regular;
paths = (
{
closed = 1;
nodes = (
"377 -395 OFFCURVE",
"319 -408 OFFCURVE",
"278 -408 CURVE SMOOTH",
"184 -408 OFFCURVE",
"116 -351 OFFCURVE",
"116 -253 CURVE SMOOTH",
"116 -170 OFFCURVE",
"191 -93 OFFCURVE",
"290 -36 CURVE",
"392 -25 LINE",
"281 -104 OFFCURVE",
"184 -174 OFFCURVE",
"184 -241 CURVE SMOOTH",
"184 -298 OFFCURVE",
"240 -330 OFFCURVE",
"276 -330 CURVE SMOOTH",
"323 -330 OFFCURVE",
"331 -329 OFFCURVE",
"403 -301 CURVE SMOOTH",
"402 -301 OFFCURVE",
"397 -384 OFFCURVE",
"397 -384 CURVE SMOOTH"
);
}
);
width = 560;
}
);
unicode = 02DB;
},
{
glyphname = ring;
layers = (
{
anchors = (
{
name = _top;
position = "{286, 986}";
}
);
layerId = "9209D6FA-1952-4593-83C2-3566FC124D27";
name = Regular;
paths = (
{
closed = 1;
nodes = (
"193 1296 OFFCURVE",
"231 1256 OFFCURVE",
"286 1256 CURVE SMOOTH",
"326 1256 OFFCURVE",
"376 1303 OFFCURVE",
"376 1363 CURVE SMOOTH",
"376 1423 OFFCURVE",
"333 1474 OFFCURVE",
"286 1474 CURVE SMOOTH",
"246 1474 OFFCURVE",
"193 1424 OFFCURVE",
"193 1363 CURVE SMOOTH"
);
},
{
closed = 1;
nodes = (
"442 1256 OFFCURVE",
"351 1213 OFFCURVE",
"290 1213 CURVE SMOOTH",
"221 1213 OFFCURVE",
"131 1256 OFFCURVE",
"131 1363 CURVE SMOOTH",
"131 1474 OFFCURVE",
"223 1531 OFFCURVE",
"286 1531 CURVE SMOOTH",
"354 1531 OFFCURVE",
"442 1465 OFFCURVE",
"442 1363 CURVE SMOOTH"
);
}
);
width = 572;
}
);
unicode = 02DA;
},
{
glyphname = tilde;
layers = (
{
anchors = (
{
name = _top;
position = "{417, 986}";
}
);
layerId = "9209D6FA-1952-4593-83C2-3566FC124D27";
name = Regular;
paths = (
{
closed = 1;
nodes = (
"251 1393 OFFCURVE",
"158 1379 OFFCURVE",
"158 1216 CURVE SMOOTH",
"217 1222 LINE",
"222 1305 OFFCURVE",
"242 1307 OFFCURVE",
"278 1309 CURVE SMOOTH",
"235 1309 OFFCURVE",
"489 1222 OFFCURVE",
"557 1222 CURVE SMOOTH",
"614 1222 OFFCURVE",
"677 1186 OFFCURVE",
"677 1393 CURVE",
"614 1393 LINE",
"609 1330 OFFCURVE",
"613 1312 OFFCURVE",
"565 1308 CURVE",
"588 1308 OFFCURVE",
"416 1393 OFFCURVE",
"309 1393 CURVE SMOOTH"
);
}
);
width = 892;
}
);
unicode = 02DC;
},
{
glyphname = tonos;
layers = (
{
anchors = (
{
name = _top;
position = "{217, 986}";
}
);
layerId = "9209D6FA-1952-4593-83C2-3566FC124D27";
name = Regular;
paths = (
{
closed = 1;
nodes = (
"333 542 OFFCURVE",
"295 485 OFFCURVE",
"217 485 CURVE SMOOTH",
"140 485 OFFCURVE",
"101 542 OFFCURVE",
"101 600 CURVE SMOOTH",
"101 658 OFFCURVE",
"140 715 OFFCURVE",
"217 715 CURVE SMOOTH",
"295 715 OFFCURVE",
"333 658 OFFCURVE",
"333 600 CURVE SMOOTH"
);
}
);
width = 439;
}
);
unicode = 0384;
},
{
glyphname = dieresistonos;
layers = (
{
anchors = (
{
name = _top;
position = "{217, 986}";
}
);
layerId = "9209D6FA-1952-4593-83C2-3566FC124D27";
name = Regular;
paths = (
{
closed = 1;
nodes = (
"333 542 OFFCURVE",
"295 485 OFFCURVE",
"217 485 CURVE SMOOTH",
"140 485 OFFCURVE",
"101 542 OFFCURVE",
"101 600 CURVE SMOOTH",
"101 658 OFFCURVE",
"140 715 OFFCURVE",
"217 715 CURVE SMOOTH",
"295 715 OFFCURVE",
"333 658 OFFCURVE",
"333 600 CURVE SMOOTH"
);
}
);
width = 439;
}
);
unicode = 0385;
},
{
glyphname = middot;
layers = (
{
layerId = "9209D6FA-1952-4593-83C2-3566FC124D27";
name = Regular;
paths = (
{
closed = 1;
nodes = (
"107 511 LINE",
"107 691 LINE",
"260 691 LINE",
"260 511 LINE"
);
}
